<?xml version="1.0" encoding="utf-8"?>
<!-- Generator: Adobe Illustrator 17.0.0, SVG Export Plug-In . SVG Version: 6.00 Build 0)  -->
<!DOCTYPE svg PUBLIC "-//W3C//DTD SVG 1.1//EN" "http://www.w3.org/Graphics/SVG/1.1/DTD/svg11.dtd">
<svg version="1.1" id="Layer_1" xmlns="http://www.w3.org/2000/svg" xmlns:xlink="http://www.w3.org/1999/xlink" x="0px" y="0px"
	 width="190px" height="100px" viewBox="0 0 190 100" enable-background="new 0 0 190 100" xml:space="preserve">
<g id="Layer_1_1_" display="none">
	
		<image display="inline" overflow="visible" enable-background="new    " width="446" height="370" xlink:href="1DFF8A7E.jpeg"  transform="matrix(-0.3631 -0.0526 -0.0526 0.3631 180.5163 -14.8235)">
	</image>
</g>
<g id="Layer_2">
	<path fill="#595858" d="M16.486,39.363h-4.851c0,0-2.426-2.729-5.003-2.426c0,0-4.093,0.303-5.458,4.245
		c0,0-1.516,6.672,4.397,7.429c0,0,4.093,1.061,6.671-3.184l6.671,0.152v-6.216H16.486z"/>
	<path fill="#595858" d="M177.794,50.582L36.195,59.375c-11.387,0-20.467-9.231-20.467-20.618l0,0
		c0-11.387,9.004-20.618,20.391-20.618l141.674,2.122V50.582z"/>
	<path fill="#424242" d="M15.728,38.756l162.066-4.245v16.677L34.072,59.375C34.072,59.375,17.093,61.194,15.728,38.756z"/>
	<path fill="#898989" d="M188.558,49.04c0.091,2.929-2.21,5.378-5.139,5.469l-0.303,0.01c-2.929,0.091-5.378-2.21-5.469-5.139
		l-0.914-29.397c-0.091-2.929,2.21-5.378,5.139-5.469l0.303-0.01c2.929-0.091,5.378,2.21,5.469,5.139L188.558,49.04z"/>
	<path fill="#898989" d="M170.974,50.423c0.091,2.929-1.022,5.34-2.486,5.386l-0.152,0.005c-1.465,0.046-2.725-2.292-2.817-5.221
		l-0.914-29.397c-0.091-2.929,1.022-5.34,2.486-5.386l0.152-0.005c1.465-0.046,2.725,2.292,2.817,5.221L170.974,50.423z"/>
	<path fill="#898989" d="M114.051,51.756c0.098,3.144-1.01,5.729-2.474,5.776l-0.152,0.005c-1.465,0.046-2.731-2.466-2.83-5.611
		l-0.982-31.553c-0.098-3.144,1.01-5.729,2.474-5.776l0.152-0.005c1.465-0.046,2.731,2.466,2.83,5.611L114.051,51.756z"/>
	<path fill="#898989" d="M104.398,53.374c0.102,3.281-1.002,5.977-2.467,6.023l-0.152,0.005c-1.465,0.046-2.735-2.577-2.837-5.857
		l-1.025-32.924c-0.102-3.281,1.002-5.977,2.467-6.023l0.152-0.005c1.465-0.046,2.735,2.577,2.837,5.857L104.398,53.374z"/>
	<path fill="#898989" d="M46.237,56.386c0.107,3.432-0.993,6.252-2.458,6.297l-0.152,0.005c-1.465,0.046-2.739-2.7-2.845-6.132
		l-1.072-34.45c-0.107-3.432,0.993-6.252,2.458-6.297l0.152-0.005c1.465-0.046,2.739,2.7,2.845,6.132L46.237,56.386z"/>
</g>
<g id="Layer_3">
	<polygon fill="#33120A" points="47.872,51.491 48.176,68.461 138.531,65.49 138.034,49.444 	"/>
	<polygon fill="#512011" points="47.872,51.491 48.023,57.857 138.103,54.774 137.698,41.03 74.554,43.001 74.554,50.278 	"/>
	<path fill="#898989" d="M136.204,45.472c0.018,0.628-0.477,1.151-1.105,1.169l-0.152,0.005c-0.628,0.018-1.151-0.477-1.169-1.105
		l-0.005-0.152c-0.018-0.628,0.477-1.151,1.105-1.169l0.152-0.005c0.628-0.018,1.151,0.477,1.169,1.105L136.204,45.472z"/>
	<path fill="#898989" d="M136.41,52.745c0.018,0.628-0.477,1.151-1.105,1.169l-0.152,0.005c-0.628,0.018-1.151-0.477-1.169-1.105
		l-0.005-0.152c-0.018-0.628,0.477-1.151,1.105-1.169l0.152-0.005c0.628-0.018,1.151,0.477,1.169,1.105L136.41,52.745z"/>
	<path fill="#898989" d="M136.617,60.02c0.018,0.628-0.477,1.151-1.105,1.169l-0.152,0.005c-0.628,0.018-1.151-0.477-1.169-1.105
		l-0.005-0.152c-0.018-0.628,0.477-1.151,1.105-1.169l0.152-0.005c0.628-0.018,1.151,0.477,1.169,1.105L136.617,60.02z"/>
	<path fill="#898989" d="M52.723,57.632c0,0.627-0.509,1.136-1.136,1.136h-0.152c-0.628,0-1.138-0.509-1.138-1.136V57.48
		c0-0.628,0.509-1.138,1.138-1.138h0.152c0.627,0,1.136,0.509,1.136,1.138V57.632z"/>
	<path fill="#898989" d="M52.723,63.696c0,0.627-0.509,1.136-1.136,1.136h-0.152c-0.628,0-1.138-0.509-1.138-1.136v-0.152
		c0-0.628,0.509-1.138,1.138-1.138h0.152c0.627,0,1.136,0.509,1.136,1.138V63.696z"/>
</g>
<path display="none" fill="#FFFFFF" d="M67.25,78"/>
<path fill="#5B2E14" d="M57.75,100l21.11-45.239c0,0,1.617-5.68,4.55-8.51l2.121-0.076l2.727-0.097
	c3.127,2.613,5.146,8.163,5.146,8.163L117,100H57.75z"/>
<polygon fill="#2B1307" points="82,75.5 82,100 71,100 "/>
<polyline fill="#2B1307" points="93.201,100 93.201,75.5 104.404,100.667 "/>
<path fill="#898989" d="M90.098,53.162c0,1.984-1.612,3.596-3.596,3.596h-0.48c-1.988,0-3.6-1.612-3.6-3.596v-0.48
	c0-1.988,1.612-3.6,3.6-3.6h0.48c1.984,0,3.596,1.612,3.596,3.6V53.162z"/>
</svg>
