<?xml version="1.0" encoding="utf-8"?>
<!-- Generator: Adobe Illustrator 17.0.0, SVG Export Plug-In . SVG Version: 6.00 Build 0)  -->
<!DOCTYPE svg PUBLIC "-//W3C//DTD SVG 1.1//EN" "http://www.w3.org/Graphics/SVG/1.1/DTD/svg11.dtd">
<svg version="1.1" id="Layer_1" xmlns="http://www.w3.org/2000/svg" xmlns:xlink="http://www.w3.org/1999/xlink" x="0px" y="0px"
	 width="100px" height="100px" viewBox="0 0 100 100" enable-background="new 0 0 100 100" xml:space="preserve">
<g id="Layer_2">
	<path fill="#939393" d="M98.024,58.629C97.977,83.568,71.248,98.9,51.7,98.9c-21.307,0-46.923-13.934-46.923-38.873"/>
</g>
<g id="Layer_2_1_">
	<path fill="#939393" d="M4.777,60.027c0-24.939,25.616-42.161,46.923-42.161c19.548,0,46.246,17.222,46.293,42.161"/>
</g>
<g id="Layer_1_1_">
	<g id="Layer_1_2_">
		<path fill="#A02A27" d="M51.618,21.5C75.874,21.5,92.6,37.804,92.6,57.916S75.873,94.333,51.618,94.333
			S10.636,78.029,10.636,57.917S27.362,21.5,51.618,21.5z"/>
	</g>
	<path fill="none" stroke="#000000" stroke-width="2.3848" stroke-linecap="round" stroke-miterlimit="10" d="M20.541,42.859"/>
	<path fill="none" stroke="#000000" stroke-width="2.3848" stroke-linecap="round" stroke-miterlimit="10" d="M48.123,42.859"/>
	<path stroke="#000000" stroke-width="2.2671" stroke-linecap="round" stroke-miterlimit="10" d="M74.325,60.246l-30.636,0.32
		c-8.245,0.087-14.987-3.737-15.06-8.538l0,0c-0.073-4.802,6.551-8.763,14.797-8.85l30.636-0.32L74.325,60.246z"/>
	
		<ellipse fill="none" stroke="#000000" stroke-width="3.3211" stroke-miterlimit="10" cx="40.127" cy="65.27" rx="15.273" ry="12.664"/>
	
		<rect x="74.325" y="40.023" stroke="#000000" stroke-width="2.2671" stroke-linecap="round" stroke-miterlimit="10" width="3.203" height="23.059"/>
	<ellipse stroke="#000000" stroke-width="0.8303" stroke-miterlimit="10" cx="23.39" cy="51.647" rx="2.849" ry="2.362"/>
	
		<line fill="none" stroke="#000000" stroke-width="3.3211" stroke-miterlimit="10" x1="27.13" y1="57.485" x2="52.507" y2="72.685"/>
	
		<line fill="none" stroke="#000000" stroke-width="3.3211" stroke-miterlimit="10" x1="42.329" y1="52.866" x2="38.497" y2="77.966"/>
	
		<line fill="none" stroke="#000000" stroke-width="3.3211" stroke-miterlimit="10" x1="25.721" y1="70.01" x2="54.952" y2="61.056"/>
	<path fill="none" stroke="#A02A27" stroke-width="3.3211" stroke-linecap="round" stroke-miterlimit="10" d="M54.576,61.172
		c0,0-3.11-7.514-12.247-8.566c0,0-6.994-1.046-12.226,3.109"/>
	
		<line fill="none" stroke="#A02A27" stroke-width="2.4908" stroke-linecap="square" stroke-miterlimit="10" x1="42.329" y1="52.605" x2="41.226" y2="60.059"/>
</g>
</svg>
