<?xml version="1.0" encoding="utf-8"?>
<!-- Generator: Adobe Illustrator 17.0.0, SVG Export Plug-In . SVG Version: 6.00 Build 0)  -->
<!DOCTYPE svg PUBLIC "-//W3C//DTD SVG 1.1//EN" "http://www.w3.org/Graphics/SVG/1.1/DTD/svg11.dtd">
<svg version="1.1" id="Layer_1" xmlns="http://www.w3.org/2000/svg" xmlns:xlink="http://www.w3.org/1999/xlink" x="0px" y="0px"
	 width="100px" height="100px" viewBox="0 0 100 100" enable-background="new 0 0 100 100" xml:space="preserve">
<g id="Layer_1_1_">
	<circle fill="#E74C3C" cx="49.833" cy="49.667" r="48.167"/>
	<circle fill="none" stroke="#000000" stroke-width="3.7051" stroke-miterlimit="10" cx="49.679" cy="49.512" r="43.381"/>
</g>
<path fill="none" stroke="#000000" stroke-width="2.8723" stroke-linecap="round" stroke-miterlimit="10" d="M15.75,29.75"/>
<path fill="none" stroke="#000000" stroke-width="2.8723" stroke-linecap="round" stroke-miterlimit="10" d="M46,29.75"/>
<path stroke="#000000" stroke-width="2.7305" stroke-linecap="round" stroke-miterlimit="10" d="M74.737,52.748l-33.599,0.423
	c-9.042,0.114-16.437-4.942-16.517-11.293l0,0c-0.08-6.351,7.185-11.591,16.228-11.705l33.599-0.423L74.737,52.748z"/>
<circle fill="none" stroke="#000000" stroke-width="4" stroke-miterlimit="10" cx="37.231" cy="59.393" r="16.75"/>
<rect x="74.737" y="26" stroke="#000000" stroke-width="2.7305" stroke-linecap="round" stroke-miterlimit="10" width="3.513" height="30.5"/>
<circle stroke="#000000" stroke-miterlimit="10" cx="18.875" cy="41.375" r="3.125"/>
<line fill="none" stroke="#000000" stroke-width="4" stroke-miterlimit="10" x1="22.977" y1="49.097" x2="50.809" y2="69.201"/>
<line fill="none" stroke="#000000" stroke-width="4" stroke-miterlimit="10" x1="39.646" y1="42.987" x2="35.443" y2="76.186"/>
<line fill="none" stroke="#000000" stroke-width="4" stroke-miterlimit="10" x1="21.431" y1="65.663" x2="53.49" y2="53.82"/>
<path fill="none" stroke="#E74C3C" stroke-width="4" stroke-linecap="round" stroke-miterlimit="10" d="M53.078,53.972
	c0,0-3.411-9.939-13.432-11.33c0,0-7.671-1.384-13.409,4.112"/>
<line fill="none" stroke="#E74C3C" stroke-width="3" stroke-linecap="square" stroke-miterlimit="10" x1="39.646" y1="42.642" x2="38.436" y2="52.502"/>
</svg>
