<?xml version="1.0" encoding="utf-8"?>
<!-- Generator: Adobe Illustrator 17.0.0, SVG Export Plug-In . SVG Version: 6.00 Build 0)  -->
<!DOCTYPE svg PUBLIC "-//W3C//DTD SVG 1.1//EN" "http://www.w3.org/Graphics/SVG/1.1/DTD/svg11.dtd">
<svg version="1.1" id="Layer_1" xmlns="http://www.w3.org/2000/svg" xmlns:xlink="http://www.w3.org/1999/xlink" x="0px" y="0px"
	 width="35px" height="602.333px" viewBox="0 0 35 602.333" enable-background="new 0 0 35 602.333" xml:space="preserve">
<path fill="none" stroke="#4B4F4F" stroke-width="2.0148" stroke-miterlimit="10" d="M3.591,585.098
	c0,5.064,4.045,9.168,9.035,9.168l0,0c4.99,0,9.035-4.105,9.035-9.168V100.036c0-5.064-4.045-9.168-9.035-9.168l0,0
	c-4.99,0-9.035,4.105-9.035,9.168V585.098z"/>
<line fill="none" stroke="#ECF0F1" stroke-width="16.2505" stroke-miterlimit="10" x1="22.084" y1="602.333" x2="22.661" y2="79.678"/>
<ellipse fill="#ECF0F1" cx="22.563" cy="61.943" rx="11.354" ry="11.712"/>
<line fill="none" stroke="#DDDDDD" stroke-width="8.1252" stroke-miterlimit="10" x1="27.084" y1="602.333" x2="27.661" y2="79.678"/>
<path fill="#DDDDDD" d="M23.646,50.231C29.917,50.231,35,55.474,35,61.943s-5.083,11.712-11.354,11.712"/>
</svg>
