<?xml version="1.0" encoding="utf-8"?>
<!-- Generator: Adobe Illustrator 17.0.0, SVG Export Plug-In . SVG Version: 6.00 Build 0)  -->
<!DOCTYPE svg PUBLIC "-//W3C//DTD SVG 1.1//EN" "http://www.w3.org/Graphics/SVG/1.1/DTD/svg11.dtd">
<svg version="1.1" id="Layer_1" xmlns="http://www.w3.org/2000/svg" xmlns:xlink="http://www.w3.org/1999/xlink" x="0px" y="0px"
	 width="100px" height="100px" viewBox="0 0 100 100" enable-background="new 0 0 100 100" xml:space="preserve">
<g id="Layer_2_1_">
	<path fill="#939393" d="M97.024,58.729C96.977,83.668,70.248,99,50.7,99C29.393,99,3.777,85.066,3.777,60.127
		c0,0-1.241-11.052,6.074-22.956s0,0,0,0h81.533C91.385,37.171,97.049,45.858,97.024,58.729z"/>
	<g>
		<path fill="#CCAD29" d="M91.599,57.892c0,22.315-23.49,35.563-40.982,35.563c-19.066,0-40.982-11.997-40.982-34.312l0.19-21.304
			L91.3,38.424L91.599,57.892z"/>
	</g>
</g>
<g id="Layer_1_1_">
	<ellipse fill="#F4D03F" cx="50.582" cy="40.917" rx="40.757" ry="39.917"/>
	<polygon points="51.452,58.347 21.321,37.838 51.205,17.33 80.87,37.838 	"/>
	<path stroke="#F4D03F" stroke-width="0.8374" stroke-miterlimit="10" d="M32.249,57.677V39.814c0,0,16.077-16.146,37.231,0v17.863
		c0,0-8.97-8.411-18.615,1.031C50.864,58.707,43.249,47.543,32.249,57.677z"/>
</g>
<g id="Layer_2">
	<polygon stroke="#000000" stroke-width="0.8589" stroke-miterlimit="10" points="23.685,39.932 23.685,49.046 23.685,57.388 
		26.389,57.388 24.684,49.419 24.394,40.167 	"/>
</g>
</svg>
