<?xml version="1.0" encoding="utf-8"?>
<!-- Generator: Adobe Illustrator 17.0.0, SVG Export Plug-In . SVG Version: 6.00 Build 0)  -->
<!DOCTYPE svg PUBLIC "-//W3C//DTD SVG 1.1//EN" "http://www.w3.org/Graphics/SVG/1.1/DTD/svg11.dtd">
<svg version="1.1" xmlns="http://www.w3.org/2000/svg" xmlns:xlink="http://www.w3.org/1999/xlink" x="0px" y="0px" width="6400px"
	 height="250px" viewBox="0 0 6400 250" enable-background="new 0 0 6400 250" xml:space="preserve">
<g id="Layer_1">
	<line fill="none" stroke="#494949" stroke-width="3" stroke-miterlimit="10" x1="982.5" y1="250" x2="1093.5" y2="32.5"/>
	<g id="Layer_1_1_" display="none">
		<g display="inline">
			<polygon fill="#8E5E32" points="1141.749,251 1154.249,251 1154.358,158.664 1149.102,74 			"/>
			<polyline fill="#634125" points="1148.749,131 1148.749,251 1156.749,251 			"/>
			<polygon fill="#C0392B" points="1147.749,24 1147.749,217 1181.749,217 			"/>
			<polyline fill="#E74C3C" points="1113.749,217 1147.749,24 1147.749,217 			"/>
		</g>
		<g display="inline">
			<ellipse fill="#F1C40F" cx="944.378" cy="136.922" rx="74.849" ry="82.064"/>
			<polygon fill="#8E5E32" points="934.129,250 956.074,250 950.358,187.467 945.102,130.129 			"/>
			<path fill="#F39C12" d="M944.979,54.858c41.338,0,74.849,36.741,74.849,82.064s-33.511,82.064-74.849,82.064"/>
			<polygon fill="#634125" points="975.083,172.516 950.057,187.355 949.378,179.935 			"/>
			<polygon fill="#8E5E32" points="943.106,171.346 892.137,150.953 942.79,174.795 			"/>
			<polyline fill="#634125" points="944.748,130 944.748,250 955.748,250 			"/>
		</g>
		<g display="inline">
			<polygon fill="#8E5E32" points="1954.749,249 1967.249,249 1963.749,157.667 1961.749,136.333 			"/>
			<polyline fill="#634125" points="1961.749,129 1961.749,249 1969.749,249 			"/>
			<polygon fill="#D35400" points="1961.749,76 1961.749,212 2064.749,212 			"/>
			<polygon fill="#E67E22" points="1961.749,76 1961.749,212 1858.749,212 			"/>
		</g>
		<g display="inline">
			<polygon fill="#8E5E32" points="2156.749,250 2169.249,250 2165.749,158.667 2163.749,137.333 			"/>
			<polyline fill="#634125" points="2163.749,130 2163.749,250 2171.749,250 			"/>
			<path fill="#E74C3C" d="M2163.749,216c-31.48,0-65.256-14.664-54.467-62.336L2163.749,50V216z"/>
			<path fill="#C0392B" d="M2163.749,216c32,0,65.256-14.664,54.467-62.336L2163.749,50V216z"/>
		</g>
		<g display="inline">
			<ellipse fill="#2ECC71" cx="1050.552" cy="121.697" rx="85.589" ry="93.839"/>
			<polygon fill="#8E5E32" points="1038.833,251 1063.926,251 1057.39,179.495 1051.379,113.93 			"/>
			<path fill="#27AE60" d="M1051.239,27.858c47.27,0,85.589,42.013,85.589,93.839s-38.32,93.839-85.589,93.839"/>
			<polygon fill="#634125" points="1085.663,162.398 1057.046,179.366 1056.269,170.882 			"/>
			<polygon fill="#8E5E32" points="1049.097,161.06 990.815,137.741 1048.736,165.004 			"/>
			<polyline fill="#634125" points="1050.749,114 1050.749,251 1063.749,251 			"/>
		</g>
		<g display="inline">
			<ellipse fill="#2ECC71" cx="2061.378" cy="135.922" rx="74.849" ry="82.064"/>
			<polygon fill="#8E5E32" points="2051.129,249 2073.074,249 2067.358,186.467 2062.102,129.129 			"/>
			<path fill="#27AE60" d="M2061.979,53.858c41.338,0,74.849,36.741,74.849,82.064s-33.511,82.064-74.849,82.064"/>
			<polygon fill="#634125" points="2092.083,171.516 2067.057,186.355 2066.377,178.935 			"/>
			<polygon fill="#8E5E32" points="2060.106,170.346 2009.137,149.953 2059.79,173.795 			"/>
			<polyline fill="#634125" points="2061.749,129 2061.749,249 2072.749,249 			"/>
		</g>
		<g display="inline">
			<ellipse fill="#E74C3C" cx="2722.497" cy="150.091" rx="66.795" ry="73.233"/>
			<polygon fill="#8E5E32" points="2713.352,251 2732.935,251 2727.834,195.196 2723.143,144.029 			"/>
			<path fill="#C0392B" d="M2723.034,76.858c36.89,0,66.794,32.787,66.794,73.233s-29.905,73.233-66.794,73.233"/>
			<polygon fill="#634125" points="2749.898,181.854 2727.565,195.096 2726.959,188.475 			"/>
			<polygon fill="#8E5E32" points="2721.362,180.81 2675.878,162.612 2721.08,183.888 			"/>
			<polyline fill="#634125" points="2722.749,144 2722.749,251 2732.749,251 			"/>
		</g>
		<g display="inline">
			<ellipse fill="#E67E22" cx="3549.119" cy="155.518" rx="63.202" ry="69.294"/>
			<polygon fill="#8E5E32" points="3540.465,251 3558.995,251 3554.168,198.198 3549.73,149.782 			"/>
			<path fill="#D35400" d="M3549.626,86.224c34.906,0,63.202,31.024,63.202,69.294s-28.296,69.294-63.202,69.294"/>
			<polygon fill="#634125" points="3575.046,185.573 3553.914,198.103 3553.34,191.838 			"/>
			<polygon fill="#8E5E32" points="3548.044,184.585 3505.007,167.366 3547.778,187.497 			"/>
			<polyline fill="#634125" points="3549.749,150 3549.749,251 3558.749,251 			"/>
		</g>
		<g display="inline">
			<ellipse fill="#F1C40F" cx="3909.583" cy="166.316" rx="56.055" ry="61.458"/>
			<polygon fill="#8E5E32" points="3901.908,251 3918.343,251 3914.062,204.169 3910.125,161.229 			"/>
			<path fill="#F39C12" d="M3910.033,104.858c30.958,0,56.055,27.516,56.055,61.458s-25.096,61.458-56.055,61.458"/>
			<polygon fill="#634125" points="3932.578,192.972 3913.836,204.085 3913.327,198.528 			"/>
			<polygon fill="#8E5E32" points="3908.63,192.096 3870.46,176.824 3908.394,194.679 			"/>
			<polyline fill="#634125" points="3909.749,161 3909.749,251 3918.749,251 			"/>
		</g>
		<g display="inline">
			<ellipse fill="#E67E22" cx="2244.772" cy="163.009" rx="58.244" ry="63.858"/>
			<polygon fill="#8E5E32" points="2236.797,251 2253.874,251 2249.425,202.34 2245.335,157.723 			"/>
			<path fill="#D35400" d="M2245.24,99.151c32.167,0,58.244,28.59,58.244,63.858s-26.077,63.858-58.244,63.858"/>
			<polygon fill="#634125" points="2268.665,190.706 2249.191,202.253 2248.663,196.479 			"/>
			<polygon fill="#8E5E32" points="2243.782,189.796 2204.121,173.927 2243.536,192.479 			"/>
			<polyline fill="#634125" points="2244.749,158 2244.749,251 2253.749,251 			"/>
		</g>
		<g display="inline">
			<polygon fill="#8E5E32" points="2815.749,251 2828.249,251 2828.358,158.664 2823.102,74 			"/>
			<polyline fill="#634125" points="2822.749,131 2822.749,251 2830.749,251 			"/>
			<polygon fill="#F39C12" points="2821.749,24 2821.749,217 2855.749,217 			"/>
			<polyline fill="#F1C40F" points="2787.749,217 2821.749,24 2821.749,217 			"/>
		</g>
		<g display="inline">
			<polygon fill="#8E5E32" points="2913.749,250 2926.249,250 2922.749,158.667 2920.749,137.333 			"/>
			<polyline fill="#634125" points="2920.749,130 2920.749,250 2928.749,250 			"/>
			<polygon fill="#27AE60" points="2920.749,77 2920.749,213 2992.415,213 			"/>
			<polygon fill="#2ECC71" points="2920.749,77 2920.749,213 2849.082,213 			"/>
		</g>
		<g display="inline">
			<polygon fill="#8E5E32" points="3637.186,250 3651.311,250 3647.356,146.793 3645.096,122.687 			"/>
			<polyline fill="#634125" points="3644.749,114 3644.749,250 3653.749,250 			"/>
			<path fill="#E74C3C" d="M3644.749,211.58c-35,0-73.74-16.571-61.547-70.439L3644.749,24V211.58z"/>
			<path fill="#C0392B" d="M3644.749,211.58c37,0,73.739-16.571,61.547-70.439L3644.749,24V211.58z"/>
		</g>
		<g display="inline">
			<polygon fill="#8E5E32" points="1875.475,250 1885.409,250 1882.628,177.414 1881.038,160.46 			"/>
			<polyline fill="#634125" points="1880.749,155 1880.749,250 1887.749,250 			"/>
			<polygon fill="#F39C12" points="1880.749,112.51 1880.749,221 1937.994,221 			"/>
			<polygon fill="#F1C40F" points="1880.749,112.51 1880.749,221 1824.082,221 			"/>
		</g>
	</g>
	<g id="Layer_2" display="none">
		<g display="inline">
			<g>
				<polygon fill="#EE4F57" points="2096.832,195.919 2043.337,195.919 2043.337,15.441 2070.084,-0.048 2096.832,15.441 				"/>
				<path fill="#E6DDE1" d="M2069.24,195.965h-11.888v-23.55h11.888V195.965z M2082.816,172.414h-11.887v23.55h11.887V172.414z"/>
				<rect x="2047.896" y="159.978" fill="#E6DDE1" width="44.377" height="3.46"/>
				<rect x="2047.896" y="147.805" fill="#E6DDE1" width="44.377" height="3.46"/>
				<rect x="2047.896" y="135.633" fill="#E6DDE1" width="44.377" height="3.46"/>
				<rect x="2047.896" y="123.46" fill="#E6DDE1" width="44.377" height="3.46"/>
				<rect x="2047.896" y="111.288" fill="#E6DDE1" width="44.377" height="3.46"/>
				<rect x="2047.896" y="99.116" fill="#E6DDE1" width="44.377" height="3.46"/>
				<rect x="2047.896" y="86.943" fill="#E6DDE1" width="44.377" height="3.46"/>
				<rect x="2047.896" y="74.771" fill="#E6DDE1" width="44.377" height="3.46"/>
				<rect x="2047.896" y="62.599" fill="#E6DDE1" width="44.377" height="3.46"/>
				<rect x="2047.896" y="50.426" fill="#E6DDE1" width="44.377" height="3.46"/>
				<rect x="2047.896" y="38.254" fill="#E6DDE1" width="44.377" height="3.46"/>
				<rect x="2047.896" y="26.081" fill="#E6DDE1" width="44.377" height="3.46"/>
			</g>
			<g>
				<polygon fill="#46474A" points="1973.833,212.13 1920.338,212.13 1920.338,31.652 1947.086,16.163 1973.833,31.652 				"/>
				<g>
					<g>
						<path fill="#E6DDE1" d="M1939.453,178.358v-11.52c0-2.35-1.905-4.256-4.255-4.256s-4.256,1.906-4.256,4.256v11.52H1939.453z"
							/>
						<path fill="#E6DDE1" d="M1939.453,154.487v-11.52c0-2.35-1.905-4.256-4.255-4.256s-4.256,1.905-4.256,4.256v11.52H1939.453z"
							/>
						<path fill="#E6DDE1" d="M1939.453,130.616v-11.52c0-2.349-1.905-4.255-4.255-4.255s-4.256,1.906-4.256,4.255v11.52H1939.453z"
							/>
						<path fill="#E6DDE1" d="M1939.453,106.745v-11.52c0-2.351-1.905-4.256-4.255-4.256s-4.256,1.905-4.256,4.256v11.52
							C1930.942,106.745,1939.453,106.745,1939.453,106.745z"/>
						<path fill="#E6DDE1" d="M1939.453,82.873V71.352c0-2.349-1.905-4.255-4.255-4.255s-4.256,1.906-4.256,4.255v11.521H1939.453z"
							/>
						<path fill="#E6DDE1" d="M1939.453,59.003v-11.52c0-2.351-1.905-4.256-4.255-4.256s-4.256,1.905-4.256,4.256v11.52H1939.453z"
							/>
					</g>
					<g>
						<path fill="#E6DDE1" d="M1963.229,178.358v-11.52c0-2.35-1.905-4.256-4.255-4.256c-2.351,0-4.256,1.906-4.256,4.256v11.52
							H1963.229z"/>
						<path fill="#E6DDE1" d="M1963.229,154.487v-11.52c0-2.35-1.905-4.256-4.255-4.256c-2.351,0-4.256,1.905-4.256,4.256v11.52
							H1963.229z"/>
						<path fill="#E6DDE1" d="M1963.229,130.616v-11.52c0-2.349-1.905-4.255-4.255-4.255c-2.351,0-4.256,1.906-4.256,4.255v11.52
							H1963.229z"/>
						<path fill="#E6DDE1" d="M1963.229,106.745v-11.52c0-2.351-1.905-4.256-4.255-4.256c-2.351,0-4.256,1.905-4.256,4.256v11.52
							C1954.718,106.745,1963.229,106.745,1963.229,106.745z"/>
						<path fill="#E6DDE1" d="M1963.229,82.873V71.352c0-2.349-1.905-4.255-4.255-4.255c-2.351,0-4.256,1.906-4.256,4.255v11.521
							H1963.229z"/>
						<path fill="#E6DDE1" d="M1963.229,59.003v-11.52c0-2.351-1.905-4.256-4.255-4.256c-2.351,0-4.256,1.905-4.256,4.256v11.52
							H1963.229z"/>
					</g>
				</g>
				<path fill="#E6DDE1" d="M1946.241,212.175h-11.887v-23.55h11.887V212.175z M1959.818,188.625h-11.887v23.55h11.887V188.625z"/>
			</g>
			<g>
				<polygon fill="#297F7B" points="1946.847,249.955 1893.352,249.955 1893.352,69.477 1920.1,53.987 1946.847,69.477 				"/>
				<path fill="#E6DDE1" d="M1919.255,250h-11.888v-23.55h11.888V250z M1932.832,226.45h-11.887V250h11.887V226.45z"/>
				<rect x="1897.911" y="210.94" fill="#E6DDE1" width="44.377" height="3.46"/>
				<rect x="1897.911" y="198.767" fill="#E6DDE1" width="44.377" height="3.46"/>
				<rect x="1897.911" y="186.595" fill="#E6DDE1" width="44.377" height="3.46"/>
				<rect x="1897.911" y="174.422" fill="#E6DDE1" width="44.377" height="3.46"/>
				<rect x="1897.911" y="162.25" fill="#E6DDE1" width="44.377" height="3.46"/>
				<rect x="1897.911" y="150.077" fill="#E6DDE1" width="44.377" height="3.46"/>
				<rect x="1897.911" y="137.905" fill="#E6DDE1" width="44.377" height="3.46"/>
				<rect x="1897.911" y="125.732" fill="#E6DDE1" width="44.377" height="3.46"/>
				<rect x="1897.911" y="113.56" fill="#E6DDE1" width="44.377" height="3.46"/>
				<rect x="1897.911" y="101.387" fill="#E6DDE1" width="44.377" height="3.46"/>
				<rect x="1897.911" y="89.215" fill="#E6DDE1" width="44.377" height="3.46"/>
				<rect x="1897.911" y="77.043" fill="#E6DDE1" width="44.377" height="3.46"/>
			</g>
			<g>
				<rect x="2104.689" y="36.933" fill="#297F7B" width="53.496" height="180.478"/>
				<g>
					<g>
						<path fill="#E6DDE1" d="M2123.805,183.639v-11.52c0-2.351-1.906-4.256-4.256-4.256s-4.256,1.905-4.256,4.256v11.52H2123.805z"
							/>
						<path fill="#E6DDE1" d="M2123.805,159.768v-11.521c0-2.349-1.906-4.255-4.256-4.255s-4.256,1.906-4.256,4.255v11.521H2123.805
							z"/>
						<path fill="#E6DDE1" d="M2123.805,135.897v-11.52c0-2.35-1.906-4.256-4.256-4.256s-4.256,1.906-4.256,4.256v11.52H2123.805z"
							/>
						<path fill="#E6DDE1" d="M2123.805,112.026v-11.521c0-2.35-1.906-4.255-4.256-4.255s-4.256,1.905-4.256,4.255v11.521H2123.805z
							"/>
						<path fill="#E6DDE1" d="M2123.805,88.154v-11.52c0-2.349-1.906-4.255-4.256-4.255s-4.256,1.906-4.256,4.255v11.52
							C2115.293,88.154,2123.805,88.154,2123.805,88.154z"/>
						<path fill="#E6DDE1" d="M2123.805,64.284v-11.52c0-2.351-1.906-4.256-4.256-4.256s-4.256,1.905-4.256,4.256v11.52H2123.805z"
							/>
					</g>
					<g>
						<path fill="#E6DDE1" d="M2147.581,183.639v-11.52c0-2.351-1.906-4.256-4.256-4.256s-4.256,1.905-4.256,4.256v11.52H2147.581z"
							/>
						<path fill="#E6DDE1" d="M2147.581,159.768v-11.521c0-2.349-1.906-4.255-4.256-4.255s-4.256,1.906-4.256,4.255v11.521H2147.581
							z"/>
						<path fill="#E6DDE1" d="M2147.581,135.897v-11.52c0-2.35-1.906-4.256-4.256-4.256s-4.256,1.906-4.256,4.256v11.52H2147.581z"
							/>
						<path fill="#E6DDE1" d="M2147.581,112.026v-11.521c0-2.35-1.906-4.255-4.256-4.255s-4.256,1.905-4.256,4.255v11.521H2147.581z
							"/>
						<path fill="#E6DDE1" d="M2147.581,88.154v-11.52c0-2.349-1.906-4.255-4.256-4.255s-4.256,1.906-4.256,4.255v11.52
							C2139.069,88.154,2147.581,88.154,2147.581,88.154z"/>
						<path fill="#E6DDE1" d="M2147.581,64.284v-11.52c0-2.351-1.906-4.256-4.256-4.256s-4.256,1.905-4.256,4.256v11.52H2147.581z"
							/>
					</g>
				</g>
				<path fill="#E6DDE1" d="M2130.593,217.457h-11.888v-23.55h11.888V217.457z M2144.169,193.906h-11.888v23.55h11.888V193.906z"/>
			</g>
			<g>
				<rect x="1857.173" y="69.477" fill="#EE4F57" width="53.495" height="180.478"/>
				<g>
					<g>
						<path fill="#E6DDE1" d="M1876.288,216.183v-11.52c0-2.35-1.905-4.255-4.255-4.255c-2.351,0-4.256,1.905-4.256,4.255v11.52
							H1876.288z"/>
						<path fill="#E6DDE1" d="M1876.288,192.312v-11.52c0-2.35-1.905-4.256-4.255-4.256c-2.351,0-4.256,1.906-4.256,4.256v11.52
							H1876.288z"/>
						<path fill="#E6DDE1" d="M1876.288,168.441V156.92c0-2.349-1.905-4.255-4.255-4.255c-2.351,0-4.256,1.906-4.256,4.255v11.521
							H1876.288z"/>
						<path fill="#E6DDE1" d="M1876.288,144.57v-11.52c0-2.351-1.905-4.256-4.255-4.256c-2.351,0-4.256,1.905-4.256,4.256v11.52
							H1876.288z"/>
						<path fill="#E6DDE1" d="M1876.288,120.698v-11.52c0-2.35-1.905-4.256-4.255-4.256c-2.351,0-4.256,1.906-4.256,4.256v11.52
							H1876.288z"/>
						<path fill="#E6DDE1" d="M1876.288,96.827v-11.52c0-2.35-1.905-4.256-4.255-4.256c-2.351,0-4.256,1.906-4.256,4.256v11.52
							C1867.777,96.827,1876.288,96.827,1876.288,96.827z"/>
					</g>
					<g>
						<path fill="#E6DDE1" d="M1900.064,216.183v-11.52c0-2.35-1.905-4.255-4.255-4.255c-2.351,0-4.256,1.905-4.256,4.255v11.52
							H1900.064z"/>
						<path fill="#E6DDE1" d="M1900.064,192.312v-11.52c0-2.35-1.905-4.256-4.255-4.256c-2.351,0-4.256,1.906-4.256,4.256v11.52
							H1900.064z"/>
						<path fill="#E6DDE1" d="M1900.064,168.441V156.92c0-2.349-1.905-4.255-4.255-4.255c-2.351,0-4.256,1.906-4.256,4.255v11.521
							H1900.064z"/>
						<path fill="#E6DDE1" d="M1900.064,144.57v-11.52c0-2.351-1.905-4.256-4.255-4.256c-2.351,0-4.256,1.905-4.256,4.256v11.52
							H1900.064z"/>
						<path fill="#E6DDE1" d="M1900.064,120.698v-11.52c0-2.35-1.905-4.256-4.255-4.256c-2.351,0-4.256,1.906-4.256,4.256v11.52
							H1900.064z"/>
						<path fill="#E6DDE1" d="M1900.064,96.827v-11.52c0-2.35-1.905-4.256-4.255-4.256c-2.351,0-4.256,1.906-4.256,4.256v11.52
							C1891.553,96.827,1900.064,96.827,1900.064,96.827z"/>
					</g>
				</g>
				<path fill="#E6DDE1" d="M1883.076,250h-11.887v-23.55h11.887V250z M1896.653,226.45h-11.887V250h11.887V226.45z"/>
			</g>
			<g>
				<polygon fill="#297F7B" points="2027.329,249.955 1973.834,249.955 1973.834,72.763 2027.329,55.471 				"/>
				<g>
					<g>
						<path fill="#E6DDE1" d="M1992.949,216.183v-11.52c0-2.35-1.905-4.255-4.256-4.255c-2.35,0-4.255,1.905-4.255,4.255v11.52
							H1992.949z"/>
						<path fill="#E6DDE1" d="M1992.949,192.312v-11.52c0-2.35-1.905-4.256-4.256-4.256c-2.35,0-4.255,1.906-4.255,4.256v11.52
							H1992.949z"/>
						<path fill="#E6DDE1" d="M1992.949,168.441V156.92c0-2.349-1.905-4.255-4.256-4.255c-2.35,0-4.255,1.906-4.255,4.255v11.521
							H1992.949z"/>
						<path fill="#E6DDE1" d="M1992.949,144.57v-11.52c0-2.351-1.905-4.256-4.256-4.256c-2.35,0-4.255,1.905-4.255,4.256v11.52
							H1992.949z"/>
						<path fill="#E6DDE1" d="M1992.949,120.698v-11.52c0-2.35-1.905-4.256-4.256-4.256c-2.35,0-4.255,1.906-4.255,4.256v11.52
							H1992.949z"/>
						<path fill="#E6DDE1" d="M1992.949,96.827v-11.52c0-2.35-1.905-4.256-4.256-4.256c-2.35,0-4.255,1.906-4.255,4.256v11.52
							C1984.438,96.827,1992.949,96.827,1992.949,96.827z"/>
					</g>
					<g>
						<path fill="#E6DDE1" d="M2016.724,216.183v-11.52c0-2.35-1.905-4.255-4.255-4.255s-4.255,1.905-4.255,4.255v11.52H2016.724z"
							/>
						<path fill="#E6DDE1" d="M2016.724,192.312v-11.52c0-2.35-1.905-4.256-4.255-4.256s-4.255,1.906-4.255,4.256v11.52H2016.724z"
							/>
						<path fill="#E6DDE1" d="M2016.724,168.441V156.92c0-2.349-1.905-4.255-4.255-4.255s-4.255,1.906-4.255,4.255v11.521H2016.724z
							"/>
						<path fill="#E6DDE1" d="M2016.724,144.57v-11.52c0-2.351-1.905-4.256-4.255-4.256s-4.255,1.905-4.255,4.256v11.52H2016.724z"
							/>
						<path fill="#E6DDE1" d="M2016.724,120.698v-11.52c0-2.35-1.905-4.256-4.255-4.256s-4.255,1.906-4.255,4.256v11.52H2016.724z"
							/>
						<path fill="#E6DDE1" d="M2016.724,96.827v-11.52c0-2.35-1.905-4.256-4.255-4.256s-4.255,1.906-4.255,4.256v11.52
							C2008.214,96.827,2016.724,96.827,2016.724,96.827z"/>
					</g>
				</g>
				<path fill="#E6DDE1" d="M1999.737,250h-11.888v-23.55h11.888V250z M2013.313,226.45h-11.887V250h11.887V226.45z"/>
			</g>
			<g>
				<polygon fill="#D8AB56" points="1916.173,249.955 1862.678,249.955 1862.678,128.443 1889.426,112.954 1916.173,128.443 				"/>
				<g>
					<g>
						<path fill="#E6DDE1" d="M1881.793,216.183v-11.52c0-2.35-1.905-4.255-4.255-4.255s-4.256,1.905-4.256,4.255v11.52H1881.793z"
							/>
						<path fill="#E6DDE1" d="M1881.793,192.312v-11.52c0-2.35-1.905-4.256-4.255-4.256s-4.256,1.906-4.256,4.256v11.52H1881.793z"
							/>
						<path fill="#E6DDE1" d="M1881.793,168.441V156.92c0-2.349-1.905-4.255-4.255-4.255s-4.256,1.906-4.256,4.255v11.521H1881.793z
							"/>
						<path fill="#E6DDE1" d="M1881.793,144.57v-11.52c0-2.351-1.905-4.256-4.255-4.256s-4.256,1.905-4.256,4.256v11.52H1881.793z"
							/>
					</g>
					<g>
						<path fill="#E6DDE1" d="M1905.569,216.183v-11.52c0-2.35-1.905-4.255-4.256-4.255c-2.35,0-4.255,1.905-4.255,4.255v11.52
							H1905.569z"/>
						<path fill="#E6DDE1" d="M1905.569,192.312v-11.52c0-2.35-1.905-4.256-4.256-4.256c-2.35,0-4.255,1.906-4.255,4.256v11.52
							H1905.569z"/>
						<path fill="#E6DDE1" d="M1905.569,168.441V156.92c0-2.349-1.905-4.255-4.256-4.255c-2.35,0-4.255,1.906-4.255,4.255v11.521
							H1905.569z"/>
						<path fill="#E6DDE1" d="M1905.569,144.57v-11.52c0-2.351-1.905-4.256-4.256-4.256c-2.35,0-4.255,1.905-4.255,4.256v11.52
							H1905.569z"/>
					</g>
				</g>
				<path fill="#E6DDE1" d="M1888.581,250h-11.888v-23.55h11.888V250z M1902.158,226.45h-11.888V250h11.888V226.45z"/>
			</g>
			<g>
				<polygon fill="#297F7B" points="2277.895,244.429 2224.4,244.429 2224.4,63.951 2251.147,48.461 2277.895,63.951 				"/>
				<g>
					<g>
						<path fill="#E6DDE1" d="M2243.515,210.657v-11.52c0-2.35-1.905-4.255-4.255-4.255s-4.256,1.905-4.256,4.255v11.52H2243.515z"
							/>
						<path fill="#E6DDE1" d="M2243.515,186.786v-11.52c0-2.35-1.905-4.256-4.255-4.256s-4.256,1.906-4.256,4.256v11.52H2243.515z"
							/>
						<path fill="#E6DDE1" d="M2243.515,162.915v-11.521c0-2.349-1.905-4.255-4.255-4.255s-4.256,1.906-4.256,4.255v11.521H2243.515
							z"/>
						<path fill="#E6DDE1" d="M2243.515,139.043v-11.52c0-2.35-1.905-4.256-4.255-4.256s-4.256,1.906-4.256,4.256v11.52H2243.515z"
							/>
						<path fill="#E6DDE1" d="M2243.515,115.172v-11.52c0-2.35-1.905-4.256-4.255-4.256s-4.256,1.906-4.256,4.256v11.52H2243.515z"
							/>
						<path fill="#E6DDE1" d="M2243.515,91.301v-11.52c0-2.35-1.905-4.255-4.255-4.255s-4.256,1.905-4.256,4.255v11.52
							C2235.004,91.301,2243.515,91.301,2243.515,91.301z"/>
					</g>
					<g>
						<path fill="#E6DDE1" d="M2267.291,210.657v-11.52c0-2.35-1.905-4.255-4.256-4.255c-2.35,0-4.255,1.905-4.255,4.255v11.52
							H2267.291z"/>
						<path fill="#E6DDE1" d="M2267.291,186.786v-11.52c0-2.35-1.905-4.256-4.256-4.256c-2.35,0-4.255,1.906-4.255,4.256v11.52
							H2267.291z"/>
						<path fill="#E6DDE1" d="M2267.291,162.915v-11.521c0-2.349-1.905-4.255-4.256-4.255c-2.35,0-4.255,1.906-4.255,4.255v11.521
							H2267.291z"/>
						<path fill="#E6DDE1" d="M2267.291,139.043v-11.52c0-2.35-1.905-4.256-4.256-4.256c-2.35,0-4.255,1.906-4.255,4.256v11.52
							H2267.291z"/>
						<path fill="#E6DDE1" d="M2267.291,115.172v-11.52c0-2.35-1.905-4.256-4.256-4.256c-2.35,0-4.255,1.906-4.255,4.256v11.52
							H2267.291z"/>
						<path fill="#E6DDE1" d="M2267.291,91.301v-11.52c0-2.35-1.905-4.255-4.256-4.255c-2.35,0-4.255,1.905-4.255,4.255v11.52
							C2258.78,91.301,2267.291,91.301,2267.291,91.301z"/>
					</g>
				</g>
				<path fill="#E6DDE1" d="M2250.303,244.474h-11.888v-23.55h11.888V244.474z M2263.879,220.924h-11.887v23.55h11.887V220.924z"/>
			</g>
			<g>
				<rect x="1877.538" y="147.333" fill="#297F7B" width="53.495" height="102.623"/>
				<g>
					<g>
						<path fill="#E6DDE1" d="M1896.653,216.183v-11.52c0-2.35-1.905-4.255-4.255-4.255c-2.351,0-4.256,1.905-4.256,4.255v11.52
							H1896.653z"/>
						<path fill="#E6DDE1" d="M1896.653,192.312v-11.52c0-2.35-1.905-4.256-4.255-4.256c-2.351,0-4.256,1.906-4.256,4.256v11.52
							H1896.653z"/>
						<path fill="#E6DDE1" d="M1896.653,168.441V156.92c0-2.349-1.905-4.255-4.255-4.255c-2.351,0-4.256,1.906-4.256,4.255v11.521
							H1896.653z"/>
					</g>
					<g>
						<path fill="#E6DDE1" d="M1920.428,216.183v-11.52c0-2.35-1.905-4.255-4.255-4.255c-2.351,0-4.256,1.905-4.256,4.255v11.52
							H1920.428z"/>
						<path fill="#E6DDE1" d="M1920.428,192.312v-11.52c0-2.35-1.905-4.256-4.255-4.256c-2.351,0-4.256,1.906-4.256,4.256v11.52
							H1920.428z"/>
						<path fill="#E6DDE1" d="M1920.428,168.441V156.92c0-2.349-1.905-4.255-4.255-4.255c-2.351,0-4.256,1.906-4.256,4.255v11.521
							H1920.428z"/>
					</g>
				</g>
				<path fill="#E6DDE1" d="M1903.441,250h-11.888v-23.55h11.888V250z M1917.018,226.45h-11.888V250h11.888V226.45z"/>
			</g>
			<g>
				<polygon fill="#EE4F57" points="2037.933,249.955 1984.438,249.955 1984.438,128.443 2011.186,112.954 2037.933,128.443 				"/>
				<g>
					<g>
						<path fill="#E6DDE1" d="M2003.553,216.183v-11.52c0-2.35-1.905-4.255-4.256-4.255c-2.35,0-4.255,1.905-4.255,4.255v11.52
							H2003.553z"/>
						<path fill="#E6DDE1" d="M2003.553,192.312v-11.52c0-2.35-1.905-4.256-4.256-4.256c-2.35,0-4.255,1.906-4.255,4.256v11.52
							H2003.553z"/>
						<path fill="#E6DDE1" d="M2003.553,168.441V156.92c0-2.349-1.905-4.255-4.256-4.255c-2.35,0-4.255,1.906-4.255,4.255v11.521
							H2003.553z"/>
						<path fill="#E6DDE1" d="M2003.553,144.57v-11.52c0-2.351-1.905-4.256-4.256-4.256c-2.35,0-4.255,1.905-4.255,4.256v11.52
							H2003.553z"/>
					</g>
					<g>
						<path fill="#E6DDE1" d="M2027.329,216.183v-11.52c0-2.35-1.905-4.255-4.256-4.255c-2.35,0-4.255,1.905-4.255,4.255v11.52
							H2027.329z"/>
						<path fill="#E6DDE1" d="M2027.329,192.312v-11.52c0-2.35-1.905-4.256-4.256-4.256c-2.35,0-4.255,1.906-4.255,4.256v11.52
							H2027.329z"/>
						<path fill="#E6DDE1" d="M2027.329,168.441V156.92c0-2.349-1.905-4.255-4.256-4.255c-2.35,0-4.255,1.906-4.255,4.255v11.521
							H2027.329z"/>
						<path fill="#E6DDE1" d="M2027.329,144.57v-11.52c0-2.351-1.905-4.256-4.256-4.256c-2.35,0-4.255,1.905-4.255,4.256v11.52
							H2027.329z"/>
					</g>
				</g>
				<path fill="#E6DDE1" d="M2010.341,250h-11.888v-23.55h11.888V250z M2023.918,226.45h-11.887V250h11.887V226.45z"/>
			</g>
			<g>
				<polygon fill="#46474A" points="2220.404,249.955 2166.909,249.955 2166.909,72.763 2220.404,55.471 				"/>
				<g>
					<g>
						<path fill="#E6DDE1" d="M2186.024,216.183v-11.52c0-2.35-1.905-4.255-4.255-4.255c-2.351,0-4.256,1.905-4.256,4.255v11.52
							H2186.024z"/>
						<path fill="#E6DDE1" d="M2186.024,192.312v-11.52c0-2.35-1.905-4.256-4.255-4.256c-2.351,0-4.256,1.906-4.256,4.256v11.52
							H2186.024z"/>
						<path fill="#E6DDE1" d="M2186.024,168.441V156.92c0-2.349-1.905-4.255-4.255-4.255c-2.351,0-4.256,1.906-4.256,4.255v11.521
							H2186.024z"/>
						<path fill="#E6DDE1" d="M2186.024,144.57v-11.52c0-2.351-1.905-4.256-4.255-4.256c-2.351,0-4.256,1.905-4.256,4.256v11.52
							H2186.024z"/>
						<path fill="#E6DDE1" d="M2186.024,120.698v-11.52c0-2.35-1.905-4.256-4.255-4.256c-2.351,0-4.256,1.906-4.256,4.256v11.52
							H2186.024z"/>
						<path fill="#E6DDE1" d="M2186.024,96.827v-11.52c0-2.35-1.905-4.256-4.255-4.256c-2.351,0-4.256,1.906-4.256,4.256v11.52
							C2177.513,96.827,2186.024,96.827,2186.024,96.827z"/>
					</g>
					<g>
						<path fill="#E6DDE1" d="M2209.799,216.183v-11.52c0-2.35-1.905-4.255-4.255-4.255c-2.351,0-4.255,1.905-4.255,4.255v11.52
							H2209.799z"/>
						<path fill="#E6DDE1" d="M2209.799,192.312v-11.52c0-2.35-1.905-4.256-4.255-4.256c-2.351,0-4.255,1.906-4.255,4.256v11.52
							H2209.799z"/>
						<path fill="#E6DDE1" d="M2209.799,168.441V156.92c0-2.349-1.905-4.255-4.255-4.255c-2.351,0-4.255,1.906-4.255,4.255v11.521
							H2209.799z"/>
						<path fill="#E6DDE1" d="M2209.799,144.57v-11.52c0-2.351-1.905-4.256-4.255-4.256c-2.351,0-4.255,1.905-4.255,4.256v11.52
							H2209.799z"/>
						<path fill="#E6DDE1" d="M2209.799,120.698v-11.52c0-2.35-1.905-4.256-4.255-4.256c-2.351,0-4.255,1.906-4.255,4.256v11.52
							H2209.799z"/>
						<path fill="#E6DDE1" d="M2209.799,96.827v-11.52c0-2.35-1.905-4.256-4.255-4.256c-2.351,0-4.255,1.906-4.255,4.256v11.52
							C2201.289,96.827,2209.799,96.827,2209.799,96.827z"/>
					</g>
				</g>
				<path fill="#E6DDE1" d="M2192.813,250h-11.888v-23.55h11.888V250z M2206.389,226.45h-11.888V250h11.888V226.45z"/>
			</g>
			<g>
				<rect x="2077.942" y="69.477" fill="#46474A" width="53.495" height="180.478"/>
				<g>
					<g>
						<path fill="#E6DDE1" d="M2097.057,216.183v-11.52c0-2.35-1.905-4.255-4.255-4.255c-2.351,0-4.256,1.905-4.256,4.255v11.52
							H2097.057z"/>
						<path fill="#E6DDE1" d="M2097.057,192.312v-11.52c0-2.35-1.905-4.256-4.255-4.256c-2.351,0-4.256,1.906-4.256,4.256v11.52
							H2097.057z"/>
						<path fill="#E6DDE1" d="M2097.057,168.441V156.92c0-2.349-1.905-4.255-4.255-4.255c-2.351,0-4.256,1.906-4.256,4.255v11.521
							H2097.057z"/>
						<path fill="#E6DDE1" d="M2097.057,144.57v-11.52c0-2.351-1.905-4.256-4.255-4.256c-2.351,0-4.256,1.905-4.256,4.256v11.52
							H2097.057z"/>
						<path fill="#E6DDE1" d="M2097.057,120.698v-11.52c0-2.35-1.905-4.256-4.255-4.256c-2.351,0-4.256,1.906-4.256,4.256v11.52
							H2097.057z"/>
						<path fill="#E6DDE1" d="M2097.057,96.827v-11.52c0-2.35-1.905-4.256-4.255-4.256c-2.351,0-4.256,1.906-4.256,4.256v11.52
							C2088.546,96.827,2097.057,96.827,2097.057,96.827z"/>
					</g>
					<g>
						<path fill="#E6DDE1" d="M2120.833,216.183v-11.52c0-2.35-1.905-4.255-4.255-4.255c-2.351,0-4.256,1.905-4.256,4.255v11.52
							H2120.833z"/>
						<path fill="#E6DDE1" d="M2120.833,192.312v-11.52c0-2.35-1.905-4.256-4.255-4.256c-2.351,0-4.256,1.906-4.256,4.256v11.52
							H2120.833z"/>
						<path fill="#E6DDE1" d="M2120.833,168.441V156.92c0-2.349-1.905-4.255-4.255-4.255c-2.351,0-4.256,1.906-4.256,4.255v11.521
							H2120.833z"/>
						<path fill="#E6DDE1" d="M2120.833,144.57v-11.52c0-2.351-1.905-4.256-4.255-4.256c-2.351,0-4.256,1.905-4.256,4.256v11.52
							H2120.833z"/>
						<path fill="#E6DDE1" d="M2120.833,120.698v-11.52c0-2.35-1.905-4.256-4.255-4.256c-2.351,0-4.256,1.906-4.256,4.256v11.52
							H2120.833z"/>
						<path fill="#E6DDE1" d="M2120.833,96.827v-11.52c0-2.35-1.905-4.256-4.255-4.256c-2.351,0-4.256,1.906-4.256,4.256v11.52
							C2112.322,96.827,2120.833,96.827,2120.833,96.827z"/>
					</g>
				</g>
				<path fill="#E6DDE1" d="M2103.846,250h-11.888v-23.55h11.888V250z M2117.422,226.45h-11.888V250h11.888V226.45z"/>
			</g>
			<g>
				<polygon fill="#D8AB56" points="2104.396,249.955 2050.902,249.955 2050.902,98.343 2104.396,81.051 				"/>
				<g>
					<g>
						<path fill="#E6DDE1" d="M2070.016,216.183v-11.52c0-2.35-1.905-4.255-4.255-4.255c-2.35,0-4.255,1.905-4.255,4.255v11.52
							H2070.016z"/>
						<path fill="#E6DDE1" d="M2070.016,192.312v-11.52c0-2.35-1.905-4.256-4.255-4.256c-2.35,0-4.255,1.906-4.255,4.256v11.52
							H2070.016z"/>
						<path fill="#E6DDE1" d="M2070.016,168.441V156.92c0-2.349-1.905-4.255-4.255-4.255c-2.35,0-4.255,1.906-4.255,4.255v11.521
							H2070.016z"/>
						<path fill="#E6DDE1" d="M2070.016,144.57v-11.52c0-2.351-1.905-4.256-4.255-4.256c-2.35,0-4.255,1.905-4.255,4.256v11.52
							H2070.016z"/>
						<path fill="#E6DDE1" d="M2070.016,120.698v-11.52c0-2.35-1.905-4.256-4.255-4.256c-2.35,0-4.255,1.906-4.255,4.256v11.52
							H2070.016z"/>
					</g>
					<g>
						<path fill="#E6DDE1" d="M2093.792,216.183v-11.52c0-2.35-1.905-4.255-4.255-4.255c-2.351,0-4.256,1.905-4.256,4.255v11.52
							H2093.792z"/>
						<path fill="#E6DDE1" d="M2093.792,192.312v-11.52c0-2.35-1.905-4.256-4.255-4.256c-2.351,0-4.256,1.906-4.256,4.256v11.52
							H2093.792z"/>
						<path fill="#E6DDE1" d="M2093.792,168.441V156.92c0-2.349-1.905-4.255-4.255-4.255c-2.351,0-4.256,1.906-4.256,4.255v11.521
							H2093.792z"/>
						<path fill="#E6DDE1" d="M2093.792,144.57v-11.52c0-2.351-1.905-4.256-4.255-4.256c-2.351,0-4.256,1.905-4.256,4.256v11.52
							H2093.792z"/>
						<path fill="#E6DDE1" d="M2093.792,120.698v-11.52c0-2.35-1.905-4.256-4.255-4.256c-2.351,0-4.256,1.906-4.256,4.256v11.52
							H2093.792z"/>
					</g>
				</g>
				<path fill="#E6DDE1" d="M2076.805,250h-11.887v-23.55h11.887V250z M2090.382,226.45h-11.888V250h11.888V226.45z"/>
			</g>
			<g>
				<rect x="2113.414" y="53.165" fill="#D8AB56" width="53.495" height="180.479"/>
				<path fill="#E6DDE1" d="M2139.317,233.688h-11.887v-23.55h11.887V233.688z M2152.893,210.138h-11.887v23.55h11.887V210.138z"/>
				<g>
					<rect x="2120.321" y="191.377" fill="#E6DDE1" width="9.077" height="11.775"/>
					<rect x="2135.623" y="191.377" fill="#E6DDE1" width="9.077" height="11.775"/>
					<rect x="2150.925" y="191.377" fill="#E6DDE1" width="9.077" height="11.775"/>
				</g>
				<g>
					<rect x="2120.321" y="169.89" fill="#E6DDE1" width="9.077" height="11.775"/>
					<rect x="2135.623" y="169.89" fill="#E6DDE1" width="9.077" height="11.775"/>
					<rect x="2150.925" y="169.89" fill="#E6DDE1" width="9.077" height="11.775"/>
				</g>
				<g>
					<rect x="2120.321" y="148.403" fill="#E6DDE1" width="9.077" height="11.775"/>
					<rect x="2135.623" y="148.403" fill="#E6DDE1" width="9.077" height="11.775"/>
					<rect x="2150.925" y="148.403" fill="#E6DDE1" width="9.077" height="11.775"/>
				</g>
				<g>
					<rect x="2120.321" y="126.916" fill="#E6DDE1" width="9.077" height="11.775"/>
					<rect x="2135.623" y="126.916" fill="#E6DDE1" width="9.077" height="11.775"/>
					<rect x="2150.925" y="126.916" fill="#E6DDE1" width="9.077" height="11.775"/>
				</g>
				<g>
					<rect x="2120.321" y="105.428" fill="#E6DDE1" width="9.077" height="11.775"/>
					<rect x="2135.623" y="105.428" fill="#E6DDE1" width="9.077" height="11.775"/>
					<rect x="2150.925" y="105.428" fill="#E6DDE1" width="9.077" height="11.775"/>
				</g>
				<g>
					<rect x="2120.321" y="83.941" fill="#E6DDE1" width="9.077" height="11.775"/>
					<rect x="2135.623" y="83.941" fill="#E6DDE1" width="9.077" height="11.775"/>
					<rect x="2150.925" y="83.941" fill="#E6DDE1" width="9.077" height="11.775"/>
				</g>
				<g>
					<rect x="2120.321" y="62.454" fill="#E6DDE1" width="9.077" height="11.775"/>
					<rect x="2135.623" y="62.454" fill="#E6DDE1" width="9.077" height="11.775"/>
					<rect x="2150.925" y="62.454" fill="#E6DDE1" width="9.077" height="11.775"/>
				</g>
			</g>
			<g>
				<rect x="2077.942" y="99.781" fill="#EE4F57" width="53.495" height="150.174"/>
				<g>
					<g>
						<path fill="#E6DDE1" d="M2097.057,216.183v-11.52c0-2.35-1.905-4.255-4.255-4.255c-2.351,0-4.256,1.905-4.256,4.255v11.52
							H2097.057z"/>
						<path fill="#E6DDE1" d="M2097.057,192.312v-11.52c0-2.35-1.905-4.256-4.255-4.256c-2.351,0-4.256,1.906-4.256,4.256v11.52
							H2097.057z"/>
						<path fill="#E6DDE1" d="M2097.057,168.441V156.92c0-2.349-1.905-4.255-4.255-4.255c-2.351,0-4.256,1.906-4.256,4.255v11.521
							H2097.057z"/>
						<path fill="#E6DDE1" d="M2097.057,144.57v-11.52c0-2.351-1.905-4.256-4.255-4.256c-2.351,0-4.256,1.905-4.256,4.256v11.52
							H2097.057z"/>
						<path fill="#E6DDE1" d="M2097.057,120.698v-11.52c0-2.35-1.905-4.256-4.255-4.256c-2.351,0-4.256,1.906-4.256,4.256v11.52
							H2097.057z"/>
					</g>
					<g>
						<path fill="#E6DDE1" d="M2120.833,216.183v-11.52c0-2.35-1.905-4.255-4.255-4.255c-2.351,0-4.256,1.905-4.256,4.255v11.52
							H2120.833z"/>
						<path fill="#E6DDE1" d="M2120.833,192.312v-11.52c0-2.35-1.905-4.256-4.255-4.256c-2.351,0-4.256,1.906-4.256,4.256v11.52
							H2120.833z"/>
						<path fill="#E6DDE1" d="M2120.833,168.441V156.92c0-2.349-1.905-4.255-4.255-4.255c-2.351,0-4.256,1.906-4.256,4.255v11.521
							H2120.833z"/>
						<path fill="#E6DDE1" d="M2120.833,144.57v-11.52c0-2.351-1.905-4.256-4.255-4.256c-2.351,0-4.256,1.905-4.256,4.256v11.52
							H2120.833z"/>
						<path fill="#E6DDE1" d="M2120.833,120.698v-11.52c0-2.35-1.905-4.256-4.255-4.256c-2.351,0-4.256,1.906-4.256,4.256v11.52
							H2120.833z"/>
					</g>
				</g>
				<path fill="#E6DDE1" d="M2103.846,250h-11.888v-23.55h11.888V250z M2117.422,226.45h-11.888V250h11.888V226.45z"/>
			</g>
			<g>
				<polygon fill="#D8AB56" points="2258.781,228.341 2205.286,228.341 2205.286,82.957 2232.033,67.468 2258.781,82.957 				"/>
				<g>
					<g>
						<path fill="#E6DDE1" d="M2224.4,194.569v-11.52c0-2.351-1.904-4.256-4.254-4.256c-2.351,0-4.256,1.905-4.256,4.256v11.52
							H2224.4z"/>
						<path fill="#E6DDE1" d="M2224.4,170.698v-11.52c0-2.35-1.904-4.256-4.254-4.256c-2.351,0-4.256,1.906-4.256,4.256v11.52
							H2224.4z"/>
						<path fill="#E6DDE1" d="M2224.4,146.826v-11.52c0-2.35-1.904-4.255-4.254-4.255c-2.351,0-4.256,1.905-4.256,4.255v11.52
							H2224.4z"/>
						<path fill="#E6DDE1" d="M2224.4,122.956v-11.52c0-2.351-1.904-4.256-4.254-4.256c-2.351,0-4.256,1.905-4.256,4.256v11.52
							C2215.89,122.956,2224.4,122.956,2224.4,122.956z"/>
						<path fill="#E6DDE1" d="M2224.4,99.084V87.563c0-2.349-1.904-4.255-4.254-4.255c-2.351,0-4.256,1.906-4.256,4.255v11.521
							H2224.4z"/>
					</g>
					<g>
						<path fill="#E6DDE1" d="M2248.176,194.569v-11.52c0-2.351-1.905-4.256-4.255-4.256c-2.351,0-4.255,1.905-4.255,4.256v11.52
							H2248.176z"/>
						<path fill="#E6DDE1" d="M2248.176,170.698v-11.52c0-2.35-1.905-4.256-4.255-4.256c-2.351,0-4.255,1.906-4.255,4.256v11.52
							H2248.176z"/>
						<path fill="#E6DDE1" d="M2248.176,146.826v-11.52c0-2.35-1.905-4.255-4.255-4.255c-2.351,0-4.255,1.905-4.255,4.255v11.52
							H2248.176z"/>
						<path fill="#E6DDE1" d="M2248.176,122.956v-11.52c0-2.351-1.905-4.256-4.255-4.256c-2.351,0-4.255,1.905-4.255,4.256v11.52
							C2239.666,122.956,2248.176,122.956,2248.176,122.956z"/>
						<path fill="#E6DDE1" d="M2248.176,99.084V87.563c0-2.349-1.905-4.255-4.255-4.255c-2.351,0-4.255,1.906-4.255,4.255v11.521
							H2248.176z"/>
					</g>
				</g>
				<path fill="#E6DDE1" d="M2231.189,228.386h-11.888v-23.55h11.888V228.386z M2244.765,204.836h-11.888v23.55h11.888V204.836z"/>
			</g>
			<g>
				<polygon fill="#EE4F57" points="2285.963,249.955 2232.469,249.955 2232.469,104.571 2259.215,89.082 2285.963,104.571 				"/>
				<path fill="#E6DDE1" d="M2258.371,250h-11.888v-23.55h11.888V250z M2271.947,226.45h-11.888V250h11.888V226.45z"/>
				<g>
					<rect x="2239.376" y="205.681" fill="#E6DDE1" width="9.077" height="11.775"/>
					<rect x="2254.677" y="205.681" fill="#E6DDE1" width="9.077" height="11.775"/>
					<rect x="2269.979" y="205.681" fill="#E6DDE1" width="9.077" height="11.775"/>
				</g>
				<g>
					<rect x="2239.376" y="184.194" fill="#E6DDE1" width="9.077" height="11.775"/>
					<rect x="2254.677" y="184.194" fill="#E6DDE1" width="9.077" height="11.775"/>
					<rect x="2269.979" y="184.194" fill="#E6DDE1" width="9.077" height="11.775"/>
				</g>
				<g>
					<rect x="2239.376" y="162.707" fill="#E6DDE1" width="9.077" height="11.775"/>
					<rect x="2254.677" y="162.707" fill="#E6DDE1" width="9.077" height="11.775"/>
					<rect x="2269.979" y="162.707" fill="#E6DDE1" width="9.077" height="11.775"/>
				</g>
				<g>
					<rect x="2239.376" y="141.219" fill="#E6DDE1" width="9.077" height="11.775"/>
					<rect x="2254.677" y="141.219" fill="#E6DDE1" width="9.077" height="11.775"/>
					<rect x="2269.979" y="141.219" fill="#E6DDE1" width="9.077" height="11.775"/>
				</g>
				<g>
					<rect x="2239.376" y="119.732" fill="#E6DDE1" width="9.077" height="11.775"/>
					<rect x="2254.677" y="119.732" fill="#E6DDE1" width="9.077" height="11.775"/>
					<rect x="2269.979" y="119.732" fill="#E6DDE1" width="9.077" height="11.775"/>
				</g>
			</g>
			<g>
				<polygon fill="#D8AB56" points="1984.271,249.955 1930.775,249.955 1930.775,151.971 1984.271,134.68 				"/>
				<path fill="#E6DDE1" d="M1956.679,250h-11.888v-23.55h11.888V250z M1970.255,226.45h-11.888V250h11.888V226.45z"/>
				<g>
					<rect x="1937.683" y="205.681" fill="#E6DDE1" width="9.077" height="11.775"/>
					<rect x="1952.985" y="205.681" fill="#E6DDE1" width="9.077" height="11.775"/>
					<rect x="1968.287" y="205.681" fill="#E6DDE1" width="9.077" height="11.775"/>
				</g>
				<g>
					<rect x="1937.683" y="184.194" fill="#E6DDE1" width="9.077" height="11.775"/>
					<rect x="1952.985" y="184.194" fill="#E6DDE1" width="9.077" height="11.775"/>
					<rect x="1968.287" y="184.194" fill="#E6DDE1" width="9.077" height="11.775"/>
				</g>
				<g>
					<rect x="1937.683" y="162.707" fill="#E6DDE1" width="9.077" height="11.775"/>
					<rect x="1952.985" y="162.707" fill="#E6DDE1" width="9.077" height="11.775"/>
					<rect x="1968.287" y="162.707" fill="#E6DDE1" width="9.077" height="11.775"/>
				</g>
			</g>
			<g>
				<polygon fill="#EE4F57" points="2197.405,249.955 2143.91,249.955 2143.91,98.343 2197.405,81.051 				"/>
				<g>
					<g>
						<path fill="#E6DDE1" d="M2163.025,216.183v-11.52c0-2.35-1.905-4.255-4.255-4.255c-2.351,0-4.256,1.905-4.256,4.255v11.52
							H2163.025z"/>
						<path fill="#E6DDE1" d="M2163.025,192.312v-11.52c0-2.35-1.905-4.256-4.255-4.256c-2.351,0-4.256,1.906-4.256,4.256v11.52
							H2163.025z"/>
						<path fill="#E6DDE1" d="M2163.025,168.441V156.92c0-2.349-1.905-4.255-4.255-4.255c-2.351,0-4.256,1.906-4.256,4.255v11.521
							H2163.025z"/>
						<path fill="#E6DDE1" d="M2163.025,144.57v-11.52c0-2.351-1.905-4.256-4.255-4.256c-2.351,0-4.256,1.905-4.256,4.256v11.52
							H2163.025z"/>
						<path fill="#E6DDE1" d="M2163.025,120.698v-11.52c0-2.35-1.905-4.256-4.255-4.256c-2.351,0-4.256,1.906-4.256,4.256v11.52
							H2163.025z"/>
					</g>
					<g>
						<path fill="#E6DDE1" d="M2186.801,216.183v-11.52c0-2.35-1.905-4.255-4.255-4.255c-2.351,0-4.256,1.905-4.256,4.255v11.52
							H2186.801z"/>
						<path fill="#E6DDE1" d="M2186.801,192.312v-11.52c0-2.35-1.905-4.256-4.255-4.256c-2.351,0-4.256,1.906-4.256,4.256v11.52
							H2186.801z"/>
						<path fill="#E6DDE1" d="M2186.801,168.441V156.92c0-2.349-1.905-4.255-4.255-4.255c-2.351,0-4.256,1.906-4.256,4.255v11.521
							H2186.801z"/>
						<path fill="#E6DDE1" d="M2186.801,144.57v-11.52c0-2.351-1.905-4.256-4.255-4.256c-2.351,0-4.256,1.905-4.256,4.256v11.52
							H2186.801z"/>
						<path fill="#E6DDE1" d="M2186.801,120.698v-11.52c0-2.35-1.905-4.256-4.255-4.256c-2.351,0-4.256,1.906-4.256,4.256v11.52
							H2186.801z"/>
					</g>
				</g>
				<path fill="#E6DDE1" d="M2169.814,250h-11.888v-23.55h11.888V250z M2183.39,226.45h-11.888V250h11.888V226.45z"/>
			</g>
			<g>
				<polygon fill="#297F7B" points="2159.277,249.955 2105.781,249.955 2105.781,151.971 2159.277,134.68 				"/>
				<rect x="2110.341" y="212.697" fill="#E6DDE1" width="44.377" height="3.46"/>
				<rect x="2110.341" y="200.524" fill="#E6DDE1" width="44.377" height="3.46"/>
				<rect x="2110.341" y="188.352" fill="#E6DDE1" width="44.377" height="3.46"/>
				<rect x="2110.341" y="176.179" fill="#E6DDE1" width="44.377" height="3.46"/>
				<rect x="2110.341" y="164.007" fill="#E6DDE1" width="44.377" height="3.46"/>
				<path fill="#E6DDE1" d="M2131.685,250h-11.888v-23.55h11.888V250z M2145.261,226.45h-11.888V250h11.888V226.45z"/>
			</g>
			<g>
				<rect x="2178.538" y="147.333" fill="#46474A" width="53.495" height="102.623"/>
				<g>
					<g>
						<path fill="#E6DDE1" d="M2197.653,216.183v-11.52c0-2.35-1.905-4.255-4.255-4.255c-2.351,0-4.255,1.905-4.255,4.255v11.52
							H2197.653z"/>
						<path fill="#E6DDE1" d="M2197.653,192.312v-11.52c0-2.35-1.905-4.256-4.255-4.256c-2.351,0-4.255,1.906-4.255,4.256v11.52
							H2197.653z"/>
						<path fill="#E6DDE1" d="M2197.653,168.441V156.92c0-2.349-1.905-4.255-4.255-4.255c-2.351,0-4.255,1.906-4.255,4.255v11.521
							H2197.653z"/>
					</g>
					<g>
						<path fill="#E6DDE1" d="M2221.429,216.183v-11.52c0-2.35-1.905-4.255-4.255-4.255c-2.351,0-4.255,1.905-4.255,4.255v11.52
							H2221.429z"/>
						<path fill="#E6DDE1" d="M2221.429,192.312v-11.52c0-2.35-1.905-4.256-4.255-4.256c-2.351,0-4.255,1.906-4.255,4.256v11.52
							H2221.429z"/>
						<path fill="#E6DDE1" d="M2221.429,168.441V156.92c0-2.349-1.905-4.255-4.255-4.255c-2.351,0-4.255,1.906-4.255,4.255v11.521
							H2221.429z"/>
					</g>
				</g>
				<path fill="#E6DDE1" d="M2204.441,250h-11.887v-23.55h11.887V250z M2218.018,226.45h-11.887V250h11.887V226.45z"/>
			</g>
			<g>
				<path fill="#519748" d="M1872.033,204.857c0,9.646-7.82,17.467-17.466,17.467s-17.466-7.82-17.466-17.467
					c0-9.646,17.466-44.068,17.466-44.068S1872.033,195.211,1872.033,204.857z"/>
				<polygon fill="#432918" points="1858.447,250 1850.686,250 1854.566,187.66 				"/>
			</g>
			<g>
				<path fill="#519748" d="M1934.922,214.153c0,7.66-6.21,13.87-13.869,13.87c-7.66,0-13.87-6.21-13.87-13.87
					c0-7.659,13.87-34.993,13.87-34.993S1934.922,206.494,1934.922,214.153z"/>
				<polygon fill="#432918" points="1924.134,250 1917.972,250 1921.053,200.497 				"/>
			</g>
			<g>
				<path fill="#519748" d="M2299.397,214.153c0,7.66-6.209,13.87-13.869,13.87s-13.869-6.21-13.869-13.87
					c0-7.659,13.869-34.993,13.869-34.993S2299.397,206.494,2299.397,214.153z"/>
				<polygon fill="#432918" points="2288.609,250 2282.447,250 2285.528,200.497 				"/>
			</g>
			<g>
				<path fill="#519748" d="M2010.072,211.156c0,8.301-6.728,15.029-15.029,15.029s-15.029-6.728-15.029-15.029
					c0-8.3,15.029-37.918,15.029-37.918S2010.072,202.856,2010.072,211.156z"/>
				<polygon fill="#432918" points="1998.382,250 1991.703,250 1995.043,196.359 				"/>
			</g>
			<g>
				<polygon fill="#46474A" points="2061.472,249.955 2007.978,249.955 2007.978,92.059 2061.472,74.767 				"/>
				<path fill="#E6DDE1" d="M2033.881,250h-11.888v-23.55h11.888V250z M2047.457,226.45h-11.887V250h11.887V226.45z"/>
				<g>
					<rect x="2014.885" y="205.681" fill="#E6DDE1" width="9.077" height="11.775"/>
					<rect x="2030.187" y="205.681" fill="#E6DDE1" width="9.077" height="11.775"/>
					<rect x="2045.488" y="205.681" fill="#E6DDE1" width="9.077" height="11.775"/>
				</g>
				<g>
					<rect x="2014.885" y="184.194" fill="#E6DDE1" width="9.077" height="11.775"/>
					<rect x="2030.187" y="184.194" fill="#E6DDE1" width="9.077" height="11.775"/>
					<rect x="2045.488" y="184.194" fill="#E6DDE1" width="9.077" height="11.775"/>
				</g>
				<g>
					<rect x="2014.885" y="162.707" fill="#E6DDE1" width="9.077" height="11.775"/>
					<rect x="2030.187" y="162.707" fill="#E6DDE1" width="9.077" height="11.775"/>
					<rect x="2045.488" y="162.707" fill="#E6DDE1" width="9.077" height="11.775"/>
				</g>
				<g>
					<rect x="2014.885" y="141.219" fill="#E6DDE1" width="9.077" height="11.775"/>
					<rect x="2030.187" y="141.219" fill="#E6DDE1" width="9.077" height="11.775"/>
					<rect x="2045.488" y="141.219" fill="#E6DDE1" width="9.077" height="11.775"/>
				</g>
				<g>
					<rect x="2014.885" y="119.732" fill="#E6DDE1" width="9.077" height="11.775"/>
					<rect x="2030.187" y="119.732" fill="#E6DDE1" width="9.077" height="11.775"/>
					<rect x="2045.488" y="119.732" fill="#E6DDE1" width="9.077" height="11.775"/>
				</g>
				<g>
					<rect x="2014.885" y="98.245" fill="#E6DDE1" width="9.077" height="11.775"/>
					<rect x="2030.187" y="98.245" fill="#E6DDE1" width="9.077" height="11.775"/>
					<rect x="2045.488" y="98.245" fill="#E6DDE1" width="9.077" height="11.775"/>
				</g>
			</g>
			<g>
				<path fill="#519748" d="M2206.664,210.253c0,8.494-6.885,15.379-15.378,15.379s-15.379-6.885-15.379-15.379
					c0-8.493,15.379-38.8,15.379-38.8S2206.664,201.76,2206.664,210.253z"/>
				<polygon fill="#432918" points="2194.702,250 2187.87,250 2191.286,195.112 				"/>
			</g>
			<g>
				<path fill="#519748" d="M2020.597,221.164c0,6.162-4.995,11.157-11.156,11.157c-6.162,0-11.157-4.995-11.157-11.157
					c0-6.161,11.157-28.147,11.157-28.147S2020.597,215.003,2020.597,221.164z"/>
				<polygon fill="#432918" points="2011.919,250 2006.962,250 2009.441,210.18 				"/>
			</g>
			<g>
				<path fill="#519748" d="M2186.648,221.164c0,6.162-4.994,11.157-11.156,11.157s-11.156-4.995-11.156-11.157
					c0-6.161,11.156-28.147,11.156-28.147S2186.648,215.003,2186.648,221.164z"/>
				<polygon fill="#432918" points="2177.971,250 2173.013,250 2175.492,210.18 				"/>
			</g>
			<g>
				<path fill="#519748" d="M2124.676,221.164c0,6.162-4.994,11.157-11.156,11.157s-11.156-4.995-11.156-11.157
					c0-6.161,11.156-28.147,11.156-28.147S2124.676,215.003,2124.676,221.164z"/>
				<polygon fill="#432918" points="2115.999,250 2111.042,250 2113.52,210.18 				"/>
			</g>
		</g>
	</g>
	<line fill="none" stroke="#494949" stroke-width="3" stroke-miterlimit="10" x1="891.5" y1="250" x2="1002.5" y2="32.5"/>
	<line fill="none" stroke="#9B5627" stroke-width="10" stroke-miterlimit="10" x1="1044.5" y1="9.5" x2="1044.5" y2="250"/>
	<line fill="none" stroke="#9B5627" stroke-width="10" stroke-miterlimit="10" x1="990.5" y1="32.5" x2="1097.5" y2="32.5"/>
	<line fill="none" stroke="#9B5627" stroke-width="10" stroke-miterlimit="10" x1="2050.5" y1="9.5" x2="2050.5" y2="250"/>
	<path fill="none" stroke="#494949" stroke-width="3" stroke-miterlimit="10" d="M1002.5,32.5c0,0,172,68,539,68
		c0,0,359.149,1.901,554.14-68"/>
	<line fill="none" stroke="#9B5627" stroke-width="10" stroke-miterlimit="10" x1="1996.5" y1="32.5" x2="2103.5" y2="32.5"/>
	<path fill="none" stroke="#494949" stroke-width="3" stroke-miterlimit="10" d="M1093.5,32.5c0,0,209,51,464,43s404-33,444-43"/>
	<g>
		<line fill="none" stroke="#9B5627" stroke-width="10" stroke-miterlimit="10" x1="3054.092" y1="10.5" x2="3054.092" y2="251"/>
		<path fill="none" stroke="#494949" stroke-width="3" stroke-miterlimit="10" d="M2006.092,33.5c0,0,172,68,539,68
			c0,0,359.149,1.901,554.14-68"/>
		<line fill="none" stroke="#9B5627" stroke-width="10" stroke-miterlimit="10" x1="3000.092" y1="33.5" x2="3107.092" y2="33.5"/>
		<path fill="none" stroke="#494949" stroke-width="3" stroke-miterlimit="10" d="M2097.092,33.5c0,0,209,51,464,43s404-33,444-43"
			/>
	</g>
	<line fill="none" stroke="#9B5627" stroke-width="10" stroke-miterlimit="10" x1="4053.092" y1="10.5" x2="4053.092" y2="251"/>
	<path fill="none" stroke="#494949" stroke-width="3" stroke-miterlimit="10" d="M3005.092,33.5c0,0,172,68,539,68
		c0,0,359.149,1.901,554.14-68"/>
	<line fill="none" stroke="#9B5627" stroke-width="10" stroke-miterlimit="10" x1="3999.092" y1="33.5" x2="4106.092" y2="33.5"/>
	<path fill="none" stroke="#494949" stroke-width="3" stroke-miterlimit="10" d="M3096.092,33.5c0,0,209,51,464,43s404-33,444-43"/>
	<line fill="none" stroke="#9B5627" stroke-width="10" stroke-miterlimit="10" x1="5052.092" y1="10.5" x2="5052.092" y2="251"/>
	<path fill="none" stroke="#494949" stroke-width="3" stroke-miterlimit="10" d="M4004.092,33.5c0,0,172,68,539,68
		c0,0,359.149,1.901,554.14-68"/>
	<line fill="none" stroke="#9B5627" stroke-width="10" stroke-miterlimit="10" x1="4998.092" y1="33.5" x2="5105.092" y2="33.5"/>
	<path fill="none" stroke="#494949" stroke-width="3" stroke-miterlimit="10" d="M4095.092,33.5c0,0,209,51,464,43s404-33,444-43"/>
	<line fill="none" stroke="#9B5627" stroke-width="10" stroke-miterlimit="10" x1="6051.092" y1="10.5" x2="6051.092" y2="251"/>
	<path fill="none" stroke="#494949" stroke-width="3" stroke-miterlimit="10" d="M5003.092,33.5c0,0,172,68,539,68
		c0,0,359.149,1.901,554.14-68"/>
	<line fill="none" stroke="#9B5627" stroke-width="10" stroke-miterlimit="10" x1="5997.092" y1="33.5" x2="6104.092" y2="33.5"/>
	<path fill="none" stroke="#494949" stroke-width="3" stroke-miterlimit="10" d="M5094.092,33.5c0,0,209,51,464,43s404-33,444-43"/>
	<line fill="none" stroke="#494949" stroke-width="3" stroke-miterlimit="10" x1="6006.5" y1="33.5" x2="6220.5" y2="250"/>
	<line fill="none" stroke="#494949" stroke-width="3" stroke-miterlimit="10" x1="6096.5" y1="33.5" x2="6310.5" y2="250"/>
</g>
<g id="Layer_2_1_">
	<path fill="#27AE60" d="M2014.5,250c0,0-14-48.5,36-65.833c0,0,48-12,64,14c0,0,16.667,17,18,51.833H2014.5z"/>
	<path fill="#2ECC71" d="M2023.5,245.833c0,0-0.477-51.665,39-59c0,0,33.333-6.667,48.333,24c0,0-57-43-78,30l59,1.667
		L2023.5,245.833z"/>
	<path fill="#27AE60" d="M2113.5,250c0,0,4.5-85.5,85.5-86c0,0,49-3.5,78.5,46c0,0,9,20,11,40H2113.5z"/>
	<path fill="#2ECC71" d="M2135,221.5c0,0,16-46.5,66-46.5s62,40.701,62,40.701s-17-34.397-62-34.299
		C2156,181.5,2135,221.5,2135,221.5z"/>
	<path fill="#27AE60" d="M3319.5,253.554c0,0-14-48.5,36-65.833c0,0,48-12,64,14c0,0,16.667,17,18,51.833H3319.5z"/>
	<path fill="#2ECC71" d="M3328.5,249.387c0,0-0.477-51.665,39-59c0,0,33.333-6.667,48.333,24c0,0-57-43-78,30l59,1.667
		L3328.5,249.387z"/>
	<path fill="#27AE60" d="M3418.5,253.554c0,0,4.5-85.5,85.5-86c0,0,49-3.5,78.5,46c0,0,9,20,11,40H3418.5z"/>
	<path fill="#2ECC71" d="M3440,225.054c0,0,16-46.5,66-46.5s62,40.701,62,40.701s-17-34.397-62-34.299
		C3461,185.054,3440,225.054,3440,225.054z"/>
</g>
</svg>
