<?xml version="1.0" encoding="utf-8"?>
<!-- Generator: Adobe Illustrator 17.0.0, SVG Export Plug-In . SVG Version: 6.00 Build 0)  -->
<!DOCTYPE svg PUBLIC "-//W3C//DTD SVG 1.1//EN" "http://www.w3.org/Graphics/SVG/1.1/DTD/svg11.dtd">
<svg version="1.1" id="Layer_1" xmlns="http://www.w3.org/2000/svg" xmlns:xlink="http://www.w3.org/1999/xlink" x="0px" y="0px"
	 width="834.453px" height="144.189px" viewBox="0 0 834.453 144.189" enable-background="new 0 0 834.453 144.189"
	 xml:space="preserve">
<g id="Layer_1_2_">
	<g id="Layer_1_1_" display="none">
		
			<image display="inline" overflow="visible" enable-background="new    " width="414" height="414" xlink:href="2F8D2011.jpeg"  transform="matrix(1.8128 0 0 1.8128 -167.25 -265.5)">
		</image>
	</g>
	<g id="Layer_4">
		<path fill="#F73737" d="M81.361,99.071c0,0,12.23,34.929,27.571,34.929s79.287,0,79.287,0s32.143,4.813,45.804-36.407
			L81.361,99.071z"/>
		<path fill="#FF4545" d="M223.296,118.01c4.086-5.087,7.824-11.766,10.727-20.526L81.361,98.999c0,0,3.29,9.377,8.598,18.404"/>
		<path fill="#195570" d="M208.176,117c0,3.149-2.345,6-5.237,6h-92.775c-2.892,0-5.237-2.851-5.237-6l0,0c0-3.149,2.345-6,5.237-6
			h92.775C205.832,111,208.176,113.851,208.176,117L208.176,117z"/>
		<path fill="#124151" d="M208.176,117.43L208.176,117.43c0,3.149-2.345,5.57-5.237,5.57h-92.775c-2.892,0-5.237-2.487-5.237-5.636
			l0,0"/>
		<path fill="#FF4545" d="M250.61,10.305c0,0,3.998-8.859,9.429-8.84s39.915,0,39.915,0s9.125-0.054-3.923,24.013
			S250.61,10.305,250.61,10.305"/>
		<path fill="#F73737" d="M252.239,94.502c0,0,3.998,8.859,9.429,8.84c5.431-0.019,39.915,0,39.915,0s9.125,0.054-3.923-24.013
			S252.239,94.502,252.239,94.502"/>
		<path fill="#F4BA38" d="M272.122,103.334c5.431-0.019,29.461,0.008,29.461,0.008s7.399-0.747,1.179-13.141"/>
		<path fill="#E2B034" d="M270.493,1.419c5.431,0.019,29.461-0.008,29.461-0.008s7.399,0.747,1.179,13.141"/>
	</g>
	<g id="Layer_2">
		<g>
			<path fill="#424242" d="M17.833,52c0,0,8.855-20.519,29.529-33.065C64.197,8.719,89.45,3.014,102.687,1.792
				c3.245-0.299,53.78-0.737,71.684,0.049c18.828,0.827,54.861,4.577,74.942,8.171c9.673,1.731,59.737,18.482,68.154,25.542
				S323.964,52,323.964,52H17.833z"/>
			<path fill="#2B2B2B" d="M17.833,52c0,0,8.855,21.108,29.529,33.654c16.835,10.216,42.087,16.216,55.324,17.438
				c3.245,0.299,53.78,0.884,71.684,0.098c18.828-0.827,54.861-4.503,74.942-8.097c9.673-1.731,59.737-19.035,68.154-26.095
				s6.497-16.999,6.497-16.999H17.833V52z"/>
		</g>
	</g>
	<g id="Layer_3">
		<path fill="#E2B034" d="M17.969,51.893c0,0,26.882-14.893,75.214-14.893s115.401,0,115.401,0s68.154,2.946,89.062,5.933
			s26.319,9.076,26.319,9.076s-11.656-20.443-58.088-28.046s-56.478-6.42-57.564-6.42s-96.665-2.667-96.665-2.667
			S69.288,17.5,57.07,24.56S17.969,51.893,17.969,51.893z"/>
		<path fill="#E07B36" d="M17.969,53.545c0,0,26.882,14.455,75.214,14.455s115.401,0,115.401,0s68.154-2.508,89.062-5.494
			c20.908-2.987,26.319-8.857,26.319-8.857s-11.656,20.553-58.088,28.155s-56.478,6.475-57.564,6.475s-96.665,2.694-96.665,2.694
			s-42.359-2.83-54.578-9.889S17.969,53.545,17.969,53.545z"/>
		<path fill="#E2B034" d="M232.207,55.654"/>
		<path fill="#FF4545" d="M297.492,52c0,2.097-1.561,4-3.487,4h-61.773c-1.926,0-3.487-1.903-3.487-4l0,0c0-2.097,1.561-4,3.487-4
			h61.773C295.931,48,297.492,49.903,297.492,52L297.492,52z"/>
		<path fill="#E2B034" d="M264,56h29.896c1.986,0,3.596-1.903,3.596-4l0,0c0-2.097-1.61-4-3.596-4H264"/>
		<path fill="#E07B36" d="M264,52h33.492h0.102c0,2-1.663,4-3.589,4H264V52z"/>
		<path fill="#F73737" d="M228.765,52l-0.02-0.036c0,2.097,1.561,4.036,3.487,4.036H264v-4H228.765z"/>
		<path fill="#F73737" d="M297.492,51.988"/>
	</g>
	<g id="Layer_5">
		<polyline fill="none" stroke="#2B2B2B" stroke-width="0.8146" stroke-miterlimit="10" points="395.329,22.527 323.964,52.395 
			395.329,69.366 		"/>
		<polygon fill="#BD1A01" points="395,14 827,14 791.453,45 827,76 395,76 		"/>
		<path fill="none" stroke="#050505" stroke-width="0.8146" stroke-miterlimit="10" d="M367.429,10.037"/>
		<g>
			<path fill="#F2F2F2" d="M512.633,47.344l8.228-20.896h3.829l-12.016,30.631h-5.662V29.87c-3.177,0.244-7.006,0.652-8.228,2.729
				c-1.059,2.525,0.286,5.01,1.629,6.843l-5.662,2.566c-0.896-5.295-0.081-9.124,1.996-11.405c3.258-3.585,9.45-4.155,15.926-4.155
				L512.633,47.344z"/>
			<path fill="#F2F2F2" d="M535.116,49.87c-3.218,8.798-15.519,11.16-13.238-0.244l2.688-12.912h5.621
				c-1.303,6.884-2.24,11.079-3.177,15.885c-0.936,4.888,5.133,1.263,6.518-2.729H535.116z M525.87,33.536
				c-0.57-0.611-0.856-1.344-0.856-2.281c0.041-0.896,0.326-1.629,0.937-2.281c0.651-0.611,1.385-0.937,2.322-0.937
				c0.936,0,1.629,0.326,2.24,0.937c0.651,0.652,0.978,1.385,0.978,2.281c0,0.937-0.367,1.67-1.018,2.281
				c-0.652,0.611-1.426,0.896-2.322,0.896S526.481,34.147,525.87,33.536z"/>
			<path fill="#F2F2F2" d="M549.818,50.073c-3.176,5.866-6.517,7.373-11.16,7.25c-7.699-0.244-7.821-9.979-4.032-16.007
				c3.095-4.806,8.39-5.825,10.712-3.87c2.077,1.67,2.118,4.766,0.896,7.169c-1.834,3.38-5.255,4.643-8.758,4.521
				c0.041,1.955,0.774,4.236,2.525,5.092c3.137,1.466,6.436-0.978,8.35-4.155H549.818z M537.598,47.222
				c6.436,0.204,7.169-7.535,6.151-8.35c-0.815-0.611-2.607,0.163-4.073,2.485c-0.855,1.303-1.589,3.136-2.036,5.417
				C537.64,46.937,537.598,47.1,537.598,47.222z"/>
			<path fill="#F2F2F2" d="M576.008,36.713l-9.939,20.366h-5.336l-0.204-13.93l-6.639,13.93h-5.458l-0.122-20.366h5.336l0.122,13.93
				l6.761-13.93h5.214l0.326,13.889l6.68-13.889C572.749,36.713,576.008,36.713,576.008,36.713z"/>
			<path fill="#F2F2F2" d="M597.715,45.511l-2.321,11.568h-5.662l5.662-27.698c-1.629,0.652-3.218,1.589-4.318,2.729
				c-1.751,1.711-1.996,5.051-0.611,7.332l-5.539,2.566c-0.652-4.969,1.222-8.839,4.277-11.487c6.191-5.295,16.904-5.58,19.51,0.122
				C611.727,37.284,605.17,44.412,597.715,45.511z M604.763,32.762c-0.082-2.525-1.63-3.829-3.707-4.154l-2.851,14.338
				C601.87,42.008,604.803,36.713,604.763,32.762z"/>
			<path fill="#F2F2F2" d="M629.974,42.497c-1.629,1.466-3.258,2.607-4.847,3.34c-1.181,9.287-8.758,12.871-13.564,11.038
				c-3.788-1.385-5.173-4.888-4.766-8.635c0.449-3.951,2.811-8.065,6.599-10.224c3.788-2.2,9.45-2.403,11.405,2.322
				c0.326,0.774,0.53,1.751,0.53,2.851c1.629-0.407,3.218-1.181,4.521-2.077L629.974,42.497z M620.238,46.611
				c-1.303-0.245-2.525-0.815-3.91-1.874l2.118-2.892c0.529,0.489,1.14,0.856,1.751,1.1c-0.651-3.014-3.218-5.703-5.539-2.485
				c-2.037,2.933-3.87,11.853-0.245,13.89c1.955,1.14,4.766-0.856,5.825-7.576C620.238,46.733,620.238,46.652,620.238,46.611z"/>
			<path fill="#F2F2F2" d="M646.388,38.057l-3.788,3.137c-3.3-2.403-6.314,0.733-8.391,4.114l-2.281,11.771h-5.743l4.114-20.366
				h5.58l-0.855,4.44C637.59,36.876,641.052,34.88,646.388,38.057z"/>
			<path fill="#F2F2F2" d="M660.479,49.951c-3.258,8.717-15.274,11.038-12.993-0.163l2.158-10.59H647.2l1.018-2.485h1.955l1.1-5.295
				l5.783-1.14l-1.262,6.436h3.3l-1.181,2.485h-2.566l-2.729,13.523c-0.936,4.765,4.847,1.222,6.232-2.77L660.479,49.951
				L660.479,49.951z"/>
			<path fill="#F2F2F2" d="M667.606,30.848l-1.181,5.866h3.299l-1.181,2.485h-2.647l-5.662,28.024h-5.865
				c1.873-9.654,3.706-18.493,5.662-28.024h-2.566l1.06-2.485h2.158c1.833-6.639,5.377-12.138,14.949-9.45l-3.951,3.991
				c-1.996-1.588-2.729-1.792-3.951-1.1L667.606,30.848z"/>
			<path fill="#F2F2F2" d="M691.148,42.497c-1.629,1.466-3.258,2.607-4.847,3.34c-1.181,9.287-8.758,12.871-13.564,11.038
				c-3.788-1.385-5.173-4.888-4.766-8.635c0.449-3.951,2.811-8.065,6.599-10.224c3.788-2.2,9.45-2.403,11.405,2.322
				c0.326,0.774,0.53,1.751,0.53,2.851c1.629-0.407,3.218-1.181,4.521-2.077L691.148,42.497z M681.413,46.611
				c-1.303-0.245-2.525-0.815-3.91-1.874l2.118-2.892c0.529,0.489,1.14,0.856,1.751,1.1c-0.651-3.014-3.218-5.703-5.539-2.485
				c-2.037,2.933-3.87,11.853-0.245,13.89c1.955,1.14,4.766-0.856,5.825-7.576C681.413,46.733,681.413,46.652,681.413,46.611z"/>
			<path fill="#F2F2F2" d="M701.289,50.236c-3.055,8.35-14.542,10.59-12.383-0.285l4.277-21.384h5.499
				c-1.385,6.924-4.032,19.592-4.969,24.276c-0.896,4.643,4.766,1.181,6.028-2.607H701.289z"/>
			<path fill="#F2F2F2" d="M712.408,49.87c-3.218,8.798-15.519,11.16-13.238-0.244l2.688-12.912h5.621
				c-1.303,6.884-2.24,11.079-3.177,15.885c-0.936,4.888,5.133,1.263,6.518-2.729H712.408z M703.162,33.536
				c-0.57-0.611-0.856-1.344-0.856-2.281c0.041-0.896,0.326-1.629,0.937-2.281c0.651-0.611,1.385-0.937,2.322-0.937
				c0.936,0,1.629,0.326,2.24,0.937c0.651,0.652,0.978,1.385,0.978,2.281c0,0.937-0.367,1.67-1.018,2.281
				c-0.652,0.611-1.426,0.896-2.322,0.896S703.773,34.147,703.162,33.536z"/>
			<path fill="#F2F2F2" d="M732.447,42.497c-1.629,1.466-3.258,2.607-4.847,3.34c-1.181,9.287-8.758,12.871-13.564,11.038
				c-3.788-1.385-5.173-4.888-4.766-8.635c0.449-3.951,2.81-8.065,6.599-10.224c3.788-2.2,9.45-2.403,11.405,2.322
				c0.326,0.774,0.53,1.751,0.53,2.851c1.629-0.407,3.218-1.181,4.521-2.077L732.447,42.497z M722.711,46.611
				c-1.303-0.245-2.525-0.815-3.91-1.874l2.118-2.892c0.529,0.489,1.14,0.856,1.751,1.1c-0.651-3.014-3.218-5.703-5.539-2.485
				c-2.037,2.933-3.87,11.853-0.245,13.89c1.955,1.14,4.766-0.856,5.825-7.576C722.711,46.733,722.711,46.652,722.711,46.611z"/>
		</g>
	</g>
</g>
<g id="Layer_2_1_" display="none">
	<path display="inline" fill="#BD1A01" d="M530.51,103H422V40h108.51l-33.806,31.093L530.51,103z"/>
	<polygon display="inline" fill="#5E0D01" points="470.23,89 422,103.496 422,89 	"/>
</g>
</svg>
