<?xml version="1.0" encoding="utf-8"?>
<!-- Generator: Adobe Illustrator 17.0.0, SVG Export Plug-In . SVG Version: 6.00 Build 0)  -->
<!DOCTYPE svg PUBLIC "-//W3C//DTD SVG 1.1//EN" "http://www.w3.org/Graphics/SVG/1.1/DTD/svg11.dtd">
<svg version="1.1" xmlns="http://www.w3.org/2000/svg" xmlns:xlink="http://www.w3.org/1999/xlink" x="0px" y="0px" width="5400px"
	 height="696.549px" viewBox="0 0 5400 696.549" enable-background="new 0 0 5400 696.549" xml:space="preserve">
<g id="Layer_1" display="none">
	<rect y="-567.451" display="inline" width="5400" height="1264"/>
</g>
<g id="Layer_2">
	<path fill="#209BD6" d="M1944.236,389.357l1232.777,619.579c27.533-12.228,52.744-26.741,73.523-43.34
		c71.437-57.062,123.267-155.383,170.369-228.027c56.966-87.848,90.852-189.231,110.329-288.471
		c4.582-23.343,0.429-43.189-0.656-66.513c-0.698-15.036-1.493-30.34-5.108-44.968c-7.886-31.904-24.194-70.068-41.452-98.806
		c-18.506-30.817-45.711-59.116-83.169-72.011c-21.648-7.453-75.03-17.623-95.895,2.617c-14.295-11.01-36.596-14.115-52.95-4.235
		c-18.826-22.591-44.524-31.787-77.176-32.845c-26.738-0.865-46.589,9.444-60.01,29.36c-9.702,14.399-5.766,16.289-23.591,17.119
		c-10.683,0.497-19.546-2.061-30.379,1.023c-19.411,5.529-32.825,20.307-40.854,36.111c-2.333,4.593-17.161,46.89-9.218,49.004
		c-33.497-8.924-73.705,8.063-71.111,38.257c-67.499-45.751-103.781-28.669-135.375-12.79
		c-14.438-25.314-82.488-51.502-115.077-32.671c-6.758-58.861-101.137-101.774-152.779-85.123
		c-26.406-48.828-129.868-31.171-133.909,18.712c-61.375-0.341-89.777,27.496-103.658,63.375c-14.93-3.03-14.372-3.021-25.461,4.313
		c-6.186-48.896-15.983-85.113-67.135-113.445c0,0-136.694-51.548-220.826,36.018S1935.651,368.754,1944.236,389.357
		C1952.821,409.961,1944.236,389.357,1944.236,389.357"/>
	
		<linearGradient id="SVGID_1_" gradientUnits="userSpaceOnUse" x1="1738.1517" y1="420.6494" x2="3199.6265" y2="420.6494" gradientTransform="matrix(0.8487 0.4651 -0.4595 0.8385 824.2717 -1131.4412)">
		<stop  offset="0" style="stop-color:#209BD6"/>
		<stop  offset="1" style="stop-color:#44C8F5"/>
	</linearGradient>
	<path fill="url(#SVGID_1_)" d="M1942.097,433.885l508.406,243.249c51.358,18.776,103.543,33.824,156.004,40.24
		c236.317,28.901,549.482,72.153,749.365-74.651c96.256-70.695,114.167-176.165,91.154-279.941
		c-13.637-61.504-50.052-164.939-148.167-143.928c-8.025-9.092-19.192-15.724-32.322-16.499c-6.059-0.357-10.21-0.335-16.94,1.922
		c-2.625-4.392-12.108-10.246-16.123-12.627c-13.016-7.715-31.761-8.208-44.356,0.66c-5.387,3.793-8.737,12.268-11.955,18.479
		c-9.758-2.58-14.827-1.627-24.15-3.589c-36.366-7.658-73.575,8.611-95.423,33.976c-29.254,33.964-6.929,64.345-21.866,96.465
		c-26.604-13.165-71.868-13.514-91.166,8.483l0.434-8.315c-0.935-14.756-34.166-23.342-47.784-24.595
		c-18.032-1.659-40.722,3.486-51.027,17.405c-6.994-3.578-13.007-9.974-22.481-8.318c-6.413,1.123-15.513,8.915-10.824,14.742
		c-15.327-21.595-32.456-43.012-63.253-48.203c-17.521-2.953-61.094-8.524-69.824,10.84c-1.083-30.003-30.71-59.877-59.865-73.833
		c-15.032-7.196-31.079-12.227-48.17-13.144c-7.254-0.388-30.309-3.799-32.651,3.053c-3.679-19.202-38.572-37.858-59.121-37.334
		c-16.79,0.43-57.845,18.518-48.864,38.068c-42.826-10.429-105.983,50.365-102.045,86.899c-15.129-13.36-54.774-20.162-68.316-0.273
		c5.142-39.329-12.134-72.162-39.989-103.718C2220.777,199.396,1958.844,57.754,1942.097,433.885z"/>
	
		<linearGradient id="SVGID_2_" gradientUnits="userSpaceOnUse" x1="3369.135" y1="-472.7965" x2="5083.0542" y2="-472.7965" gradientTransform="matrix(0.8487 0.4651 -0.4595 0.8385 824.2717 -1131.4412)">
		<stop  offset="0" style="stop-color:#FFFFFF"/>
		<stop  offset="1" style="stop-color:#C6E9FA"/>
	</linearGradient>
	<path fill="url(#SVGID_2_)" d="M5414.486,361.822c-4.815-4.999-40.997-19.804-48.25-22.845
		c6.653-15.688-3.864-33.442-16.264-44.488c-6.604-5.884-14.866-11.198-24.029-13.554c-8.497-2.184-17.447,0.039-24.046-3.78
		c-7.218-4.177-8.042-12.062-18.295-15.306c-8.525-2.699-18.471-2.021-27.082,0.008c-9.012,2.126-18.056,6.266-24.513,12.261
		c-1.251,1.161-13.515,17.398-10.344,18.012c-8.798-1.704-18.298-5.902-27.785-3.923c-3.961,0.828-23.2,10.415-19.175,15.74
		c-6.89-9.114-10.911-10.632-22.772-7.442c3.147-36.856-71.284-53.671-76.467-13.502c-11.94-1.49-18.149,1.749-24.385,10.52
		c-6.923-2.632-10.733-8.53-18.503-9.931c16.747,3.217,35.132-9.479,22.21-24.157c13.332-8.684,25.999-19.67,27.618-35.112
		c0.584-5.572-2.118-11.494,0.026-16.827c2.523-6.285,11.187-10.162,15.046-16.249c18.917-29.84-18.558-58.488-48.919-65.441
		c12.922-15.602-14.847-41.418-28.629-48.107c-20.694-10.042-48.924-20.73-69.892-6.358c-9.508-21.288-59.71-21.897-76.848-7.163
		c-3.213,2.76-7.286,11.871-11.178,13.38c-5.562,2.155-18.901-2.063-24.61-3.077c-18.03-3.205-35.846-7.58-54.291-7.063
		c-12.289,0.344-15.426,8.607-26.93,10.357c-6.382,0.971-10.316-1.106-16.299-2.783c-11.743-3.293-22.072-5.861-34.723-4.549
		c-16.791,1.739-37.658,6.562-49.788,14.797c-15.938,10.814-36.782,48.983-54.088,51.537c-6.762,0.998-24.39-10.699-31.689-12.707
		c-13.311-3.66-26.633-5.452-40.584-3.65c-37.676,4.865-58.212,33.317-91.321,42.687c-12.271-31.72-43.596-36.089-72.841-48.003
		c-17.418-7.095-10.344-11.126-20.391-28.006c-6.204-10.425-14.272-16.767-26.048-22.289c-24.817-11.635-58.17-26.525-83.842-10.218
		c-21.396,13.589-29.298,39.293-15.602,58.514c-25.571,10.791-41.985,33.25-28.985,57.074
		c-37.028-7.235-35.801,30.001-35.944,49.553c-9.316-3.227-19.664-0.446-27.752,3.259c0.309-39.725-55.521-55.74-90.981-39.101
		c-7.289,3.452-9.437,9.403-17.78,10.542c-6.406,0.876-17.353-7.047-24.912-7.3c-18.206-0.608-30.385,7.047-39.527,20.737
		c-63.888-35.359-150.902,14.232-180.62,65.679c-41.263,71.431,5.502,145.142,56.442,200.437
		c48.872,53.049,94.704,105.61,153.671,150.826c74.312,56.983,152.722,108.932,235.006,156.972
		c120.344,70.256,244.32,144.409,373.337,202.021c73.434,32.791,161.477,48.664,243.733,52.8
		c65.211,3.278,555.356-303.435,599.335-343.586L5414.486,361.822z"/>
	
		<linearGradient id="SVGID_3_" gradientUnits="userSpaceOnUse" x1="4977.9263" y1="-1146.5514" x2="3758.9556" y2="165.9524" gradientTransform="matrix(0.8487 0.4651 -0.4595 0.8385 824.2717 -1131.4412)">
		<stop  offset="0" style="stop-color:#FFFFFF"/>
		<stop  offset="1" style="stop-color:#C6E9FA"/>
	</linearGradient>
	<path fill="url(#SVGID_3_)" d="M5416.224,391.351c-7.041-6.037-66.73-3.773-65.636-18.501c1.331-17.965,7.832-30.319-4.239-47.541
		c-12.831-18.3-33.885-18.644-50.126-30.55c-14.56-10.674-27.1-22.325-48.655-14.575c-14.174,5.096-13.941,19.834-20.046,29.27
		c-14.691-15.327-50.433-20.847-54.691,5.194c-5.439-7.581-17.754-17.778-27.586-7.935c-1.148-16.319-15.821-36.268-36.053-37.951
		c-24.478-2.037-21.628,15.478-32.768,28.455c-12.558-5.832-22.512,1.703-30.75,8.556c-2.809-11.974-16.663-19.666-29.052-25.36
		c23.941,1.251,28.621-15.871,23.325-31.902c13.691,3.602,29.167-8.756,22.771-20.933c14.856-5.779,16.861-27.385,0.226-32.516
		c17.811-5.46,23.816-22.895,15.28-36.77c-6.484-10.541-34.129-31.063-48.376-25.626c36.96-18.811-59.198-84.534-83.658-49.459
		c-4.263-13.459-29.752-21.054-44.229-18.764c-17.898,2.831-31.55,14.873-40.654,27.612c-27.008-11.179-75.058-25.485-99.167-1.071
		c-15.554-8.171-35.096-11.946-53.257-12.673c-53.482-2.147-84.775,60.736-109.034,99.56c-2.881,4.616-5.667,8.891-8.375,12.676
		c-39.84-35.577-102.255-26.507-144.968,0.825c-8.263-24.155-77.251-63.467-106.24-62.522c9.325-41.497-53.568-92.603-94.513-59.026
		c-6.822,5.593-14.859,16.074-17.814,24.242c-3.796,10.508,2.435,25.923-2.908,33.705c-5.109,7.443-22.771,11.546-29.83,22.634
		c-6.481,10.181-11.996,20.916-6.813,31.771c-28.171-1.624-24.67,44.187-15.761,58.139c-18.704-14.522-41.733-23.116-58.387-0.147
		c-1.512-21.45-1.228-39.255-28.075-47.874c-10.384-3.334-19.746-4.907-30.388-2.841c-12.36,2.398-19.162,13.877-29.117,16.064
		c-9.355,2.056-19.95-5.321-30.033-2.76c-12.136,3.079-13.416,12.819-21.958,18.137c-17.83,11.098-50.669,6.429-66.123,24.517
		c-11.384,13.33-10.797,37.179-11.624,53.349c-4.985,97.538,85.303,168.65,151.658,238.852
		c101.621,107.509,224.193,209.384,359.132,284.242c101.428,56.266,207.437,108.141,310.63,162.085
		c65.751,34.37,165.202,59.413,238.022,29.177c5.736-2.383,472.065-317.221,477.624-320.095L5416.224,391.351z"/>
	
		<linearGradient id="SVGID_4_" gradientUnits="userSpaceOnUse" x1="2809.9521" y1="102.6339" x2="3188.0542" y2="102.6339" gradientTransform="matrix(0.8487 0.4651 -0.4595 0.8385 824.2717 -1131.4412)">
		<stop  offset="0" style="stop-color:#209BD6"/>
		<stop  offset="1" style="stop-color:#44C8F5"/>
	</linearGradient>
	<path fill="url(#SVGID_4_)" d="M3467.251,448.976c29.04-26.353,64.05-87.774,42.752-127.068
		c-14.469-26.696-81.932-40.544-93.411-7.398c1.974-60.718-87.438-85.444-129.04-54.933
		c-24.677-34.726-83.166-44.489-113.879-12.869c-61.948,63.778,21.037,149.052,72.633,192.168
		C3315.225,496.469,3397.962,511.856,3467.251,448.976z"/>
	
		<linearGradient id="SVGID_5_" gradientUnits="userSpaceOnUse" x1="4095.4792" y1="97.3939" x2="3749.1086" y2="-479.8921" gradientTransform="matrix(0.8487 0.4651 -0.4595 0.8385 824.2717 -1131.4412)">
		<stop  offset="0" style="stop-color:#44C8F5"/>
		<stop  offset="1" style="stop-color:#C6E9FA"/>
	</linearGradient>
	<path fill="url(#SVGID_5_)" d="M4535.156,326.94c1.088,0.47,2.18,0.934,3.277,1.391c26.752-30.862,71.177-40.101,112.948-37.21
		c17.123,1.184,25.565,6.851,42.324,2.497c14.467-3.757,19.03-18.797,37.258-20.366c14.59-1.257,38.438,4.614,43.822,17.772
		c5.858-15.516,16.952-34.019,33.043-43.386c20.473-11.918,40.278-2.828,59.441,5.398c7.125-14.549,2.511-29.774,18.169-41.763
		c12.752-9.768,30.109-10.847,41.342,0.699c-0.992-4.106-3.188-11.774,1.459-15.32c5.016-3.824,13.214-1.525,15.652,3.268
		c6.513-12.874,26.315-11.659,39.504-9.368c14.554,2.528,17.417,10.33,13.917,22.279c14.319-13.842,35.219,20.521,30.839,32.946
		c-6.211,17.614-31.729,31.115-51.211,34.465c12.463,0.721,26.294,12.5,28.561,22.97c3.462,16.003-15.082,24.047-29.29,28.062
		c10.957-0.999,17.856,13.491,15.985,21.411c-2.398,10.16-18.002,19.813-29.034,19.939c18.139,11.694,14.765,33.466,9.411,49.96
		c-16.418,50.578-58.038,92.329-90.491,135.65c-40.453,54.002-87.674,104.479-141.959,148.329
		c-96.495,77.938-205.424,183.473-348.912,157.16c-238.158-43.672-462.302-118.293-677.433-221.049
		c-129.217-61.72-295.493-142.586-279.34-292.844c2.482-23.085,12.788-46.793,32.536-62.852
		c9.934-8.079,38.058-17.589,42.641-19.339c1.59-4.669,3.03-7.54,4.908-10.725c3.892-6.594,8.749-16.672,20.18-21.129
		c22.665-8.838,36.06-3.796,52.84-0.838c3.879-12.057,13.086-16.323,28.634-18.552c16.466-2.361,34.147,13.423,32.407,16.473
		c19.166-33.613,70.551-35.633,85.374,9.046c29.764-14.322,56.045,14.153,76.861,26.954
		c17.807-85.413,142.216-58.125,189.981-15.514c57.927-50.981,163.618-4.909,158.226,68.13c11.762-29.67,42.027-36.05,74.042-35.559
		c38.577,0.594,80.562,32.086,107.395,27.38c13.924-2.441,27.279-16.664,43.83-19.608c19.066-3.392,46.585-2.687,65.726,0.332
		C4481.09,298.926,4507.384,314.951,4535.156,326.94z"/>
	
		<linearGradient id="SVGID_6_" gradientUnits="userSpaceOnUse" x1="3666.9387" y1="-245.663" x2="4111.3745" y2="-245.663" gradientTransform="matrix(0.8487 0.4651 -0.4595 0.8385 824.2717 -1131.4412)">
		<stop  offset="0" style="stop-color:#44C8F5"/>
		<stop  offset="1" style="stop-color:#C6E9FA"/>
	</linearGradient>
	<path fill="url(#SVGID_6_)" d="M4219.333,606.185c84.73,19.998,198.77-10.294,236.182-84.563
		c31.975-63.475-73.1-137.056-130.719-164.313c-27.813-13.156-141.161-36.928-122.112,23.665
		c-25.297-17.441-82.821-6.903-86.433,24.667c-42.988-30.219-107.199,4.966-108.918,50.217
		C4004.697,525.37,4156.101,591.261,4219.333,606.185z"/>
	
		<linearGradient id="SVGID_7_" gradientUnits="userSpaceOnUse" x1="3159.6814" y1="283.8581" x2="2702.8367" y2="48.9095" gradientTransform="matrix(0.8487 0.4651 -0.4595 0.8385 824.2717 -1131.4412)">
		<stop  offset="0" style="stop-color:#209BD6"/>
		<stop  offset="1" style="stop-color:#44C8F5"/>
	</linearGradient>
	<path fill="url(#SVGID_7_)" d="M3460.549,462.989c9.918-30.404,31.223-70.939,2.632-98.058
		c-22.957-21.773-64.192-20.867-88.873-1.858c-1.172-48.612-70.383-104.021-128.98-98.754c-10.362,0.932-20.132,9.842-29.088,9.865
		c-7.122,0.021-13.479-6.544-20.362-6.602c-20.117-0.176-35.891-0.391-55.28,8.006c-32.363,14.017-43.232,37.277-39.357,67.041
		c-195.713,35.703,92.97,270.274,218.919,251.941C3390.307,584.36,3442.602,518.002,3460.549,462.989z"/>
	
		<linearGradient id="SVGID_8_" gradientUnits="userSpaceOnUse" x1="4469.9478" y1="-538.1715" x2="4224.7104" y2="-730.7597" gradientTransform="matrix(0.8487 0.4651 -0.4595 0.8385 824.2717 -1131.4412)">
		<stop  offset="0" style="stop-color:#FFFFFF"/>
		<stop  offset="1" style="stop-color:#44C8F5"/>
	</linearGradient>
	<path fill="url(#SVGID_8_)" d="M4652.554,386.513c-8.961-15.517-17.521-25.189-6.442-42.777
		c7.681-12.201,22.229-20.503,36.623-25.623c27.412-9.75,67.596-10.966,87.409,11.012c10.312,11.439,17.405,26.829,18.561,41.27
		c0.537,6.716,0.819,12.085,1.371,17.745c0.802,8.185,0.369,12.247-3.282,20.18c16.396-1.807,33.779,0.976,47.785,8.585
		c0.931-16.945-7.825-32.087-2.378-49.025c4.831-15.034,21.589-33.971,41.01-25.769c1.525-9.699-9.542-19.643-4.965-31.6
		c5.892-15.404,19.004-13.357,33.165-15.583c20.221-3.179,48.55-15.719,46.094,17.109c13.349,9.508,17.045,25.634,3.486,36.606
		c33.656,18.032,10.299,79.942-5.572,101.389c-26.433,35.72-71.33,37.293-116.361,28.284c-32.237-6.449-64.308-18.582-95.758-27.674
		c-24.536-7.093-51.202-12.413-65.029-32.975C4661.584,407.726,4658.467,396.755,4652.554,386.513z"/>
	
		<linearGradient id="SVGID_9_" gradientUnits="userSpaceOnUse" x1="3262.4812" y1="448.7511" x2="2839.8489" y2="64.2512" gradientTransform="matrix(0.8487 0.4651 -0.4595 0.8385 824.2717 -1131.4412)">
		<stop  offset="0" style="stop-color:#FFFFFF"/>
		<stop  offset="1" style="stop-color:#44C8F5"/>
	</linearGradient>
	<path fill="url(#SVGID_9_)" d="M3323.821,668.594c82.268-13.294,159.535-115.426,184.469-178.592
		c12.791-32.408,9.638-71.579-31.51-93.082c-31.806-16.621-92.066-3.278-97.558,33.821c-4.057-21.049-29.163-29.532-52.242-22.48
		c43.394-47.667-18.095-97.961-68.963-108.386c-56.356-11.55-146.091,8.935-105.444,73.59c-20.447-8.953-48.89-4.049-69.06,5.496
		c-46.863,22.175-45.145,60.433-34.123,101.521C3074.085,572.533,3204.4,687.867,3323.821,668.594z"/>
	<path fill="#FFFFFF" d="M5314.2,462.611c-15.996-8.335-34.171-13.241-43.83-6.237c0.203-3.928,0.356-7.79,0.403-11.584
		c0.315-24.735-3.833-46.533-27.526-63.868c-12.567-9.197-24.174-15.562-41.42-12.408c-5.503,1.007-37.868,14.839-33.798,22.117
		c-3.935-7.035-17.147-13.401-24.832-17.089c-13.249-6.363-17.406,0.944-28.769,0.016c-6.051-0.495-11.987-6.583-18.44-7.634
		c-7.657-1.246-16.777,1.181-23.29,4.483c-10.487,5.315-22.223,15.143-24.553,25.854c-4.654-13.935-19.192-26.492-33.995-32.76
		c-14.367-6.083-18.509,0.107-25.75,10.734c-9.979-6.912-24.41-11.283-31.361,1.91c-4.682-16.405-32.238-33.092-52.042-27.978
		c-7.306,1.887-15.535,6.982-18.986,13.053c-3.921,6.9,0.487,14.377-2.395,20.823c-19.218-8.525-41.885,0.189-42.567,20.799
		c-4.96-6.947-25.26-5.782-31.921,0.269c10.181-12.276-6.168-48.471-26.854-43.412c4.185-8.124-14.918-16.106-22.422-16.472
		c-12.321-0.603-16.009,6.174-18.778,14.889c-9.56-5.573-24.731-6.014-33.055,0.811c-10.723-17.891-49.588-23.801-69.832-27.741
		c-30.469-5.927-60.943-2.155-85.732,14.846c-20.621,14.143-32.264,32.857-46.436,51.393
		c-11.546,15.102-22.336,30.963-32.939,46.594c-10.203,15.043-27.958,39.855-21.836,58.176
		c5.286,15.827,26.681,20.808,42.562,25.542c33.953,10.123,67.369,19.875,100.279,32.41c40.55,15.447,77.139,36.112,115.169,55.661
		c36.46,18.741,76.349,36.216,109.771,59c47.377,32.297,98.636,52.452,154.071,72.448c36.706,13.24,66.13,20.889,95.146-9.762
		c14.532-15.352,22.403-42.378,42.514-49.171c16.146-5.454,34.992-7.054,51.657-11.967c7.569-2.232,14.903-4.669,22.062-7.28
		L5314.2,462.611z"/>
	
		<linearGradient id="SVGID_10_" gradientUnits="userSpaceOnUse" x1="3264.2585" y1="-287.0036" x2="5083.0542" y2="-287.0036" gradientTransform="matrix(0.8487 0.4651 -0.4595 0.8385 824.2717 -1131.4412)">
		<stop  offset="0" style="stop-color:#FFFFFF"/>
		<stop  offset="1" style="stop-color:#C6E9FA"/>
	</linearGradient>
	<path fill="url(#SVGID_10_)" d="M5421.018,472.766c-22.333-9.77-161.308-9.99-180.61,2.54
		c3.479-22.378-17.644-45.627-38.833-57.162c-15.435-8.402-34.437-12.373-52.127-8.341c-15,3.42-8.265,5.48-21.961-4.433
		c-9.36-6.775-18.685-10.422-31.175-8.908c-22.684,2.749-23.386,16.603-32.939,30.559c-5.73-12.242-21.158-12.165-27.794-1.707
		c0.681-17.736-17.429-30.493-36.668-34.58c-19.712-4.188-33.921,1.97-44.783,15.404c-0.549-15.065-41.52-19.624-38.317,2.745
		c-3.339-7.489-14.883-9.799-23.245-6.403c-12.415,5.04-11.652,15.415-10.956,24.982c-8.042-4.023-25.4-8.542-33.691-2.311
		c-7.626,5.727-1.55,15.618-5.578,22.548c-7.898-6.491-35.186-29.011-46.973-17.209c-9.07-11.751-13.337-25.516-28.755-34.75
		c-9.76-5.845-23.314-11.027-34.641-7.149c16.043-5.491-28.597-20.642-27.698-20.299c-7.429-2.839-15.48,7.792-23.224,4.843
		c-6.454-2.458-5.159-13.186-11.673-16.251c-12.839-6.039-27.708-11.846-41.633-12.625c-15.325-0.856-29.5,4.382-38.556,22.114
		c-40.651-25.1-91.144-1.697-101.769,37.198c-30.109-16.243-91.929-31.908-109.825,6.005c-35.72-14.904-112.215,4.154-94.008,48.441
		c-43.472-9.82-88.719,10.426-85.964,50.941c-28.143-13.637-88.26-125.114-136.728-89.214
		c-8.217-44.107-144.565-155.474-182.528-83.812c-17.989-23.363-53.467-30.347-71.268-4.003
		c-4.318-34.106-65.688-47.444-98.156-45.66c-57.133,3.139-59.034,33.001-75.606,70.508c-7.697,17.42-15.262,19.18-28.824,33.397
		c-17.64,18.489-7.229,18.272-11.588,37.346c-2.612,11.427,5.716,6.526-2.591,18.452c-2.576,3.697-23.59,8.862-29.376,13.545
		c-12.923,10.463-29.599,32.12-15.869,44.563c-25.325,20.145-8.416,60.235,5.877,84.858c22.301,38.422,67.176,69.342,105.26,95.153
		c85.376,57.861,174.957,112.874,263.316,167.219c278.221,171.117,663.237,290.826,980.865,131.224
		c43.344-21.78,492.796-264.203,533.583-289.513L5421.018,472.766z"/>
	
		<linearGradient id="SVGID_11_" gradientUnits="userSpaceOnUse" x1="4844.2007" y1="-487.4372" x2="3226.6782" y2="196.6263" gradientTransform="matrix(0.8487 0.4651 -0.4595 0.8385 824.2717 -1131.4412)">
		<stop  offset="0" style="stop-color:#FFFFFF"/>
		<stop  offset="1" style="stop-color:#44C8F5"/>
	</linearGradient>
	<path fill="url(#SVGID_11_)" d="M4417.971,411.115c30.396-7.582,55.432-13.254,93.476,4.028
		c13.805-24.882,50.507-45.971,82.442-34.802c14.958,5.233,21.298,24.978,33.635,27.91c5.539,1.317,22.474-7.691,29.782-8.155
		c35.917-2.274,110.39,20.867,90.054,63.763c21.139-9.783,49.875,13.117,63.364,24.964c21.855,19.191,32.509,41.494,39.001,67.844
		c12.579,51.053-22.651,100.22-58.854,137.534c-38.497,39.672-54.26,97.651-102.636,129.293
		c-93.355,61.065-252.751,79.699-364.083,73.366c-198.237-11.28-394-72.826-558.8-167.425
		c-45.078-25.873-263.813-109.576-202.277-178.991c-29.51-16.161-14.844-44.892,2.761-64.522c4.812-5.365,17.634-6.94,21.095-11.292
		c3.663-4.605,0.396-11.937,3.093-14.881c9.88-10.787,9.92-20.073,27.047-24.953c-11.399-26.819,23.208-34.275,30.234-54.5
		c7.398-21.297-10.087-32.719,14.589-54.917c22.467-20.21,47.509-26.876,77.048-17.978c39.551,11.915,53.264,43.682,84.08,60.25
		c5.884,3.164,45.993-11.516,65.025-2.141c8.75,4.311,18.499,20.319,26.544,22.385c14.557,3.737,15.525-6.471,29.33-6.398
		c46.038,0.246,85.578,25.541,100.617,65.664c50.204-5.542,98.017,54.261,72.679,91.691c28.829-13.938,88.185-27.741,117.962-8.477
		c-2.507-37.158,54.598-75.431,93.78-57.337c-11.692-5.399,6.844-35.102,11.36-40.014c17.41-18.92,28.455-11.204,49.448-15.35
		C4399.915,415.668,4409.168,413.311,4417.971,411.115z"/>
	
		<linearGradient id="SVGID_12_" gradientUnits="userSpaceOnUse" x1="3307.9026" y1="-15.8173" x2="3870.3755" y2="-15.8173" gradientTransform="matrix(0.8487 0.4651 -0.4595 0.8385 824.2717 -1131.4412)">
		<stop  offset="0" style="stop-color:#FFFFFF"/>
		<stop  offset="1" style="stop-color:#44C8F5"/>
	</linearGradient>
	<path fill="url(#SVGID_12_)" d="M3771.482,625.565c63.823,66.143,182.986,96.977,277.485,69.141
		c89.848-26.465,142.295-155.359,71.299-221.425c-15.384-14.315-35.18-23.736-57.563-26.339
		c-7.003-0.815-72.619,8.317-69.098,12.899c-20.771-27.035-59.717-33.441-88.001-11.236
		c-19.244-35.364-58.876-55.572-102.725-46.395c-9.127-94.664-184.624-34.493-137.029,41.294
		c-28.049-5.464-52.376,16.524-45.963,40.091c-53.846-2.742-53.3,50.637-22.161,73.371c22.475,16.408,50.687,29.893,80.727,31.068
		C3729.838,590.042,3737.518,590.372,3771.482,625.565z"/>
	
		<linearGradient id="SVGID_13_" gradientUnits="userSpaceOnUse" x1="2819.2434" y1="262.4926" x2="3420.0115" y2="262.4926" gradientTransform="matrix(0.8487 0.4651 -0.4595 0.8385 824.2717 -1131.4412)">
		<stop  offset="0" style="stop-color:#44C8F5"/>
		<stop  offset="1" style="stop-color:#C6E9FA"/>
	</linearGradient>
	<path fill="url(#SVGID_13_)" d="M3537.501,740.828c128.177-65.298,150.423-287.703-33.888-288.291
		c-47.072-0.15-79.291,21.133-107.71,48.183c9.189-53.904-84.668-39.506-111.528-22.493c2.408-45.435-146.694-68.853-180.22-52.441
		c-73.943,36.194-60.898,109.581-5.81,152.907c64.764,50.934,136.806,97.086,215.394,130.65
		C3379.037,737.234,3467.74,776.37,3537.501,740.828z"/>
	
		<linearGradient id="SVGID_14_" gradientUnits="userSpaceOnUse" x1="2504.0129" y1="-631.5693" x2="4853.7642" y2="-631.5693" gradientTransform="matrix(1.4509 -0.43 0.4579 1.4795 -1513.521 3086.3906)">
		<stop  offset="0" style="stop-color:#FFFFFF"/>
		<stop  offset="1" style="stop-color:#44C8F5"/>
	</linearGradient>
	<path fill="url(#SVGID_14_)" d="M1766.572,869.273l3667.415-176.254c-45.901-21.171-147.345-100.141-174.023-52.67
		c-15.676-22.844-6.259-49.45-21.898-71.209c-11.161-15.53-31.867-26.426-53.315-20.356c-16.191,4.583-24.193,20.193-38.995,25.209
		c-11.566-12.692-31.496-21.589-37.659,1.661c-28.519-12.091-62.969,2.815-95.143-4.246
		c-193.704-42.507-195.698,96.115-195.698,96.115c14.345-19.696-27.643-12.385-28.88-29.988c-0.619-8.8,10.823-14.913,11.133-23.459
		c0.536-14.669-14.858-12.645-25.391-18.2c15.714-17.733-31.726-24.592-43.644-21.136c14.89-15.921-20.015-32.917-32.18-17.954
		c-0.577-9.195-14.415-13.674-23.552-9.69c-11.656,5.077-4.635,16.002-12.34,21.927c-4.914,3.776-17.642-0.932-23.94,7.355
		c-5.072,6.669-4.039,17.97,6.178,20.336c-11.24,12.852-26.8,13.023-42.937,5.791c-8.84-3.961-34.258-25.443-11.454-28.824
		c13.52-2.004,15.278,12.923,29.232-2.059c8.574-9.206,9.285-20.628-5.681-24.434c21.337-12.793,0.283-22.702-13.265-27.075
		c10.237-19.666-25.125-9.011-32.552-4.315c-10.064-57.758-91.116-31.719-114.347,6.749c-2.25,3.722-3.954,7.561-5.003,11.452
		c-59.207-51.898-220.603-48.623-200.63,49.182c-15.071-23.334-53.3-34.283-80.646-19.495c17.669-19.845-1.636-39.411-18.443-51.546
		c-33.145-23.932-50.39-14.217-84.887-7.006c-28.388,5.925-46.96-5.805-73.986,10.218c-19.458,11.534-40.84,35.93-40.517,57.422
		c-14.633-18.805-42.822-27.061-63.584-12.121c15.908-26.863-6.086-59.99-44.278-59.159c-4.91-38.866-81.046-63.369-116.2-44.955
		c-10.09,5.287-10.308,16.131-18.579,22.237c-9.166,6.763-20.624,7.262-30.442,15.537c-13.339,11.252-28.887,32.417-17.01,46.872
		c-46.341-21.836-101.009,44.555-83.633,81.104c-28.865-4.912-61.162-0.249-77.258,25.369c6.352-42.618-65.527-57.988-89.458-43.567
		c13.002-20.695,3.767-51.707,0.309-57.646c-17.537-30.138-60.772-49.158-97.723-51.907c-16.424-1.223-34.343-0.229-50.514,2.471
		c-27.386,4.574-50.16,21.53-58.193,44.159c5.807-14.052-19.041-29.41-30.323-35.52c-18.203-9.858-35.542-12.106-55.731-5.414
		c23.029-34.478-34-86.14-67.786-96.379c-21.344-6.468-49.722-1.807-67.407,11.277c-12.651,9.357-14.145,24.151-18.329,36.135
		c-4.089-5.435-21.85-9.319-29.249-9.327c-13.679-0.013-18.931,9.318-27.561,15.264c5.501-13.614-42.992-29.176-55.004-23.415
		c6.644-9.099-0.661-29.441-5.275-38.436c-8.51-16.591-27.202-27.932-45.547-35.631c-26.338-11.054-63.591,0.822-76.436,24.917
		c-2.618-17.133-27.555-35.69-42.783-44.595c-21.879-12.789-47.311-20.077-73.42-22.555c-49.473-4.694-109.005,38.036-99.41,85.95
		c-25.774-9.709-48.768-0.024-68.233,15.832c-89.91-43.018-142.143,7.603-167.521,49.578
		c-6.894-42.189-55.561-94.069-109.001-75.269C2163.945,393.585,1645.016,154.086,1766.572,869.273z"/>
</g>
</svg>
