<?xml version="1.0" encoding="utf-8"?>
<!-- Generator: Adobe Illustrator 17.0.0, SVG Export Plug-In . SVG Version: 6.00 Build 0)  -->
<!DOCTYPE svg PUBLIC "-//W3C//DTD SVG 1.1//EN" "http://www.w3.org/Graphics/SVG/1.1/DTD/svg11.dtd">
<svg version="1.1" xmlns="http://www.w3.org/2000/svg" xmlns:xlink="http://www.w3.org/1999/xlink" x="0px" y="0px" width="120px"
	 height="160px" viewBox="0 0 120 160" enable-background="new 0 0 120 160" xml:space="preserve">
<g id="Layer_1">
	<g id="Layer_13">
		<rect y="158" fill="#2B8E6A" width="120" height="2"/>
	</g>
	<g id="Layer_12" display="none">
		<path display="inline" fill="#D68C50" d="M25.131,68.735l0.641,5.961c0,0-3.837,2.635-6.172,1.579s-4.23-3.988-3.244-6.969
			s6.882-1.785,6.882-1.785L25.131,68.735z"/>
	</g>
	<g id="Layer_4" display="none">
		<path display="inline" fill="#AA2F29" d="M68.711,51.812c0,0-1.029-6.536-4.471-5.562s-3.043,1.936-3.043,1.936
			s-11.7,12.449-16.519,14.456s-16.666,6.492-19.547,6.092l0.641,5.961c0,0,13.294-2.139,20.394-5.503S61.697,60.724,68.711,51.812z
			"/>
	</g>
	<g id="Layer_6_1_">
		<g id="Layer_9_1_">
			<path fill="#2B2B2B" d="M47.329,150.646V158h19.234c0,0-4.225-6.146-11.371-7.315C48.227,149.545,47.329,150.646,47.329,150.646z
				"/>
		</g>
	</g>
	<g id="Layer_9">
		<path fill="#2B2B2B" d="M65,150.646V158h19.234c0,0-4.225-6.146-11.371-7.315C65.898,149.545,65,150.646,65,150.646z"/>
	</g>
	<g id="Layer_6">
		<path fill="#17575E" d="M79.333,89c0,0,3.292,41.875-7.42,62.625H63.5c0,0,11.195-36.292-7.399-51.819L55.875,87.42"/>
	</g>
	<g id="Layer_7">
		<path fill="#1D616D" d="M41,87.243c0,0,0,9.095,0,11.433s2.241,3.638,2.241,3.638s11.527,34.436,2.891,49.311h8.993
			c0,0,10.208-15.792,7.386-49.311l0.114-14.564L41,87.243z"/>
	</g>
	<g id="Layer_2_1_">
		<path fill="#17575E" d="M78.695,87.148l-6.82-0.024c0,0,0.153,11.638-8.027,14.84H75c0,0,3.723,0.036,3.695-3.047
			C78.667,95.833,78.695,87.148,78.695,87.148z"/>
		<path fill="#1D616D" d="M39,87.387v11.78c0,0,0.065,1.961,2.241,3.147h19.27c0,0,8.51-0.828,9.666-15.196L39,87.387z"/>
	</g>
	<g id="Layer_5">
		<polygon fill="#C0392B" points="57.749,35.285 67.515,37.667 73.925,42.333 79.333,52.5 79.333,62.308 79.333,76.75 79.333,89 
			65.397,89 		"/>
	</g>
	<g id="Layer_1_1_">
		<g>
			<path fill="#D68C50" d="M73.655,12.074l-0.12,15.657c0,0-1.19,7.27-2.435,9.545c-1.764,3.223-15.93,1.425-20.38-0.287
				s-4.681-3.312-5.936-6.709c-1.13-3.057-1.705-13.346-1.705-13.346l1.359-9.185l22.541-3.315l3.641-0.079
				C70.619,4.355,73.064,4.954,73.655,12.074z"/>
			<path fill="#232323" d="M54.867,17.123c0,0,0.554-1.123,1.266-1.123s4.591,0,4.591,0s1.187,0,1.346-1h-5.778
				C56.292,15,54.788,16.371,54.867,17.123z"/>
			<path fill="#B77748" d="M63.573,4.751c0,0,0.872,21.767,2.851,23.984c0,0-2.295,0.237-3.324,1.187
				c-1.029,0.95-3.493,5.138,0.544,7.354c0,0-3.09,0.798-10.451-2.209s-6.909-5.243-7.067-6.352c0,0-1.404,3.114,2.243,5.289
				c3.885,2.316,6.496,3.272,6.496,3.272s10.815,2.403,15.005,0.962c0,0,3.052-1.915,3.448-9.276l0.135-18.896
				c0,0-0.539-4.683-1.884-5.316S63.573,4.751,63.573,4.751z"/>
			<path fill="#232323" d="M65.632,17.123c0,0,0.554-1.123,1.266-1.123s4.591,0,4.591,0s1.187,0,1.346-1h-5.778
				C67.057,15,65.553,16.371,65.632,17.123z"/>
			<path fill="#232323" d="M61.121,18.998c0,0.743-0.62,1.346-1.385,1.346s-1.385-0.602-1.385-1.346s0.62-0.923,1.385-0.923
				S61.121,18.255,61.121,18.998z"/>
			<path fill="#232323" d="M70.619,18.998c0,0.743-0.62,1.346-1.385,1.346s-1.385-0.602-1.385-1.346s0.62-0.923,1.385-0.923
				C69.999,18.075,70.619,18.255,70.619,18.998z"/>
			<path fill="none" stroke="#9B633D" stroke-width="0.6332" stroke-miterlimit="10" d="M73.655,11.915l-0.12,15.815
				c0,0-1.19,7.27-2.435,9.545c-1.764,3.223-17.22,1.208-21.575-0.733c-3.769-1.68-3.29-3.036-4.741-6.262
				c-1.336-2.969-1.705-13.351-1.705-13.351l1.658-9.883l22.48-1.821l3.958-0.475C71.173,4.751,73.064,4.796,73.655,11.915z"/>
			<path fill="#F4F1EF" d="M59.226,31.853c0,0,6.404,1.264,8.289,0.087c0,0-1.099,0.827-3.362,1.152
				C64.154,33.092,61.473,33.117,59.226,31.853z"/>
			<path fill="#282828" stroke="#282828" stroke-width="0.6332" stroke-linecap="square" stroke-miterlimit="10" d="M43.876,11.469
				c-0.179,1.226-0.359,2.459-0.512,3.534c-0.197,1.386-0.497,4.207-0.497,4.207l-0.044,5.884l1.618,4.198
				c0,0,0.691-6.527,0.77-6.81c0.079-0.283-0.237-2.929,0.475-2.929s1.662,0.803,1.662,2.658c0,0-0.158,0.667-0.871,1.538
				l4.037,0.554c0,0-3.72-5.937-1.979-8.153c0,0,1.425-2.055,3.562-1.146c0,0-4.749-2.891-1.346-5.582c0,0,2.612-2.216,5.382-1.9
				c2.77,0.317,6.023,0.306,7.761,2.923c0,0,0.973-3.425,4.851-3.346s4.707,2.968,4.707,2.968s0.411-3.566-0.618-7.841
				c0,0-0.37,1.95-0.845,2.187c0,0-1.609-2.275-1.371-3.224l-0.396,2.454l-2.375-2.454c0,0,1.583,1.425,0.396,2.612
				c0,0-3.562-0.633-3.324-3.087c0,0,0.119,3.324-1.84,3.72c-1.959,0.396-2.197-2.691-1.405-2.929
				c0.792-0.237-3.324,1.266-4.195,3.72c0,0-2.091-0.95-1.775-3.324c0,0-2.342,2.454-1.471,3.324c0,0-0.396-2.675-2.691-3
				c0,0,1.425,1.496,0.396,2.604S48.93,1.346,48.93,1.346s-3.483,2.691-2.137,3.324c0,0-2.454-1.979-4.828-0.237
				c0,0,3.463,0.487,2.929,0.871L43.876,11.469z"/>
		</g>
		<path fill="#1E1E1E" d="M62.97,34.411l1.356,0.279l1.071-0.281c0,0-1.321,1.003-1.072,1.752
			C64.325,36.161,62.767,34.86,62.97,34.411z"/>
	</g>
	<g id="Layer_2">
		<path fill="#113042" d="M73.486,101.932l-5.235,8.443l-31.849,0.332V52.734c0,0,3.394-12.445,8.474-19.046
			c0,0-0.274-2.035-1.172-3.875l16.88,5.472c0.864,0.62,6.693,6.064,8.403,8.518c1.466,2.105,4.505,9.22,4.505,9.22"/>
		<path fill="#0A212D" d="M67.25,40.25"/>
		<path fill="#0A212D" d="M68.833,38.844c0,0,1.586,1.675,2.5,2.656c2.24,2.404,4.847,8.755,5.362,12c2.227,14.039,0,56.86,0,56.86
			h4.55l-0.068-56.279c0,0-2.692-12.859-8.932-19.442C72.303,37.465,68.833,38.844,68.833,38.844z"/>
	</g>
	<g id="Layer_11">
		<path fill="#D68C50" d="M46.96,84.992l-6.715-0.019c0,0-3.094,4.502-1.863,6.9c1.232,2.399,4.414,4.224,7.495,3.032
			c3.081-1.192,1.515-7.308,1.515-7.308L46.96,84.992z"/>
	</g>
	<g id="Layer_3" display="none">
		<path display="inline" fill="#E85049" d="M43.337,48.78c0,0,2.004-6.957,5.61-5.433c3.606,1.525,3.042,2.515,3.042,2.515
			s10.939,15.087,15.9,17.92s17.39,9.351,20.322,9.248l-1.504,6.386c0,0-14.069-4.108-21.322-8.724
			C58.13,66.076,49.745,59.409,43.337,48.78z"/>
	</g>
	<circle fill="#D3CC8C" cx="70.083" cy="65.75" r="1.25"/>
	<circle fill="#D3CC8C" cx="70.083" cy="76.75" r="1.25"/>
	<circle fill="#D3CC8C" cx="70.083" cy="87.75" r="1.25"/>
	<circle fill="#D3CC8C" cx="70.083" cy="98.75" r="1.25"/>
</g>
<g id="Layer_2_2_">
	<path fill="#153C4F" d="M41.965,39.616c0,0,13.457,4.054,10.785,9.884C48.167,59.5,50.5,85,50.5,85H35.167
		C35.167,85,30.737,44.165,41.965,39.616z"/>
	<g id="Layer_3_1_">
		<path fill="#153C4F" d="M37.021,87h14.247v12.964c0,0-10.648-0.908-12.351-2.631C38.093,96.5,36.8,91.416,37.021,87z"/>
	</g>
	<g id="Layer_4_1_">
		<circle fill="#D3CC8C" cx="70.083" cy="54.75" r="1.25"/>
	</g>
</g>
</svg>
