<?xml version="1.0" encoding="utf-8"?>
<!-- Generator: Adobe Illustrator 17.0.0, SVG Export Plug-In . SVG Version: 6.00 Build 0)  -->
<!DOCTYPE svg PUBLIC "-//W3C//DTD SVG 1.1//EN" "http://www.w3.org/Graphics/SVG/1.1/DTD/svg11.dtd">
<svg version="1.1" id="Layer_1" xmlns="http://www.w3.org/2000/svg" xmlns:xlink="http://www.w3.org/1999/xlink" x="0px" y="0px"
	 width="480px" height="320.167px" viewBox="0 0 480 320.167" enable-background="new 0 0 480 320.167" xml:space="preserve">
<path fill="#C98847" d="M88.454,94.264c0,0,23.411-27.118,13.296-50.193S79.643,16,79.643,16H52.459L36.678,28.523L19,43.97v14.856
	l14.24,35.398L88.454,94.264z"/>
<path fill="#C98847" d="M27.002,137.977c0,0,0.588,12.105,8.174,10.419c0,0,4.874-2.617,1.392-5.524
	c-3.492-2.916-1.488-4.871-1.488-4.871H27"/>
<path fill="#21201F" stroke="#21201F" stroke-miterlimit="10" d="M31.597,91.858c0,0-31.655-39.348-4.405-70.685l1.054,1.97
	l1.17-8.306l2.126,4.737l2.386-9.011l3.572,4.502V7.303l5.875,4.443l6.288-7.476l1.84,7.95l2.105-9.719l3.779,3.556l1.178-1.787
	l5.923,3.92l2.355-3.92l2.584,7.002L76.5,4.27v5.562l5-4.012v6.699l8.528-3.854l-0.727,8.06l5.199-0.948v5.277l1-0.062v3.539
	l4.135,0.728l-1.692,4.03c0,0,6.029,8.771,5.792,23.469L86.48,23.836l-8.272-4.741c0,0-4.52,7.349-11.38,8.06
	c0,0-6.38-0.237-12.306-6.875l-7.346,4.741L30.11,56.55l-1.659-12.801c0,0-5.89-1.42-8.771,2.134c0,0-2.133,5.452,2.371,6.401
	l3.793,0.474l-3.082,13.275L31.597,91.858z"/>
<path fill="#F2F2F2" d="M33.13,93.972l55.32-0.065c0,0,5.43,19.093-2.867,37.093h-47.19c0,0-0.695,4-0.458,8H25.749
	C25.749,139,24.533,117.49,33.13,93.972z"/>
<path fill="#21201F" d="M69.528,147.597l3.372,9.061l25.077-10.326c0,0-0.211-5.69-8.851-3.688l-7.586,2.9l-1.739-3.322
	L69.528,147.597z"/>
<path fill="#C98847" d="M88.178,135.479c0,0,1.739,10.589,5.057,9.009c3.319-1.58,3.477-6.954,3.161-9.009
	S88.178,135.479,88.178,135.479"/>
<path fill="#E5E3E3" d="M38.393,132c0,0-0.393-11.061,2.607-27.498V132H38.393z"/>
<path fill="#E5E3E3" d="M88.566,94.74c0,0,7.514,16.26,9.411,41.26H87v-7.159C87,128.841,92.612,112.836,88.566,94.74z"/>
<path fill="#2C3E50" d="M38.393,130.409c0,0-0.221,2.351-0.506,5.67c0,0,2.56,1.767,5.247,2.538l-1.422,3.611l10.747,2.086
	L53.882,140h12.96l2.687,7.433l10.273-5.292l-2.213-3.575c0,0,6.823-5.372,7.995-8.059L38.393,130.409z"/>
<path fill="#21201F" d="M41.861,141.851l10.724,2.259l-1.179,2.96c0,0,16.542,9.272,9.061,9.588s-14.962-1.37-14.962-1.37
	l-6.427-5.85L41.861,141.851z"/>
<path fill="#A06835" d="M25.749,45.866c0,0-3.319-0.851-4.583,1.313c0,0-0.632,3.428,4.583,3.744c0,0-3.568-1.795-2.687-3.082
	C23.062,47.842,23.171,46.512,25.749,45.866z"/>
<path fill="#A06835" d="M69.597,49.537L72.545,62h-7.126c0,0,4.518-0.936,4.518-2.596S69.597,49.537,69.597,49.537z"/>
<path fill="#21201F" d="M59.586,41.813c0,1.898-1.274,3.437-2.845,3.437s-2.845-1.539-2.845-3.437s1.274-2.664,2.845-2.664
	S59.586,39.915,59.586,41.813z"/>
<path fill="#21201F" d="M79.816,41.813c0,1.898-1.274,3.437-2.845,3.437s-2.845-1.539-2.845-3.437s1.274-2.664,2.845-2.664
	S79.816,39.915,79.816,41.813z"/>
<path fill="#EAE7E5" d="M79.327,72.815c0,0-2.371,2.739-5.426,3.424c-3.056,0.685-7.692,0.671-7.692,0.671l-7.586-1.428L53.882,73
	h15.172L79.327,72.815z"/>
<path fill="#A06835" d="M53.882,71H79v2H58.623C58.623,73,54.356,73,53.882,71z"/>
<path fill="#A06835" d="M53.882,72.05c0,0,1.475,1.949,6.103,3.872c0,0,3.011,1.331,5.697,1.331c0,0,5.769,0.186,7.566-0.627
	c0,0,5.341,0.374,6.553-3.626h-1.422c0,0-3.635,3.292-10.721,3.344C67.658,76.344,61.191,76.738,53.882,72.05z"/>
<line fill="none" stroke="#000000" stroke-width="1.5805" stroke-miterlimit="10" x1="56.229" y1="72.83" x2="56.229" y2="72.83"/>
<path fill="#C98847" d="M201.968,93.711c0,0,22.93-27.089,13.023-49.689S193.338,16,193.338,16h-26.626l-15.428,12.793L134,44.45
	v14.551l13.918,34.671L201.968,93.711z"/>
<path fill="#21201F" stroke="#21201F" stroke-width="2" stroke-miterlimit="10" d="M146.279,91.355c0,0-31.004-38.539-4.315-69.232
	l1.033,1.93l1.146-8.136l2.082,4.639l2.807-8.825L153,16.139V8.537l5.285,4.352l5.924-7.322l1.685,7.787l2.003-9.52l3.672,3.483
	l1.139-1.75l5.794,3.84l2.302-3.84l2.899,6.858L191,5.566v5.447l4-3.93v6.561l8.431-3.775l-1.118,7.894L207,16.836v5.169l1-0.06
	v3.466l4.485,0.713l-1.44,3.947c0,0,6.013,8.591,5.781,22.987L199.981,24.73l-8.074-4.644c0,0-4.413,7.198-11.133,7.894
	c0,0-6.242-0.232-12.047-6.733l-7.191,4.644l-16.714,30.881l-1.624-12.538c0,0-5.769-1.391-8.59,2.09c0,0-2.089,5.34,2.322,6.269
	l3.715,0.464l-3.018,13.003L146.279,91.355z"/>
<path fill="#A06835" d="M140.552,46.308c0,0-3.251-0.834-4.489,1.286c0,0-0.619,3.358,4.489,3.668c0,0-3.495-1.758-2.632-3.019
	C137.92,48.243,138.027,46.94,140.552,46.308z"/>
<path fill="#A06835" d="M183.498,50.348L186.386,63h-6.98c0,0,4.426-1.139,4.426-2.765S183.498,50.348,183.498,50.348z"/>
<path fill="#21201F" d="M173.693,42.338c0,1.859-1.247,3.367-2.786,3.367s-2.786-1.507-2.786-3.367c0-1.859,1.247-2.609,2.786-2.609
	S173.693,40.479,173.693,42.338z"/>
<path fill="#21201F" d="M193.508,42.338c0,1.859-1.247,3.367-2.786,3.367s-2.786-1.507-2.786-3.367c0-1.859,1.247-2.609,2.786-2.609
	S193.508,40.479,193.508,42.338z"/>
<path fill="#EAE7E5" d="M193.029,73.187c0,0-2.322,2.282-5.315,2.811s-7.534,0.601-7.534,0.601l-7.43-1.393L168.106,73h14.861
	L193.029,73.187z"/>
<path fill="#A06835" d="M168.106,72h24.745l0,0H172.75C172.75,72,168.57,72,168.106,72z"/>
<path fill="#A06835" d="M168.106,71.953c0,0,1.445,1.909,5.978,3.793c0,0,2.949,1.304,5.58,1.304c0,0,5.65-0.26,7.411-1.056
	c0,0,5.231,0.006,6.418-3.994H192.1c0,0-3.56,3.666-10.501,3.718C181.599,75.718,175.265,76.546,168.106,71.953z"/>
<path fill="#C98847" d="M141.89,134.272c0,0,0.52,12.004,7.951,10.353c0,0,4.746-2.784,1.336-5.632
	c-3.42-2.856-1.485-4.993-1.485-4.993H142"/>
<path fill="#C98847" d="M201.697,134.08c0,0,1.703,10.372,4.954,8.824c3.251-1.548,3.406-6.811,3.096-8.824
	C209.437,132.067,201.697,134.08,201.697,134.08"/>
<path fill="#F2F2F2" d="M147.781,93.651l54.184-0.022c0,0,5.318,18.372-2.808,36.372h-46.221c0,0-0.681,4-0.449,7h-11.935
	C140.552,137,139.36,116.685,147.781,93.651z"/>
<path fill="#E5E3E3" d="M152.936,130c0,0,0.064-10.162,3.064-26.261V130H152.936z"/>
<path fill="#E5E3E3" d="M202.306,93.883c0,0,7.132,15.117,8.989,40.117H201v-6.422C201,127.578,206.268,111.607,202.306,93.883z"/>
<path fill="#21201F" d="M199.438,130h-46.502l-0.501,5.814c0,0,2.566,1.206,4.566,1.361v18.421l33.572-0.048
	c0,0-0.553-5.009-9.893-6.454L168,146.309v-6.502l13-0.076v8.745c0,0,8.52,0.661,10.274,7.524h18.628c0,0,0.464-5.878-9.598-8.458
	l-8.411-3.919l-0.103-6.184C191.79,137.439,198.287,132,199.438,130z"/>
<path fill="#2C3E50" d="M181,143v-3.269l-13,0.076v3.715l-11-0.077v-6.269c-2-0.155-4.566-1.566-4.566-1.566l0.511-6.484
	l46.497,0.464c-1.151,2.786-7.65,7.332-7.65,7.332l0.101,6.077L181,143L181,143z"/>
<path fill="#C98847" d="M448.968,93.711c0,0,22.93-27.089,13.023-49.689C452.084,21.421,440.338,16,440.338,16h-26.626
	l-15.428,12.793L381,44.45v14.551l13.918,34.671L448.968,93.711z"/>
<path fill="#21201F" stroke="#21201F" stroke-width="2" stroke-miterlimit="10" d="M393.279,91.355c0,0-31.004-38.539-4.315-69.232
	l1.033,1.93l1.146-8.136l2.082,4.639l2.807-8.825L400,16.139V8.537l5.285,4.352l5.924-7.322l1.685,7.787l2.003-9.52l3.672,3.483
	l1.139-1.75l5.794,3.84l2.302-3.84l2.899,6.858L438,5.566v5.447l4-3.93v6.561l8.431-3.775l-1.118,7.894L454,16.836v5.169l1-0.06
	v3.466l4.485,0.713l-1.44,3.947c0,0,6.013,8.591,5.781,22.987L446.981,24.73l-8.074-4.644c0,0-4.414,7.198-11.133,7.894
	c0,0-6.242-0.232-12.047-6.733l-7.191,4.644l-16.714,30.881l-1.624-12.538c0,0-5.769-1.391-8.59,2.09c0,0-2.089,5.34,2.322,6.269
	l3.715,0.464l-3.018,13.003L393.279,91.355z"/>
<path fill="#A06835" d="M387.552,46.308c0,0-3.251-0.834-4.489,1.286c0,0-0.619,3.358,4.489,3.668c0,0-3.495-1.758-2.632-3.019
	C384.92,48.243,385.027,46.94,387.552,46.308z"/>
<path fill="#A06835" d="M430.498,50.348L433.386,63h-6.98c0,0,4.426-1.139,4.426-2.765S430.498,50.348,430.498,50.348z"/>
<path fill="#21201F" d="M420.693,42.338c0,1.859-1.247,3.367-2.786,3.367s-2.786-1.507-2.786-3.367c0-1.859,1.247-2.609,2.786-2.609
	C419.446,39.729,420.693,40.479,420.693,42.338z"/>
<path fill="#21201F" d="M440.508,42.338c0,1.859-1.247,3.367-2.786,3.367s-2.786-1.507-2.786-3.367c0-1.859,1.247-2.609,2.786-2.609
	S440.508,40.479,440.508,42.338z"/>
<path fill="#EAE7E5" d="M440.029,73.187c0,0-2.322,2.282-5.315,2.811s-7.534,0.601-7.534,0.601l-7.43-1.393L415.106,73h14.861
	L440.029,73.187z"/>
<path fill="#A06835" d="M415.106,72h24.745l0,0H419.75C419.75,72,415.57,72,415.106,72z"/>
<path fill="#A06835" d="M415.106,71.953c0,0,1.445,1.909,5.978,3.793c0,0,2.949,1.304,5.58,1.304c0,0,5.65-0.26,7.411-1.056
	c0,0,5.231,0.006,6.418-3.994H439.1c0,0-3.56,3.666-10.501,3.718C428.599,75.718,422.265,76.546,415.106,71.953z"/>
<path fill="#C98847" d="M388.89,134.272c0,0,0.52,12.004,7.951,10.353c0,0,4.746-2.784,1.336-5.632
	c-3.42-2.856-1.485-4.993-1.485-4.993H389"/>
<path fill="#C98847" d="M448.697,134.08c0,0,1.703,10.372,4.954,8.824c3.251-1.548,3.406-6.811,3.096-8.824
	S448.697,134.08,448.697,134.08"/>
<path fill="#F2F2F2" d="M394.781,93.651l54.184-0.022c0,0,5.318,18.372-2.808,36.372h-46.221c0,0-0.681,4-0.449,7h-11.935
	C387.552,137,386.36,116.685,394.781,93.651z"/>
<path fill="#E5E3E3" d="M399.936,130c0,0,0.064-10.162,3.064-26.261V130H399.936z"/>
<path fill="#E5E3E3" d="M449.306,93.883c0,0,7.132,15.117,8.989,40.117H448v-6.422C448,127.578,453.268,111.607,449.306,93.883z"/>
<path fill="#21201F" d="M446.438,130h-46.502l-0.501,5.814c0,0,2.566,1.206,4.566,1.361v18.421l33.572-0.048
	c0,0-0.553-5.009-9.893-6.454L415,146.309v-6.502l13-0.076v8.745c0,0,8.52,0.661,10.274,7.524h18.628c0,0,0.464-5.878-9.598-8.458
	l-8.411-3.919l-0.103-6.184C438.79,137.439,445.287,132,446.438,130z"/>
<path fill="#2C3E50" d="M428,143v-3.269l-13,0.076v3.715l-11-0.077v-6.269c-2-0.155-4.566-1.566-4.566-1.566l0.511-6.484
	l46.497,0.464c-1.151,2.786-7.65,7.332-7.65,7.332l0.101,6.077L428,143L428,143z"/>
<path fill="#C98847" d="M333.301,93.002c0,0,22.714-26.345,12.9-48.733C336.387,21.882,324.752,17,324.752,17h-26.375
	l-15.269,12.185L266,44.206V58.62l13.773,34.344L333.301,93.002z"/>
<path fill="#21201F" stroke="#21201F" stroke-miterlimit="10" d="M278.136,90.668c0,0-30.712-38.176-4.274-68.58L274.885,24
	l1.135-8.059l2.063,4.595l2.134-8.742l3.284,4.368V8.631l5.882,4.311l6.192-7.253l1.831,7.713l2.065-9.43l3.678,3.45l1.149-1.733
	l5.749,3.803l2.286-3.803l2.906,6.793l7.262-6.793v5.396l5-3.893v6.499l7.801-3.739l-1.275,7.82l4.475-0.92v5.12l2-0.06v3.433
	l3.83,0.707l-1.733,3.91c0,0,5.804,8.51,5.574,22.77l-16.763-28.06l-8.037-4.6c0,0-4.391,7.13-11.047,7.82
	c0,0-6.193-0.23-11.943-6.67l-7.128,4.6l-16.559,30.59l-1.61-12.42c0,0-5.715-1.378-8.51,2.07c0,0-2.07,5.29,2.3,6.21l3.68,0.46
	l-2.99,12.88L278.136,90.668z"/>
<path fill="#A06835" d="M272.463,46.046c0,0-3.22-0.826-4.447,1.274c0,0-0.613,3.326,4.447,3.633c0,0-3.462-1.741-2.607-2.99
	C269.856,47.963,269.962,46.672,272.463,46.046z"/>
<path fill="#A06835" d="M315.005,49.758L317.865,62h-6.914c0,0,4.384-0.983,4.384-2.593S315.005,49.758,315.005,49.758z"/>
<path fill="#21201F" d="M305.292,42.114c0,1.842-1.236,3.335-2.76,3.335s-2.76-1.493-2.76-3.335s1.236-2.584,2.76-2.584
	S305.292,40.272,305.292,42.114z"/>
<path fill="#21201F" d="M324.92,42.114c0,1.842-1.236,3.335-2.76,3.335s-2.76-1.493-2.76-3.335s1.236-2.584,2.76-2.584
	S324.92,40.272,324.92,42.114z"/>
<path fill="#EAE7E5" d="M324.445,72.006c0,0-2.3,2.75-5.265,3.415c-2.965,0.664-7.463,0.698-7.463,0.698l-7.36-1.548l-4.6-2.57
	h14.721L324.445,72.006z"/>
<path fill="#A06835" d="M299.757,71H324v1h-19.642C304.358,72,300.217,72,299.757,71z"/>
<path fill="#A06835" d="M299.757,71.45c0,0,1.431,1.891,5.922,3.757c0,0,2.921,1.292,5.528,1.292c0,0,5.597-0.005,7.341-0.794
	c0,0,5.182,0.296,6.358-3.704h-1.38c0,0-3.527,3.379-10.402,3.43C313.124,75.43,306.849,75.999,299.757,71.45z"/>
<line fill="none" stroke="#000000" stroke-width="1.5334" stroke-miterlimit="10" x1="302.034" y1="71.996" x2="302.034" y2="71.996"/>
<path fill="#C98847" d="M273.34,133.225c0,0,0.74,11.869,8.1,10.233c0,0,4.814-2.725,1.435-5.546
	c-3.388-2.829-1.359-4.912-1.359-4.912H273"/>
<path fill="#C98847" d="M333.032,132.99c0,0,1.687,10.274,4.907,8.74c3.22-1.533,3.373-6.747,3.067-8.74
	S333.032,132.99,333.032,132.99"/>
<path fill="#F2F2F2" d="M279.624,93.501l53.673-0.276c0,0,5.268,17.775-2.782,35.775H284.73c0,0-0.675,4-0.445,8h-11.823
	C272.463,137,271.282,116.319,279.624,93.501z"/>
<path fill="#E5E3E3" d="M284.73,129c0,0,0.27-10.117,2.27-26.065V129H284.73z"/>
<path fill="#E5E3E3" d="M333.464,93.217c0,0,7.235,15.783,9.075,39.783H332v-6.45C332,126.55,337.389,110.774,333.464,93.217z"/>
<path fill="#2C3E50" d="M284.73,129.003c0,0-0.89,5.367-0.445,7.054l23.369,12.267l2.607,1.993l5.904-7.514l-12.467-8.28
	l0.821-0.285l11.289,7.39c0,0,8-4.089,14.708-12.472L284.73,129.003z"/>
<polygon fill="#2C3E50" points="295.237,142.105 306,148.069 306,148 293.47,148 "/>
<path fill="#21201F" d="M310.261,150.318l5.904-7.514l1.942,1.687c0,0,7.551-6.506,11.756-6.849c0,0,2.556,3.016,1.789,5.086
	c-0.767,2.07-12.727,13.315-12.727,13.315L310.261,150.318z"/>
<polygon fill="#21201F" points="294,149.244 294,156 317.468,156 309.277,150.568 305.146,149.084 "/>
<polygon fill="#2A82A8" points="56.5,94.74 74,94.74 70,100.875 74,125.875 68.375,128.625 62.25,126.125 65.25,101.5 "/>
<polygon fill="#E5E3E3" points="33.13,93.972 57.942,99.333 66.841,94.248 73.5,99.333 88.45,93.907 "/>
<polygon fill="#2A82A8" points="170.689,94.156 188.189,94.156 184.189,100.292 188.189,125.292 182.564,128.042 176.439,125.542 
	179.439,100.917 "/>
<polygon fill="#E5E3E3" points="147.319,93.389 172.132,98.75 181.031,93.665 187.689,98.75 202.639,93.324 "/>
<polygon fill="#2A82A8" points="301.5,93.74 319,93.74 315,99.875 319,124.875 313.375,127.625 307.25,125.125 310.25,100.5 "/>
<polygon fill="#E5E3E3" points="278.13,92.972 302.942,98.333 311.841,93.248 318.5,98.333 333.45,92.907 "/>
<polygon fill="#2A82A8" points="417.5,94.74 435,94.74 431,100.875 435,125.875 429.375,128.625 423.25,126.125 426.25,101.5 "/>
<polygon fill="#E5E3E3" points="394.13,93.972 418.942,99.333 427.841,94.248 434.5,99.333 449.45,93.907 "/>
<path fill="#C98847" d="M449.886,254.693l14.24-35.398v-14.856l-17.678-15.447l-15.781-12.523h-27.184
	c0,0-11.992,4.996-22.107,28.071c-10.115,23.075,13.296,50.193,13.296,50.193L449.886,254.693z"/>
<path fill="#C98847" d="M456.126,298.47h-8.08c0,0,2.004,1.955-1.488,4.871c-3.482,2.907,1.392,5.524,1.392,5.524
	c7.586,1.686,8.174-10.419,8.174-10.419"/>
<path fill="#21201F" stroke="#21201F" stroke-miterlimit="10" d="M460.364,226.502l-3.082-13.275l3.793-0.474
	c4.504-0.949,2.371-6.401,2.371-6.401c-2.881-3.554-8.771-2.134-8.771-2.134l-1.659,12.801L435.95,185.49l-7.346-4.741
	c-5.926,6.638-12.306,6.875-12.306,6.875c-6.86-0.711-11.38-8.06-11.38-8.06l-8.272,4.741l-17.255,28.922
	c-0.237-14.698,5.792-23.469,5.792-23.469l-1.692-4.03l4.135-0.728v-3.539l1,0.062v-5.277l5.199,0.948l-0.727-8.06l8.528,3.854
	v-6.699l5,4.012v-5.562l7.073,7.002l2.584-7.002l2.355,3.92l5.923-3.92l1.178,1.787l3.779-3.556l2.105,9.719l1.84-7.95l6.288,7.476
	l5.875-4.443v7.762l3.572-4.502l2.386,9.011l2.126-4.737l1.17,8.306l1.054-1.97c27.25,31.337-4.405,70.685-4.405,70.685
	L460.364,226.502z"/>
<path fill="#F2F2F2" d="M457.377,299.469h-12.186c0.237-4-0.458-8-0.458-8h-47.19c-8.297-18-2.867-37.093-2.867-37.093l55.32,0.065
	C458.593,277.959,457.377,299.469,457.377,299.469z"/>
<path fill="#21201F" d="M403.325,302.691l-1.739,3.322l-7.586-2.9c-8.64-2.002-8.851,3.688-8.851,3.688l25.077,10.326l3.372-9.061
	L403.325,302.691z"/>
<path fill="#C98847" d="M394.948,295.948c0,0-7.902-2.055-8.218,0c-0.316,2.055-0.158,7.429,3.161,9.009
	C393.209,306.537,394.948,295.948,394.948,295.948"/>
<path fill="#E5E3E3" d="M442.126,292.469v-27.498c3,16.437,2.607,27.498,2.607,27.498H442.126z"/>
<path fill="#E5E3E3" d="M396.126,289.31v7.159h-10.977c1.897-25,9.411-41.26,9.411-41.26
	C390.514,273.305,396.126,289.31,396.126,289.31z"/>
<path fill="#2C3E50" d="M397.542,290.976c1.172,2.687,7.995,8.059,7.995,8.059l-2.213,3.575l10.273,5.292l2.687-7.433h12.96
	l1.423,4.314l10.747-2.086l-1.422-3.611c2.687-0.771,5.247-2.538,5.247-2.538c-0.285-3.319-0.506-5.67-0.506-5.67L397.542,290.976z"
	/>
<path fill="#21201F" d="M444.048,309.907l-6.427,5.85c0,0-7.481,1.686-14.962,1.37c-7.481-0.316,9.061-9.588,9.061-9.588
	l-1.179-2.96l10.724-2.259L444.048,309.907z"/>
<path fill="#A06835" d="M460.064,208.31c0.881,1.287-2.687,3.082-2.687,3.082c5.215-0.316,4.583-3.744,4.583-3.744
	c-1.264-2.164-4.583-1.313-4.583-1.313C459.955,206.981,460.064,208.311,460.064,208.31z"/>
<path fill="#A06835" d="M413.189,219.873c0,1.66,4.518,2.596,4.518,2.596h-7.126l2.948-12.463
	C413.529,210.006,413.189,218.213,413.189,219.873z"/>
<path fill="#21201F" d="M426.385,199.618c1.571,0,2.845,0.766,2.845,2.664s-1.274,3.437-2.845,3.437
	c-1.571,0-2.845-1.539-2.845-3.437S424.814,199.618,426.385,199.618z"/>
<path fill="#21201F" d="M406.155,199.618c1.571,0,2.845,0.766,2.845,2.664s-1.274,3.437-2.845,3.437
	c-1.571,0-2.845-1.539-2.845-3.437S404.584,199.618,406.155,199.618z"/>
<path fill="#EAE7E5" d="M414.072,233.469h15.172l-4.741,2.482l-7.586,1.428c0,0-4.636,0.014-7.692-0.671
	c-3.055-0.685-5.426-3.424-5.426-3.424L414.072,233.469z"/>
<path fill="#A06835" d="M424.503,233.469h-20.377v-2h25.118C428.77,233.469,424.503,233.469,424.503,233.469z"/>
<path fill="#A06835" d="M415.468,236.813c-7.086-0.052-10.721-3.344-10.721-3.344h-1.422c1.212,4,6.553,3.626,6.553,3.626
	c1.797,0.813,7.566,0.627,7.566,0.627c2.686,0,5.697-1.331,5.697-1.331c4.628-1.923,6.103-3.872,6.103-3.872
	C421.935,237.207,415.468,236.813,415.468,236.813z"/>
<line fill="none" stroke="#000000" stroke-width="1.5805" stroke-miterlimit="10" x1="426.897" y1="233.299" x2="426.897" y2="233.299"/>
<path fill="#C98847" d="M335.208,254.141l13.918-34.671v-14.551l-17.284-15.657l-15.428-12.793h-26.626
	c0,0-11.746,5.422-21.653,28.022s13.023,49.689,13.023,49.689L335.208,254.141z"/>
<path fill="#21201F" stroke="#21201F" stroke-width="2" stroke-miterlimit="10" d="M345.499,226.529l-3.018-13.003l3.715-0.464
	c4.411-0.929,2.322-6.269,2.322-6.269c-2.821-3.481-8.59-2.09-8.59-2.09l-1.624,12.538L321.59,186.36l-7.191-4.644
	c-5.805,6.501-12.047,6.733-12.047,6.733c-6.72-0.696-11.133-7.894-11.133-7.894l-8.074,4.644L266.3,213.527
	c-0.232-14.396,5.781-22.987,5.781-22.987l-1.44-3.947l4.485-0.713v-3.466l1,0.06v-5.169l4.687,0.927l-1.118-7.894l8.431,3.775
	v-6.561l4,3.93v-5.447l7.297,6.859l2.899-6.858l2.302,3.84l5.794-3.84l1.139,1.75l3.672-3.483l2.003,9.52l1.685-7.787l5.924,7.322
	l5.285-4.352v7.602l3.968-4.408l2.807,8.825l2.082-4.639l1.146,8.136l1.033-1.93c26.689,30.693-4.315,69.232-4.315,69.232
	L345.499,226.529z"/>
<path fill="#A06835" d="M345.206,208.712c0.863,1.261-2.632,3.019-2.632,3.019c5.108-0.31,4.489-3.668,4.489-3.668
	c-1.238-2.12-4.489-1.286-4.489-1.286C345.099,207.409,345.206,208.712,345.206,208.712z"/>
<path fill="#A06835" d="M299.294,220.704c0,1.626,4.426,2.765,4.426,2.765h-6.98l2.888-12.652
	C299.628,210.817,299.294,219.078,299.294,220.704z"/>
<path fill="#21201F" d="M312.219,200.198c1.539,0,2.786,0.75,2.786,2.609c0,1.86-1.247,3.367-2.786,3.367s-2.786-1.508-2.786-3.367
	C309.433,200.948,310.68,200.198,312.219,200.198z"/>
<path fill="#21201F" d="M292.404,200.198c1.539,0,2.786,0.75,2.786,2.609c0,1.86-1.247,3.367-2.786,3.367s-2.786-1.508-2.786-3.367
	C289.618,200.948,290.865,200.198,292.404,200.198z"/>
<path fill="#EAE7E5" d="M300.159,233.469h14.861l-4.644,2.206l-7.43,1.393c0,0-4.541-0.072-7.534-0.601
	c-2.993-0.529-5.315-2.811-5.315-2.811L300.159,233.469z"/>
<path fill="#A06835" d="M310.376,232.469h-20.101l0,0h24.745C314.556,232.469,310.376,232.469,310.376,232.469z"/>
<path fill="#A06835" d="M301.527,236.187c-6.941-0.052-10.501-3.718-10.501-3.718h-1.393c1.187,4,6.418,3.994,6.418,3.994
	c1.761,0.796,7.411,1.056,7.411,1.056c2.631,0,5.58-1.304,5.58-1.304c4.533-1.884,5.978-3.793,5.978-3.793
	C307.861,237.015,301.527,236.187,301.527,236.187z"/>
<path fill="#C98847" d="M341.126,294.469h-7.692c0,0,1.935,2.137-1.485,4.993c-3.41,2.848,1.336,5.632,1.336,5.632
	c7.431,1.651,7.951-10.353,7.951-10.353"/>
<path fill="#C98847" d="M281.429,294.549c0,0-7.74-2.013-8.05,0s-0.155,7.276,3.096,8.824
	C279.726,304.921,281.429,294.549,281.429,294.549"/>
<path fill="#F2F2F2" d="M342.574,297.47h-11.935c0.232-3-0.449-7-0.449-7h-46.221c-8.126-18-2.808-36.372-2.808-36.372l54.184,0.022
	C343.766,277.154,342.574,297.469,342.574,297.47z"/>
<path fill="#E5E3E3" d="M327.126,290.469v-26.261c3,16.099,3.064,26.261,3.064,26.261H327.126z"/>
<path fill="#E5E3E3" d="M282.126,288.047v6.422h-10.295c1.857-25,8.989-40.117,8.989-40.117
	C276.858,272.076,282.126,288.047,282.126,288.047z"/>
<path fill="#21201F" d="M291.336,297.908l-0.103,6.184l-8.411,3.919c-10.062,2.58-9.598,8.458-9.598,8.458h18.628
	c1.754-6.863,10.274-7.524,10.274-7.524V300.2l13,0.076v6.502l-12.68,2.785c-9.34,1.445-9.893,6.454-9.893,6.454l33.572,0.048
	v-18.421c2-0.155,4.566-1.361,4.566-1.361l-0.501-5.814h-46.502C284.839,292.469,291.336,297.908,291.336,297.908z"/>
<path fill="#2C3E50" d="M302.126,303.469l-10.893-0.001l0.101-6.077c0,0-6.499-4.546-7.65-7.332l46.497-0.464l0.511,6.484
	c0,0-2.566,1.411-4.566,1.566v6.269l-11,0.077v-3.715l-13-0.076V303.469L302.126,303.469z"/>
<path fill="#C98847" d="M88.208,254.141l13.918-34.671v-14.551l-17.284-15.657l-15.428-12.793H42.788
	c0,0-11.746,5.421-21.653,28.022c-9.907,22.6,13.023,49.689,13.023,49.689L88.208,254.141z"/>
<path fill="#21201F" stroke="#21201F" stroke-width="2" stroke-miterlimit="10" d="M98.499,226.529l-3.018-13.003l3.715-0.464
	c4.411-0.929,2.322-6.269,2.322-6.269c-2.821-3.481-8.59-2.09-8.59-2.09l-1.624,12.538L74.59,186.36l-7.191-4.644
	c-5.805,6.501-12.047,6.733-12.047,6.733c-6.719-0.696-11.133-7.894-11.133-7.894l-8.074,4.644L19.3,213.527
	c-0.232-14.396,5.781-22.987,5.781-22.987l-1.44-3.947l4.485-0.713v-3.466l1,0.06v-5.169l4.687,0.927l-1.118-7.894l8.431,3.775
	v-6.561l4,3.93v-5.447l7.297,6.859l2.899-6.858l2.302,3.84l5.794-3.84l1.139,1.75l3.672-3.483l2.003,9.52l1.685-7.787l5.924,7.322
	l5.285-4.352v7.602l3.968-4.408l2.807,8.825l2.082-4.639l1.146,8.136l1.033-1.93c26.689,30.693-4.315,69.232-4.315,69.232
	L98.499,226.529z"/>
<path fill="#A06835" d="M98.206,208.712c0.863,1.261-2.632,3.019-2.632,3.019c5.108-0.31,4.489-3.668,4.489-3.668
	c-1.238-2.12-4.489-1.286-4.489-1.286C98.099,207.409,98.206,208.712,98.206,208.712z"/>
<path fill="#A06835" d="M52.294,220.704c0,1.626,4.426,2.765,4.426,2.765h-6.98l2.888-12.652
	C52.628,210.817,52.294,219.078,52.294,220.704z"/>
<path fill="#21201F" d="M65.219,200.198c1.539,0,2.786,0.75,2.786,2.609c0,1.86-1.247,3.367-2.786,3.367s-2.786-1.508-2.786-3.367
	C62.433,200.948,63.68,200.198,65.219,200.198z"/>
<path fill="#21201F" d="M45.404,200.198c1.539,0,2.786,0.75,2.786,2.609c0,1.86-1.247,3.367-2.786,3.367s-2.786-1.508-2.786-3.367
	C42.618,200.948,43.865,200.198,45.404,200.198z"/>
<path fill="#EAE7E5" d="M53.159,233.469H68.02l-4.644,2.206l-7.43,1.393c0,0-4.541-0.072-7.534-0.601
	c-2.993-0.529-5.315-2.811-5.315-2.811L53.159,233.469z"/>
<path fill="#A06835" d="M63.376,232.469H43.275l0,0H68.02C67.556,232.469,63.376,232.469,63.376,232.469z"/>
<path fill="#A06835" d="M54.527,236.187c-6.941-0.052-10.501-3.718-10.501-3.718h-1.393c1.187,4,6.418,3.994,6.418,3.994
	c1.761,0.796,7.411,1.056,7.411,1.056c2.631,0,5.58-1.304,5.58-1.304c4.533-1.884,5.978-3.793,5.978-3.793
	C60.861,237.015,54.527,236.187,54.527,236.187z"/>
<path fill="#C98847" d="M94.126,294.469h-7.692c0,0,1.935,2.137-1.485,4.993c-3.41,2.848,1.336,5.632,1.336,5.632
	c7.431,1.651,7.951-10.353,7.951-10.353"/>
<path fill="#C98847" d="M34.429,294.549c0,0-7.74-2.013-8.05,0s-0.155,7.276,3.096,8.824
	C32.726,304.921,34.429,294.549,34.429,294.549"/>
<path fill="#F2F2F2" d="M95.574,297.47H83.639c0.232-3-0.449-7-0.449-7H36.969c-8.126-18-2.808-36.372-2.808-36.372l54.184,0.022
	C96.766,277.154,95.574,297.469,95.574,297.47z"/>
<path fill="#E5E3E3" d="M80.126,290.469v-26.261c3,16.099,3.064,26.261,3.064,26.261H80.126z"/>
<path fill="#E5E3E3" d="M35.126,288.047v6.422H24.831c1.857-25,8.989-40.117,8.989-40.117
	C29.858,272.076,35.126,288.047,35.126,288.047z"/>
<path fill="#21201F" d="M44.336,297.908l-0.103,6.184l-8.411,3.919c-10.062,2.58-9.598,8.458-9.598,8.458h18.628
	c1.754-6.863,10.274-7.524,10.274-7.524V300.2l13,0.076v6.502l-12.68,2.785c-9.34,1.445-9.893,6.454-9.893,6.454l33.572,0.048
	v-18.421c2-0.155,4.566-1.361,4.566-1.361l-0.501-5.814H36.688C37.839,292.469,44.336,297.908,44.336,297.908z"/>
<path fill="#2C3E50" d="M55.126,303.469l-10.893-0.001l0.101-6.077c0,0-6.499-4.546-7.65-7.332l46.497-0.464l0.511,6.484
	c0,0-2.566,1.411-4.566,1.566v6.269l-11,0.077v-3.715l-13-0.076V303.469L55.126,303.469z"/>
<path fill="#C98847" d="M203.353,253.433l13.773-34.344v-14.414l-17.108-15.021l-15.269-12.185h-26.375
	c0,0-11.635,4.882-21.449,27.269c-9.814,22.388,12.9,48.733,12.9,48.733L203.353,253.433z"/>
<path fill="#21201F" stroke="#21201F" stroke-miterlimit="10" d="M213.56,226.081l-2.99-12.88l3.68-0.46
	c4.37-0.92,2.3-6.21,2.3-6.21c-2.795-3.448-8.51-2.07-8.51-2.07l-1.61,12.42l-16.559-30.59l-7.128-4.6
	c-5.75,6.44-11.943,6.67-11.943,6.67c-6.656-0.69-11.047-7.82-11.047-7.82l-8.037,4.6l-16.763,28.06
	c-0.23-14.26,5.574-22.77,5.574-22.77l-1.733-3.91l3.83-0.707v-3.433l2,0.06v-5.12l4.475,0.92l-1.275-7.82l7.801,3.739v-6.499
	l5,3.893v-5.396l7.262,6.793l2.906-6.793l2.286,3.803l5.749-3.803l1.149,1.733l3.678-3.45l2.065,9.43l1.831-7.713l6.192,7.253
	l5.882-4.311v7.531l3.284-4.368l2.134,8.742l2.063-4.595l1.135,8.059l1.023-1.912c26.438,30.404-4.274,68.58-4.274,68.58
	L213.56,226.081z"/>
<path fill="#A06835" d="M213.27,208.432c0.855,1.249-2.607,2.99-2.607,2.99c5.06-0.307,4.447-3.633,4.447-3.633
	c-1.227-2.1-4.447-1.274-4.447-1.274C213.164,207.141,213.27,208.432,213.27,208.432z"/>
<path fill="#A06835" d="M167.791,219.876c0,1.61,4.384,2.593,4.384,2.593h-6.914l2.86-12.242
	C168.121,210.227,167.791,218.266,167.791,219.876z"/>
<path fill="#21201F" d="M180.594,199.999c1.524,0,2.76,0.742,2.76,2.584s-1.236,3.335-2.76,3.335s-2.76-1.493-2.76-3.335
	S179.07,199.999,180.594,199.999z"/>
<path fill="#21201F" d="M160.966,199.999c1.524,0,2.76,0.742,2.76,2.584s-1.236,3.335-2.76,3.335s-2.76-1.493-2.76-3.335
	S159.442,199.999,160.966,199.999z"/>
<path fill="#EAE7E5" d="M168.648,232.47h14.721l-4.6,2.57l-7.36,1.548c0,0-4.498-0.034-7.463-0.698
	c-2.965-0.665-5.265-3.415-5.265-3.415L168.648,232.47z"/>
<path fill="#A06835" d="M178.768,232.469h-19.642v-1h24.243C182.909,232.469,178.768,232.469,178.768,232.469z"/>
<path fill="#A06835" d="M170.002,235.9c-6.875-0.051-10.402-3.43-10.402-3.43h-1.38c1.176,4,6.358,3.704,6.358,3.704
	c1.744,0.789,7.341,0.794,7.341,0.794c2.607,0,5.528-1.292,5.528-1.292c4.491-1.866,5.922-3.757,5.922-3.757
	C176.277,236.468,170.002,235.899,170.002,235.9z"/>
<line fill="none" stroke="#000000" stroke-width="1.5334" stroke-miterlimit="10" x1="181.092" y1="232.465" x2="181.092" y2="232.465"/>
<path fill="#C98847" d="M210.126,293.469h-8.516c0,0,2.029,2.083-1.359,4.912c-3.379,2.821,1.435,5.546,1.435,5.546
	c7.36,1.636,8.1-10.233,8.1-10.233"/>
<path fill="#C98847" d="M150.094,293.459c0,0-7.668-1.993-7.974,0s-0.153,7.207,3.067,8.74
	C148.407,303.733,150.094,293.459,150.094,293.459"/>
<path fill="#F2F2F2" d="M210.664,297.469h-11.823c0.23-4-0.445-8-0.445-8h-45.785c-8.05-18-2.782-35.775-2.782-35.775l53.673,0.276
	C211.844,276.788,210.663,297.469,210.664,297.469z"/>
<path fill="#E5E3E3" d="M196.126,289.469v-26.065c2,15.948,2.27,26.065,2.27,26.065H196.126z"/>
<path fill="#E5E3E3" d="M151.126,287.019v6.45h-10.539c1.84-24,9.075-39.783,9.075-39.783
	C145.737,271.243,151.126,287.019,151.126,287.019z"/>
<path fill="#2C3E50" d="M152.61,289.625c6.708,8.383,14.708,12.472,14.708,12.472l11.289-7.39l0.821,0.285l-12.467,8.28l5.904,7.514
	l2.607-1.993l23.369-12.267c0.445-1.687-0.445-7.054-0.445-7.054L152.61,289.625z"/>
<polygon fill="#2C3E50" points="189.656,308.469 177.126,308.469 177.126,308.538 187.889,302.574 "/>
<path fill="#21201F" d="M164.201,316.512c0,0-11.96-11.245-12.727-13.315s1.789-5.086,1.789-5.086
	c4.205,0.343,11.756,6.849,11.756,6.849l1.942-1.687l5.904,7.514L164.201,316.512z"/>
<polygon fill="#21201F" points="177.98,309.553 173.849,311.037 165.658,316.469 189.126,316.469 189.126,309.713 "/>
<polygon fill="#2A82A8" points="417.876,261.969 420.876,286.594 414.751,289.094 409.126,286.344 413.126,261.344 409.126,255.209 
	426.626,255.209 "/>
<polygon fill="#E5E3E3" points="394.676,254.376 409.626,259.802 416.285,254.717 425.184,259.802 449.996,254.441 "/>
<polygon fill="#2A82A8" points="303.687,261.386 306.687,286.011 300.562,288.511 294.937,285.761 298.937,260.761 294.937,254.625 
	312.437,254.625 "/>
<polygon fill="#E5E3E3" points="280.487,253.793 295.437,259.219 302.095,254.134 310.994,259.219 335.807,253.858 "/>
<polygon fill="#2A82A8" points="172.876,260.969 175.876,285.594 169.751,288.094 164.126,285.344 168.126,260.344 164.126,254.209 
	181.626,254.209 "/>
<polygon fill="#E5E3E3" points="149.676,253.376 164.626,258.802 171.285,253.717 180.184,258.802 204.996,253.441 "/>
<polygon fill="#2A82A8" points="56.876,261.969 59.876,286.594 53.751,289.094 48.126,286.344 52.126,261.344 48.126,255.209 
	65.626,255.209 "/>
<polygon fill="#E5E3E3" points="33.676,254.376 48.626,259.802 55.285,254.717 64.184,259.802 88.996,254.441 "/>
</svg>
