<?xml version="1.0" encoding="utf-8"?>
<!-- Generator: Adobe Illustrator 17.0.0, SVG Export Plug-In . SVG Version: 6.00 Build 0)  -->
<!DOCTYPE svg PUBLIC "-//W3C//DTD SVG 1.1//EN" "http://www.w3.org/Graphics/SVG/1.1/DTD/svg11.dtd">
<svg version="1.1" xmlns="http://www.w3.org/2000/svg" xmlns:xlink="http://www.w3.org/1999/xlink" x="0px" y="0px" width="429px"
	 height="602.333px" viewBox="-192 0 429 602.333" enable-background="new -192 0 429 602.333" xml:space="preserve">
<g id="Layer_2">
	<path fill="none" stroke="#4B4F4F" stroke-width="2.0148" stroke-miterlimit="10" d="M3.591,566.098
		c0,5.064,4.045,9.168,9.035,9.168l0,0c4.99,0,9.035-4.105,9.035-9.168V81.036c0-5.064-4.045-9.168-9.035-9.168l0,0
		c-4.99,0-9.035,4.105-9.035,9.168C3.591,81.036,3.591,566.098,3.591,566.098z"/>
	
		<line fill="none" stroke="#ECF0F1" stroke-width="16.2505" stroke-miterlimit="10" x1="22.084" y1="583.333" x2="22.661" y2="60.678"/>
	<ellipse fill="#ECF0F1" cx="22.563" cy="42.943" rx="11.354" ry="11.712"/>
	
		<line fill="none" stroke="#DDDDDD" stroke-width="8.1252" stroke-miterlimit="10" x1="27.084" y1="583.333" x2="27.661" y2="60.678"/>
	<path fill="#DDDDDD" d="M23.646,31.231C29.917,31.231,35,36.474,35,42.943s-5.083,11.712-11.354,11.712"/>
	<path fill="#27AE60" d="M-192,602.333c0,0,33.333-19,36.915-30.81c4.063-13.395,174.055-48.883,174.055-48.883l174.053,48.883
		c0,0,32.977,29.477,43.977,30.81l-218.029,3.833L-192,602.333z"/>
</g>
<g id="Layer_1">
	<g>
		<g>
			<path fill="#CEBEAE" d="M67.718,274.566c0,0,23.426-12.062,46.803-20.187l7.178,60.112L55.457,292.66L67.718,274.566z"/>
		</g>
		<g>
			<path fill="#7F7570" d="M121.699,317.482c-0.315,0-0.63-0.049-0.936-0.149L54.52,295.501c-0.891-0.294-1.592-0.988-1.895-1.876
				c-0.302-0.888-0.172-1.866,0.355-2.643l12.262-18.093c0.281-0.414,0.661-0.752,1.107-0.981
				c0.236-0.121,23.884-12.252,47.191-20.353c0.853-0.297,1.798-0.191,2.567,0.29c0.767,0.479,1.277,1.283,1.385,2.181l7.133,59.736
				c0.059,0.234,0.089,0.478,0.089,0.73c0,1.652-1.339,2.991-2.991,2.991C121.717,317.482,121.708,317.482,121.699,317.482z
				 M60.154,291.059l58.019,19.122l-6.177-51.728c-19.528,7.106-38.469,16.527-42.235,18.431L60.154,291.059z"/>
		</g>
	</g>
	<path fill="#CEBEAE" d="M183.306,316.884c0,0-17.869,5.458-35.439,13.01l40.822,36.037"/>
	<path fill="#7F7570" d="M186.711,368.173l-40.822-36.038c-0.769-0.678-1.136-1.703-0.974-2.714c0.162-1.012,0.83-1.871,1.772-2.276
		c17.519-7.528,35.567-13.066,35.747-13.122"/>
	<path fill="#7F7570" d="M181.813,320.491c-4.826,1.55-16.366,5.383-28.393,10.316l34.26,30.245"/>
	<path fill="#7F7570" d="M196.016,571.523c0,0-102.878-0.084-174.055-18.229V178.866c0,0,28.86,20.037,49.495,41.57
		c0,0,1.944,23.028,1.944,56.822c0,0,20.037,12.859,41.121,27.065c0,0,1.047-35.29,0-49.944c0,0,21.832,17.645,37.084,34.243
		c0,0,1.346,18.243,1.346,42.617c0,0,15.701,10.916,30.355,22.579"/>
	<path fill="#7F7570" d="M196.014,574.513c-1.032,0-104.069-0.295-174.792-18.32c-1.325-0.339-2.251-1.533-2.251-2.9V178.866
		c0-1.112,0.618-2.133,1.604-2.649c0.988-0.515,2.179-0.44,3.093,0.194c0.291,0.201,29.344,20.457,49.948,41.957
		c0.474,0.494,0.764,1.137,0.821,1.818c0.019,0.228,1.892,22.786,1.953,55.442c4.47,2.882,19.226,12.428,35.282,23.181
		c0.241-10.456,0.647-33.305-0.132-44.214c-0.086-1.188,0.543-2.313,1.598-2.864c1.056-0.55,2.337-0.424,3.265,0.326
		c0.221,0.178,22.179,17.975,37.406,34.544c0.455,0.497,0.731,1.132,0.78,1.804c0.013,0.18,1.297,17.846,1.352,41.28
		c3.535,2.491,13.865,9.836,24.502,18.084"/>
	<path fill="#7F7570" d="M181.444,356.159c-14.413-11.472-30.045-22.355-30.2-22.464c-0.805-0.559-1.284-1.477-1.284-2.456
		c0-20.738-0.989-37.173-1.266-41.36c-10.367-11.154-23.673-22.775-30.872-28.863c0.476,16.396-0.274,42.143-0.312,43.396
		c-0.033,1.089-0.654,2.075-1.624,2.572c-0.967,0.498-2.131,0.43-3.036-0.18c-20.813-14.023-40.866-26.901-41.067-27.029
		c-0.856-0.55-1.375-1.499-1.375-2.517c0-29.262-1.481-50.643-1.85-55.519c-15.188-15.67-34.769-30.572-43.607-37.042v366.264
		c63.118,15.603,150.843,17.353,168.072,17.547"/>
	<g>
		<path fill="#AF9C8C" d="M63.032,329.195c0,0-5.582,10.667-10.665,19.639c0,0,27.912,12.359,44.959,23.326l4.486-22.68
			l-3.888-14.056l-19.439-6.804L63.032,329.195z"/>
	</g>
	<g>
		<path fill="#6D625D" d="M71.905,311.8c0,0,23.029,12.411,41.121,24.374c0,0-9.52,3.389-19.09,9.27c0,0-13.36-8.374-30.904-16.249
			L71.905,311.8z"/>
	</g>
	<g>
		<path fill="#CEBEAE" d="M97.326,372.161c0,0,9.57-16.149,15.7-35.987c0,0-11.413,2.691-19.09,9.27
			C93.937,345.444,95.73,350.926,97.326,372.161z"/>
	</g>
	<g>
		<path fill="#AF9C8C" d="M143.481,372.161c0,0-4.088,6.68-6.58,10.666c0,0,18.641,12.063,24.922,20.537
			c0,0,7.577-19.439-2.292-26.916C149.662,368.972,143.481,372.161,143.481,372.161z"/>
	</g>
	<g>
		<g>
			<polygon fill="#AF9C8C" points="49.326,517.579 50.223,497.84 81.475,506.065 81.475,523.71 			"/>
			<path fill="#AE9C8C" d="M81.475,524.906c-0.075,0-0.15-0.007-0.225-0.021l-32.149-6.131c-0.584-0.112-0.997-0.635-0.971-1.23
				l0.897-19.738c0.016-0.362,0.195-0.696,0.486-0.909c0.292-0.215,0.664-0.285,1.014-0.194l31.252,8.224
				c0.525,0.138,0.891,0.615,0.891,1.157v17.645c0,0.357-0.159,0.693-0.433,0.923C82.022,524.81,81.751,524.906,81.475,524.906z
				 M50.567,516.598l29.712,5.666v-15.276l-28.929-7.612L50.567,516.598z"/>
		</g>
	</g>
	<g>
		<g>
			<polygon fill="#AF9C8C" points="69.961,528.714 69.064,544.116 93.886,549.499 93.886,533.2 			"/>
			<path fill="#AE9C8C" d="M93.886,550.696c-0.084,0-0.17-0.01-0.254-0.028l-24.822-5.383c-0.576-0.124-0.975-0.65-0.94-1.239
				l0.897-15.402c0.02-0.343,0.186-0.661,0.457-0.874c0.271-0.212,0.618-0.299,0.958-0.231l23.925,4.486
				c0.566,0.105,0.975,0.599,0.975,1.175v16.299c0,0.362-0.163,0.703-0.444,0.93C94.422,550.602,94.157,550.696,93.886,550.696z
				 M70.318,543.163l22.373,4.852v-13.822l-21.614-4.054L70.318,543.163z"/>
		</g>
	</g>
	<g>
		<g>
			<polygon fill="#AF9C8C" points="60.69,545.518 63.083,531.911 57.699,527.126 33.176,522.64 30.933,542.826 			"/>
			<path fill="#AE9C8C" d="M60.692,546.714c-0.037,0-0.073,0-0.109-0.005l-29.757-2.691c-0.32-0.028-0.616-0.185-0.819-0.435
				c-0.204-0.248-0.299-0.57-0.263-0.888l2.243-20.187c0.037-0.329,0.209-0.631,0.476-0.829c0.265-0.196,0.599-0.276,0.929-0.215
				l24.523,4.486c0.216,0.037,0.416,0.135,0.58,0.283l5.383,4.785c0.311,0.276,0.456,0.691,0.384,1.101l-2.393,13.607
				C61.767,546.303,61.266,546.714,60.692,546.714z M32.257,541.745l27.446,2.483l2.086-11.867l-4.633-4.119l-22.932-4.194
				L32.257,541.745z"/>
		</g>
	</g>
	<g>
		<g>
			<polygon fill="#AF9C8C" points="149.761,495.1 166.658,499.96 166.658,514.016 159.331,512.221 159.63,505.792 155.144,502.502 
				149.761,501.156 			"/>
			<path fill="#AE9C8C" d="M166.658,515.213c-0.095,0-0.191-0.012-0.286-0.033l-7.327-1.795c-0.555-0.138-0.937-0.647-0.91-1.22
				l0.27-5.787l-3.779-2.771l-5.156-1.29c-0.532-0.133-0.906-0.612-0.906-1.161V495.1c0-0.377,0.176-0.729,0.476-0.956
				c0.302-0.224,0.69-0.296,1.051-0.194l16.897,4.86c0.512,0.147,0.865,0.617,0.865,1.149v14.056c0,0.367-0.168,0.715-0.457,0.942
				C167.184,515.125,166.923,515.213,166.658,515.213z M160.572,511.294l4.89,1.198v-11.631l-14.504-4.173v3.533l4.477,1.121
				c0.15,0.037,0.292,0.103,0.419,0.194l4.486,3.29c0.322,0.238,0.506,0.622,0.487,1.021L160.572,511.294z"/>
		</g>
	</g>
	<polyline fill="#AF9C8C" points="173.736,484.558 165.512,478.427 161.474,478.427 161.474,491.436 172.54,495.1 	"/>
	<path fill="#AE9C8C" d="M172.163,496.235l-11.065-3.663c-0.49-0.161-0.82-0.619-0.82-1.136v-13.009
		c0-0.661,0.535-1.196,1.196-1.196h4.038c0.258,0,0.508,0.084,0.715,0.238l8.225,6.131"/>
	<polyline fill="#AE9C8C" points="172.47,485.107 165.115,479.624 162.671,479.624 162.671,490.572 171.517,493.502 	"/>
	<g>
		<g>
			<polygon fill="#AF9C8C" points="74.995,377.444 88.029,381.631 88.029,405.757 74.995,401.369 76.292,388.411 			"/>
			<path fill="#AE9C8C" d="M88.029,406.953c-0.128,0-0.257-0.021-0.382-0.063l-13.034-4.385c-0.528-0.18-0.863-0.699-0.808-1.255
				l1.284-12.83l-1.281-10.837c-0.048-0.404,0.113-0.803,0.428-1.063c0.314-0.259,0.741-0.338,1.126-0.215l13.034,4.186
				c0.495,0.159,0.83,0.619,0.83,1.138v24.126c0,0.386-0.186,0.745-0.497,0.972C88.521,406.876,88.276,406.953,88.029,406.953z
				 M76.28,400.54l10.552,3.551v-21.586l-10.431-3.353l1.078,9.119c0.011,0.087,0.011,0.173,0.002,0.26L76.28,400.54z"/>
		</g>
	</g>
	<g>
		<g>
			<polygon fill="#AF9C8C" points="94.535,381.93 93.937,396.685 105.499,401.271 106.472,390.603 103.406,385.021 			"/>
			<path fill="#AE9C8C" d="M105.499,402.468c-0.15,0-0.299-0.028-0.441-0.084l-11.563-4.587c-0.473-0.187-0.776-0.652-0.754-1.159
				l0.598-14.754c0.015-0.379,0.209-0.729,0.522-0.942c0.313-0.212,0.709-0.264,1.066-0.14l8.872,3.091
				c0.279,0.095,0.513,0.295,0.654,0.554l3.067,5.582c0.115,0.208,0.164,0.447,0.144,0.685l-0.974,10.665
				c-0.034,0.377-0.244,0.713-0.565,0.911C105.935,402.406,105.718,402.468,105.499,402.468z M95.167,395.885l9.287,3.682
				l0.794-8.708L102.579,386l-6.915-2.409L95.167,395.885z"/>
		</g>
	</g>
	<g>
		<g>
			<polygon fill="#AF9C8C" points="128.03,289.321 128.03,299.091 136.901,306.468 136.901,295.9 			"/>
			<path fill="#AE9C8C" d="M136.901,307.664c-0.274,0-0.545-0.095-0.765-0.277l-8.871-7.377c-0.273-0.227-0.432-0.563-0.432-0.919
				v-9.77c0-0.451,0.255-0.864,0.659-1.068c0.402-0.203,0.887-0.162,1.25,0.108l8.871,6.579c0.304,0.225,0.484,0.581,0.484,0.96
				v10.568c0,0.462-0.269,0.885-0.688,1.082C137.247,307.627,137.074,307.664,136.901,307.664z M129.226,298.528l6.479,5.388v-7.414
				l-6.479-4.805V298.528z"/>
		</g>
	</g>
	<g>
		<g>
			<polygon fill="#AF9C8C" points="134.36,313.894 146.921,322.468 146.222,335.128 133.861,324.511 			"/>
			<path fill="#AE9C8C" d="M146.222,336.325c-0.28,0-0.558-0.101-0.779-0.29l-12.361-10.617c-0.279-0.24-0.434-0.596-0.416-0.964
				l0.499-10.616c0.021-0.433,0.273-0.821,0.661-1.015c0.389-0.193,0.851-0.161,1.208,0.083l12.561,8.574
				c0.345,0.236,0.543,0.635,0.519,1.053l-0.698,12.662c-0.025,0.453-0.306,0.855-0.725,1.033
				C146.54,336.293,146.381,336.325,146.222,336.325z M135.083,323.984l10.078,8.656l0.528-9.564l-10.235-6.986L135.083,323.984z"/>
		</g>
	</g>
	<g>
		<g>
			<polygon fill="#AF9C8C" points="141.986,311.152 142.784,301.582 150.261,306.865 150.261,316.884 			"/>
			<path fill="#AE9C8C" d="M150.261,318.08c-0.239,0-0.477-0.071-0.68-0.213l-8.275-5.731c-0.351-0.244-0.546-0.656-0.51-1.083
				l0.798-9.57c0.035-0.428,0.296-0.804,0.686-0.985c0.39-0.182,0.845-0.14,1.196,0.107l7.476,5.283
				c0.318,0.224,0.506,0.589,0.506,0.977v10.019c0,0.446-0.247,0.854-0.641,1.061C150.642,318.036,150.451,318.08,150.261,318.08z
				 M143.236,310.564l5.828,4.038v-7.116l-5.262-3.718L143.236,310.564z"/>
		</g>
	</g>
	<path fill="#CEBEAE" d="M181.561,379.837c0,0-9.372,12.96-19.739,23.528c0,0,0.498-6.979,0-19.342
		C161.823,384.023,169.199,381.332,181.561,379.837"/>
	<path fill="#6D625D" d="M181.561,379.837c0,0-15.551-10.565-30.704-20.635c0,0-3.689,7.077-7.377,12.96
		c0,0,11.165,5.982,18.342,11.862C161.823,384.023,173.885,384.823,181.561,379.837"/>
	<g>
		<g>
			<path fill="#7F7570" d="M-23.796,274.566c0,0-23.426-12.062-46.803-20.187l-7.178,60.112l66.243-21.831L-23.796,274.566z"/>
		</g>
		<g>
			<path fill="#7F7570" d="M-77.777,317.482c-0.681,0-1.351-0.231-1.894-0.675c-0.792-0.647-1.196-1.654-1.076-2.669l7.178-60.112
				c0.107-0.899,0.616-1.702,1.384-2.181c0.768-0.479,1.713-0.584,2.568-0.29c23.306,8.101,46.954,20.231,47.19,20.353
				c0.445,0.229,0.826,0.568,1.106,0.981l12.262,18.093c0.526,0.777,0.658,1.755,0.355,2.643c-0.302,0.888-1.003,1.582-1.895,1.876
				l-66.243,21.832C-77.147,317.433-77.462,317.482-77.777,317.482z M-68.073,258.453l-6.176,51.728l58.018-19.122l-9.607-14.175
				C-29.605,274.98-48.544,265.559-68.073,258.453z"/>
		</g>
	</g>
	<g>
		<g>
			<path fill="#7F7570" d="M-139.384,316.884c0,0,17.869,5.458,35.439,13.01l-40.822,36.037l-9.57-20.337L-139.384,316.884z"/>
		</g>
		<g>
			<path fill="#7F7570" d="M-144.767,368.921c-0.202,0-0.404-0.019-0.606-0.061c-0.921-0.192-1.698-0.803-2.1-1.656l-9.57-20.336
				c-0.397-0.844-0.376-1.827,0.054-2.655l14.953-28.71c0.666-1.278,2.147-1.9,3.527-1.479c0.18,0.056,18.227,5.593,35.746,13.122
				c0.942,0.405,1.61,1.264,1.772,2.276c0.162,1.011-0.206,2.036-0.974,2.714l-40.822,36.038
				C-143.339,368.659-144.045,368.921-144.767,368.921z M-150.999,345.662l7.24,15.39l34.262-30.245
				c-12.033-4.935-23.569-8.767-28.394-10.316L-150.999,345.662z"/>
		</g>
	</g>
	<g>
		<g>
			<path fill="#CEBEAE" d="M21.961,553.294V178.866c0,0-28.86,20.037-49.495,41.57c0,0-1.944,23.028-1.944,56.822
				c0,0-20.037,12.859-41.121,27.065c0,0-1.047-35.29,0-49.944c0,0-21.832,17.645-37.084,34.243c0,0-1.346,18.243-1.346,42.617
				c0,0-15.701,10.916-30.355,22.579c0,0-0.449-13.158,0-36.934c0,0-11.664,10.467-27.514,26.018c0,0-3.14,28.412-3.14,60.411
				c0,0,8.075,6.878,22.429,15.701c0,0-4.486,79.937-4.486,152.509C-152.094,571.523-49.216,571.439,21.961,553.294z"/>
		</g>
		<g>
			<path fill="#7F7570" d="M-152.094,574.513c-0.793,0-1.553-0.313-2.113-0.874c-0.562-0.561-0.877-1.323-0.877-2.117
				c0-65.881,3.74-138.682,4.393-150.899c-13.437-8.383-20.961-14.757-21.286-15.033c-0.667-0.57-1.052-1.401-1.052-2.278
				c0-31.796,3.127-60.452,3.158-60.738c0.077-0.687,0.387-1.324,0.879-1.805c15.716-15.421,27.494-26.006,27.611-26.111
				c0.886-0.796,2.159-0.99,3.242-0.494c1.083,0.496,1.769,1.587,1.745,2.777c-0.268,14.284-0.212,24.783-0.125,30.825
				c10.639-8.248,20.966-15.593,24.501-18.084c0.056-23.434,1.339-41.1,1.353-41.28c0.049-0.672,0.325-1.307,0.781-1.804
				c15.227-16.569,37.187-34.367,37.406-34.544c0.925-0.75,2.208-0.876,3.264-0.326c1.056,0.551,1.683,1.676,1.598,2.864
				c-0.778,10.909-0.374,33.758-0.132,44.214c16.057-10.753,30.812-20.299,35.281-23.181c0.061-32.655,1.934-55.214,1.953-55.442
				c0.058-0.681,0.348-1.323,0.82-1.818c20.605-21.5,49.659-41.756,49.95-41.957c0.914-0.633,2.106-0.708,3.092-0.194
				c0.986,0.516,1.604,1.537,1.604,2.649v374.428c0,1.367-0.926,2.561-2.251,2.9c-70.722,18.025-173.76,18.32-174.792,18.32
				C-152.093,574.513-152.093,574.513-152.094,574.513z M-167.045,401.899c2.604,2.094,9.938,7.767,21.003,14.568
				c0.936,0.575,1.481,1.617,1.419,2.715c-0.044,0.787-4.358,78.462-4.479,149.327c17.23-0.194,104.968-1.949,168.072-17.547
				V184.698c-8.842,6.472-28.429,21.381-43.606,37.042c-0.37,4.875-1.852,26.257-1.852,55.519c0,1.019-0.517,1.967-1.375,2.517
				c-0.201,0.128-20.252,13.006-41.065,27.029c-0.904,0.61-2.067,0.677-3.038,0.18c-0.969-0.497-1.591-1.484-1.624-2.572
				c-0.037-1.252-0.788-27-0.313-43.396c-7.196,6.088-20.502,17.709-30.869,28.863c-0.278,4.189-1.267,20.636-1.267,41.36
				c0,0.979-0.48,1.897-1.284,2.456c-0.157,0.109-15.794,10.997-30.199,22.464c-0.884,0.703-2.088,0.851-3.116,0.377
				c-1.026-0.474-1.696-1.486-1.736-2.615c-0.003-0.119-0.36-10.901-0.111-30.149c-4.747,4.385-12.45,11.602-21.551,20.514
				C-164.582,349.62-166.964,374.421-167.045,401.899z"/>
		</g>
	</g>
	<g>
		<path fill="#C4AD9B" d="M-19.11,329.195c0,0,5.582,10.667,10.666,19.639c0,0-27.912,12.359-44.959,23.326l-4.486-22.68
			l3.888-14.056l19.439-6.804L-19.11,329.195z"/>
	</g>
	<g>
		<path fill="#AF9C8C" d="M-27.982,311.8c0,0-23.028,12.411-41.121,24.374c0,0,9.52,3.389,19.09,9.27c0,0,13.36-8.374,30.904-16.249
			L-27.982,311.8z"/>
	</g>
	<g>
		<path fill="#7F7570" d="M-53.403,372.161c0,0-9.57-16.149-15.701-35.987c0,0,11.413,2.691,19.09,9.27
			C-50.014,345.444-51.807,350.926-53.403,372.161z"/>
	</g>
	<g>
		<path fill="#C4AD9B" d="M-99.558,372.161c0,0,4.087,6.68,6.579,10.666c0,0-18.641,12.063-24.921,20.537
			c0,0-7.577-19.439,2.292-26.916C-105.739,368.972-99.558,372.161-99.558,372.161z"/>
	</g>
	<g>
		<g>
			<g>
				<polygon fill="#AF9C8C" points="12.881,452.08 -4.332,457.03 -4.332,471.348 3.132,469.518 2.827,462.97 7.397,459.619 
					12.881,458.248 				"/>
			</g>
			<g>
				<path fill="#AF9C8C" d="M-4.332,473.143c-0.398,0-0.79-0.131-1.107-0.383c-0.435-0.339-0.687-0.86-0.687-1.411V457.03
					c0-0.802,0.529-1.505,1.298-1.724l17.212-4.951c0.541-0.157,1.125-0.05,1.576,0.289c0.45,0.339,0.715,0.871,0.715,1.435v6.168
					c0,0.825-0.561,1.542-1.36,1.74l-5.142,1.285l-3.509,2.574l0.262,5.589c0.04,0.855-0.533,1.622-1.367,1.825l-7.464,1.829
					C-4.047,473.126-4.189,473.143-4.332,473.143z M-2.538,458.381v10.68l3.809-0.932l-0.236-5.075
					c-0.028-0.6,0.246-1.175,0.732-1.53l4.569-3.353c0.188-0.136,0.401-0.236,0.626-0.293l4.125-1.03v-2.386L-2.538,458.381z"/>
			</g>
		</g>
		<g>
			<g>
				<polygon fill="#AF9C8C" points="6.131,446.296 -5.141,450.028 -6.36,439.29 2.018,433.044 6.131,433.044 				"/>
			</g>
			<g>
				<path fill="#AF9C8C" d="M-5.141,451.822c-0.339,0-0.674-0.095-0.966-0.283c-0.456-0.29-0.756-0.771-0.817-1.308l-1.218-10.741
					c-0.073-0.633,0.199-1.259,0.71-1.64l8.379-6.245c0.309-0.228,0.685-0.355,1.072-0.355h4.112c0.99,0,1.794,0.804,1.794,1.795
					v13.252c0,0.774-0.496,1.461-1.231,1.704l-11.271,3.731C-4.762,451.792-4.951,451.822-5.141,451.822z M-4.461,440.112
					l0.853,7.518L4.336,445v-10.161H2.613L-4.461,440.112z"/>
			</g>
		</g>
		<g>
			<g>
				<polygon fill="#AF9C8C" points="-10.811,463.425 -10.811,477.673 -26.297,481.39 -25.43,467.142 				"/>
			</g>
			<g>
				<path fill="#AF9C8C" d="M-26.297,483.184c-0.418,0-0.827-0.147-1.154-0.42c-0.435-0.365-0.672-0.916-0.638-1.484l0.867-14.246
					c0.048-0.78,0.593-1.439,1.349-1.63l14.619-3.718c0.536-0.135,1.106-0.016,1.543,0.322c0.437,0.339,0.694,0.862,0.694,1.416
					v14.248c0,0.829-0.57,1.551-1.377,1.745l-15.486,3.718C-26.016,483.168-26.158,483.184-26.297,483.184z M-23.72,468.558
					l-0.64,10.521l11.754-2.82v-10.526L-23.72,468.558z"/>
			</g>
		</g>
	</g>
	<g>
		<g>
			<polygon fill="#AF9C8C" points="-106.1,417.47 -119.134,421.656 -119.134,445.782 -106.1,441.395 -107.397,428.437 			"/>
		</g>
		<g>
			<path fill="#AF9C8C" d="M-119.134,447.577c-0.37,0-0.737-0.117-1.048-0.339c-0.468-0.336-0.747-0.878-0.747-1.456v-24.126
				c0-0.778,0.503-1.469,1.245-1.708l13.034-4.187c0.582-0.187,1.217-0.063,1.689,0.322c0.472,0.39,0.714,0.991,0.643,1.596
				l-1.275,10.773l1.277,12.764c0.084,0.832-0.419,1.612-1.212,1.879l-13.034,4.388
				C-118.748,447.546-118.941,447.577-119.134,447.577z M-117.34,422.965v20.32l9.312-3.133l-1.154-11.538
				c-0.014-0.128-0.012-0.259,0.002-0.388l0.97-8.194L-117.34,422.965z"/>
		</g>
	</g>
	<g>
		<g>
			<polygon fill="#AF9C8C" points="-127.383,425.444 -126.784,440.198 -138.347,444.785 -139.322,434.116 -136.254,428.535 			"/>
		</g>
		<g>
			<path fill="#AF9C8C" d="M-138.347,446.58c-0.328,0-0.654-0.092-0.94-0.267c-0.483-0.297-0.796-0.802-0.847-1.365l-0.973-10.669
				c-0.032-0.354,0.042-0.713,0.214-1.028l3.068-5.582c0.213-0.388,0.563-0.684,0.981-0.829l8.872-3.091
				c0.537-0.189,1.131-0.11,1.6,0.21c0.47,0.32,0.759,0.843,0.783,1.411l0.598,14.754c0.03,0.762-0.423,1.461-1.131,1.741
				l-11.563,4.586C-137.9,446.537-138.124,446.58-138.347,446.58z M-137.484,434.5l0.704,7.731l8.15-3.231l-0.449-11.066
				l-5.935,2.068L-137.484,434.5z"/>
		</g>
	</g>
	<g>
		<path fill="#7F7570" d="M-117.9,403.365c0,0-0.498-6.979,0-19.342c0,0-7.376-2.691-19.738-4.186
			C-137.638,379.837-128.267,392.797-117.9,403.365z"/>
	</g>
	<g>
		<path fill="#AF9C8C" d="M-99.558,372.161c0,0-11.165,5.982-18.342,11.862c0,0-12.062,0.8-19.738-4.186
			c0,0,15.55-10.565,30.703-20.635C-106.935,359.202-103.246,366.279-99.558,372.161z"/>
	</g>
	<g>
		<g>
			<polygon fill="#AF9C8C" points="-19.459,244.51 -8.543,237.632 -8.543,219.987 -16.319,224.174 -19.459,231.501 			"/>
			<path fill="#AF9C8C" d="M-19.459,246.305c-0.298,0-0.597-0.074-0.867-0.222c-0.572-0.317-0.928-0.918-0.928-1.572v-13.01
				c0-0.243,0.05-0.483,0.145-0.706l3.14-7.327c0.16-0.374,0.441-0.681,0.799-0.874l7.776-4.187c0.556-0.299,1.228-0.285,1.77,0.04
				c0.543,0.323,0.875,0.909,0.875,1.54v17.645c0,0.617-0.317,1.189-0.838,1.519l-10.916,6.878
				C-18.794,246.213-19.126,246.305-19.459,246.305z M-17.665,231.87v9.389l7.327-4.617v-13.651l-4.578,2.465L-17.665,231.87z"/>
		</g>
	</g>
	<g>
		<g>
			<polygon fill="#AF9C8C" points="-0.468,230.005 7.457,226.566 8.952,220.735 8.952,209.968 -0.468,214.305 			"/>
			<path fill="#AF9C8C" d="M-0.468,231.8c-0.345,0-0.688-0.098-0.985-0.294c-0.505-0.331-0.81-0.895-0.81-1.5v-15.701
				c0-0.7,0.408-1.336,1.044-1.63l9.42-4.337c0.557-0.255,1.203-0.21,1.72,0.119c0.514,0.331,0.826,0.9,0.826,1.511v10.766
				c0,0.151-0.019,0.302-0.056,0.446l-1.495,5.832c-0.138,0.537-0.515,0.979-1.024,1.201l-7.925,3.439
				C0.016,231.751-0.227,231.8-0.468,231.8z M1.326,215.454v11.817l4.611-2.002l1.221-4.762v-7.738L1.326,215.454z"/>
		</g>
	</g>
	<g>
		<g>
			<path fill="#6D625D" d="M-90.786,489.555c0-52.868,43.798-62.382,43.966-62.42c-4.297-3.743-9.785-6.028-16.751-6.028
				c-24.224,0-46.355,32.951-46.355,81.346c0,39.775,0,66.093,0,66.093s8.316-1.131,19.14-1.694l-0.099-12.164L-90.786,489.555z"/>
		</g>
		<g>
			<g>
				<defs>
					<polygon id="SVGID_1_" points="-46.813,427.133 -46.82,427.136 -46.815,427.14 					"/>
				</defs>
				<clipPath id="SVGID_2_">
					<use xlink:href="#SVGID_1_"  overflow="visible"/>
				</clipPath>
				<rect x="-46.819" y="427.136" clip-path="url(#SVGID_2_)" fill="#B08B77" width="0.005" height="0.005"/>
				<path clip-path="url(#SVGID_2_)" fill="#B08B77" d="M-46.814,427.14v-0.005V427.14z"/>
			</g>
		</g>
		<g>
			<path fill="#37363A" d="M-46.815,427.14c-0.002-0.002-0.003-0.002-0.005-0.005c-0.168,0.037-43.966,9.551-43.966,62.42
				l-0.099,65.133l-0.133,13.858c0.696-0.035-0.489-1.805,0.232-1.694c13.789,2.117,35.286-1.186,57.887-6.407
				c0,0,0-69.571,0-90.698C-32.899,454.698-36.177,436.418-46.815,427.14z"/>
		</g>
	</g>
	<g>
		<path fill="#7F7570" d="M-53.402,373.956c-0.585,0-1.159-0.287-1.503-0.813c-9.608-14.712-15.669-35.591-15.923-36.474
			c-0.226-0.783,0.106-1.621,0.81-2.039l41.121-24.373c0.423-0.25,0.929-0.317,1.402-0.183c0.473,0.133,0.871,0.456,1.1,0.89
			l19.537,37.034c0.463,0.877,0.128,1.963-0.75,2.425c-0.875,0.46-1.96,0.126-2.423-0.75l-18.659-35.368L-66.979,337
			c1.5,4.851,7.121,21.995,15.078,34.18c0.542,0.83,0.309,1.942-0.521,2.484C-52.724,373.86-53.065,373.956-53.402,373.956z"/>
	</g>
	<g>
		<path fill="#7F7570" d="M-117.899,405.159c-0.479,0-0.957-0.192-1.311-0.567c-9.72-10.365-19.757-23.535-19.857-23.669
			c-0.299-0.392-0.423-0.892-0.341-1.378c0.081-0.488,0.359-0.92,0.769-1.196l30.703-20.635c0.418-0.283,0.937-0.372,1.428-0.255
			c0.491,0.121,0.908,0.441,1.149,0.886c0.075,0.137,7.616,13.955,13.881,23.5c0.544,0.827,0.313,1.941-0.515,2.483
			c-0.829,0.547-1.941,0.313-2.485-0.514c-5.024-7.654-10.839-17.986-13.082-22.03l-27.487,18.475
			c2.903,3.733,10.788,13.703,18.456,21.878c0.678,0.725,0.64,1.86-0.082,2.538C-117.018,404.998-117.46,405.159-117.899,405.159z"
			/>
	</g>
	<g>
		<path fill="#7F7570" d="M97.225,373.956c-0.337,0-0.677-0.095-0.981-0.292c-0.829-0.542-1.063-1.654-0.521-2.484
			c7.963-12.194,13.58-29.329,15.079-34.18l-38.291-22.694l-18.657,35.368c-0.464,0.874-1.549,1.208-2.425,0.75
			c-0.876-0.463-1.212-1.549-0.75-2.425l19.539-37.034c0.23-0.435,0.627-0.757,1.101-0.89c0.472-0.133,0.978-0.066,1.401,0.183
			l41.121,24.373c0.702,0.418,1.035,1.256,0.81,2.039c-0.254,0.883-6.316,21.762-15.923,36.474
			C98.383,373.669,97.81,373.956,97.225,373.956z"/>
	</g>
	<path fill="#7F7570" d="M182.89,380.923c-0.1,0.134-10.139,13.304-19.859,23.669c-0.353,0.376-0.83,0.567-1.308,0.567
		c-0.441,0-0.881-0.161-1.228-0.486c-0.722-0.677-0.759-1.813-0.08-2.538c7.67-8.18,15.552-18.145,18.456-21.878"/>
	<path fill="#7F7570" d="M178.871,380.258l-27.488-18.475c-2.244,4.044-8.058,14.376-13.082,22.03
		c-0.544,0.827-1.657,1.058-2.484,0.514c-0.829-0.542-1.06-1.656-0.515-2.483c6.267-9.549,13.806-23.362,13.881-23.5
		c0.242-0.444,0.659-0.764,1.15-0.886c0.487-0.119,1.007-0.028,1.427,0.255l30.704,20.635"/>
	<polyline fill="none" points="-406.453,18.586 450.621,18.586 450.621,628.548 -406.453,628.548 -406.453,18.586 	"/>
</g>
<g id="Layer_3">
	<rect x="-180.333" y="71.868" fill="#161616" width="80.333" height="75.333"/>
	<rect x="-130.333" y="84" fill="#1E1E1E" width="140" height="75.333"/>
	<polygon fill="#0A0A0A" points="-100,71.868 -100,84 -130.333,84 	"/>
	<path fill="#FFF8AD" d="M-34.133,137.801c-1.818-0.661-3.828,0.276-4.489,2.094c-0.07,0.192-0.118,0.386-0.154,0.58l-13.483-4.907
		l13.483-4.907c0.036,0.194,0.084,0.388,0.154,0.58c0.661,1.818,2.671,2.755,4.489,2.094c1.818-0.662,2.755-2.672,2.094-4.49
		c-0.376-1.032-1.187-1.78-2.15-2.113c0.524-0.874,0.665-1.968,0.288-3.001c-0.661-1.818-2.671-2.754-4.49-2.093
		c-1.818,0.662-2.755,2.672-2.094,4.489c0.071,0.192,0.158,0.372,0.256,0.544l-18.238,6.638l-18.239-6.638
		c0.097-0.172,0.185-0.351,0.255-0.543c0.662-1.818-0.275-3.828-2.093-4.49c-1.818-0.661-3.828,0.276-4.49,2.094
		c-0.375,1.033-0.235,2.127,0.289,3c-0.963,0.333-1.774,1.08-2.15,2.113c-0.662,1.818,0.276,3.827,2.093,4.49
		c1.818,0.661,3.828-0.276,4.49-2.093c0.07-0.193,0.118-0.387,0.153-0.581l13.485,4.908l-13.485,4.908
		c-0.035-0.195-0.084-0.388-0.153-0.581c-0.662-1.818-2.672-2.755-4.49-2.093c-1.818,0.662-2.755,2.672-2.093,4.489
		c0.376,1.033,1.187,1.78,2.15,2.113c-0.524,0.874-0.664,1.967-0.289,3c0.662,1.818,2.672,2.755,4.49,2.094
		c1.818-0.662,2.755-2.672,2.093-4.49c-0.069-0.192-0.157-0.372-0.255-0.543l18.239-6.639l18.238,6.638
		c-0.098,0.172-0.186,0.351-0.256,0.544c-0.661,1.818,0.276,3.828,2.094,4.49c1.818,0.661,3.828-0.276,4.49-2.093
		c0.376-1.033,0.235-2.127-0.288-3.001c0.963-0.333,1.774-1.08,2.15-2.112C-31.378,140.473-32.315,138.463-34.133,137.801z
		 M-74.449,119.178c0,3.206,2.599,5.805,5.804,5.805c0.101,0,0.199-0.01,0.299-0.015c-0.042,0.191-0.066,0.387-0.066,0.59
		c0,1.538,1.247,2.785,2.786,2.785c0.917,0,1.724-0.45,2.232-1.135c0.434,0.974,1.406,1.655,2.542,1.655
		c1.019,0,1.901-0.553,2.387-1.37c0.486,0.817,1.368,1.37,2.387,1.37c1.134,0,2.107-0.681,2.541-1.655
		c0.507,0.685,1.315,1.135,2.233,1.135c1.539,0,2.786-1.247,2.786-2.785c0-0.203-0.024-0.399-0.065-0.59
		c0.098,0.005,0.197,0.015,0.298,0.015c3.206,0,5.804-2.598,5.804-5.805c0-0.955-0.235-1.853-0.643-2.648
		c1.407-2.526,2.213-5.434,2.213-8.531c0-9.694-7.859-17.552-17.553-17.552c-9.694,0-17.553,7.859-17.553,17.552
		c0,3.097,0.805,6.005,2.213,8.531C-74.214,117.325-74.449,118.223-74.449,119.178z M-50,106.064c5.781,0,4.932,2.786,4.932,5.228
		c0,2.443-1.981,4.423-4.423,4.423c-2.443,0-4.423-1.98-4.423-4.423C-53.913,108.85-54.656,106.064-50,106.064z M-58.466,116.114
		c0,0,3.141,1.258,3.141,4.071c0,2.248-2.499,1.925-3.141-0.111c-0.642,2.036-3.142,2.359-3.142,0.111
		C-61.609,117.372-58.466,116.114-58.466,116.114z M-67.442,106.87c2.442,0,4.423,1.98,4.423,4.423c0,2.443-1.981,4.423-4.423,4.423
		c-2.443,0-4.423-1.98-4.423-4.423C-71.865,108.85-69.885,106.87-67.442,106.87z"/>
	<path fill="#1E1E1E" stroke="#1E1E1E" stroke-miterlimit="10" d="M-39.875,111.604l-35.484-9.171"/>
	<g>
		<path fill="#EC1C24" d="M-41.02,106.064c-0.963-8.783-8.406-15.618-17.446-15.618c-8.811,0-16.105,6.492-17.361,14.954
			C-69.425,103.07-54.656,101.006-41.02,106.064z"/>
		<path fill="#EC1C24" d="M-75.477,100.464c1.281,2.218,0.03,4.319,0.03,4.319c0,0-2.445,0.032-3.725-2.186
			c-1.28-2.218-0.03-4.319-0.03-4.319C-79.202,98.278-76.757,98.246-75.477,100.464z"/>
		<path fill="#EC1C24" d="M-77.153,107.508c-2.218,1.281-4.251,0.148-4.251,0.148c0,0,0.036-2.327,2.254-3.607
			c2.218-1.281,4.251-0.148,4.251-0.148C-74.9,103.901-74.935,106.228-77.153,107.508z"/>
	</g>
</g>
</svg>
