<?xml version="1.0" encoding="utf-8"?>
<!-- Generator: Adobe Illustrator 17.0.0, SVG Export Plug-In . SVG Version: 6.00 Build 0)  -->
<!DOCTYPE svg PUBLIC "-//W3C//DTD SVG 1.1//EN" "http://www.w3.org/Graphics/SVG/1.1/DTD/svg11.dtd">
<svg version="1.1" id="Layer_1" xmlns="http://www.w3.org/2000/svg" xmlns:xlink="http://www.w3.org/1999/xlink" x="0px" y="0px"
	 width="980px" height="300px" viewBox="0 0 980 300" enable-background="new 0 0 980 300" xml:space="preserve">
<g id="Layer_4" display="none">
	<rect display="inline" fill="#2B8AA0" width="980" height="300"/>
</g>
<g id="Layer_3">
	<path fill="#27AE60" d="M45.031,253.759c0,0-18.969,32.074-45.031,34.074V302h1016.5c0,0-218.924,0.594-236.923-157.904
		l-107.995-8.505L434,159.59L45,253.75"/>
	<g>
		<path fill="#F2F2F2" d="M475.837,229.905h1.62v26.133h-5.219l0.036-14.362l-6.587,6.911l-6.587-6.911v14.362h-5.219v-26.133h1.656
			l10.15,11.303L475.837,229.905z"/>
		<path fill="#F2F2F2" d="M491.787,229.365h0.54l10.834,26.673h-5.795l-1.044-2.771h-8.531l-1.008,2.771h-5.831L491.787,229.365z
			 M494.414,248.443l-2.339-6.695l-2.412,6.695H494.414z"/>
		<path fill="#F2F2F2" d="M511.911,256.038h-5.147v-26.276h1.368l12.994,15.118v-14.543h5.184v26.241h-1.367l-13.031-14.542
			L511.911,256.038L511.911,256.038z"/>
		<path fill="#F2F2F2" d="M532.107,256.038v-25.736h5.147v25.736H532.107z"/>
		<path fill="#F2F2F2" d="M543.051,256.038v-25.701h10.114c10.007,0,9.971,15.874,0,15.874h-4.967v9.827L543.051,256.038
			L543.051,256.038z M552.733,241.208c3.455,0,3.455-5.76,0-5.76h-4.535v5.76H552.733z"/>
		<path fill="#F2F2F2" d="M571.598,229.365h0.54l10.835,26.673h-5.795l-1.044-2.771h-8.531l-1.008,2.771h-5.831L571.598,229.365z
			 M574.226,248.443l-2.34-6.695l-2.411,6.695H574.226z"/>
		<path fill="#F2F2F2" d="M591.723,230.302v20.589h8.171v5.147h-13.318v-25.736H591.723z"/>
		<path fill="#F2F2F2" d="M614.401,247.075v-16.773h5.147v16.737c0,5.399,8.352,5.399,8.352,0v-16.737h5.111v16.773
			C633.012,259.313,614.401,259.313,614.401,247.075z"/>
		<path fill="#F2F2F2" d="M643.85,256.038h-5.147v-26.276h1.367l12.995,15.118v-14.543h5.183v26.241h-1.367l-13.03-14.542
			L643.85,256.038L643.85,256.038z"/>
		<path fill="#F2F2F2" d="M664.046,256.038v-25.736h5.147v25.736H664.046z"/>
		<path fill="#F2F2F2" d="M682.98,256.578l-10.655-26.276h5.939l3.42,8.566l1.871,5.327l1.836-5.147l3.456-8.746h5.938
			l-10.654,26.276H682.98L682.98,256.578z"/>
		<path fill="#F2F2F2" d="M697.921,256.038v-25.736h12.886v5.146h-7.738v5.147h6.767v5.147h-6.767v5.147h8.171v5.147h-13.319
			V256.038z"/>
		<path fill="#F2F2F2" d="M728.878,256.038l-5.184-9.827h-2.483v9.827h-5.147v-25.736h10.15c9.179,0,10.079,12.922,2.52,15.117
			l5.976,10.619L728.878,256.038L728.878,256.038z M721.211,241.208h4.535c3.491,0,3.491-5.76,0-5.76h-4.535V241.208z"/>
		<path fill="#F2F2F2" d="M737.592,248.983c2.951,2.087,6.155,2.159,7.343,2.052c1.512-0.108,2.808-1.188,2.664-2.592
			c-0.108-1.477-1.224-2.124-2.664-2.628c-4.031-1.476-7.631-3.527-7.631-7.847s2.987-7.632,7.271-7.848
			c1.331-0.071,3.095-0.071,6.407,1.08l-0.648,4.968c-2.844-1.152-4.463-1.116-5.255-1.08c-1.836,0.107-2.664,1.439-2.556,2.88
			c0.144,1.439,1.403,2.087,2.879,2.591c3.996,1.477,7.451,3.78,7.451,7.884c0,4.283-2.951,7.559-7.774,7.811
			c-1.44,0.108-4.644-0.072-8.136-1.872L737.592,248.983z"/>
		<path fill="#F2F2F2" d="M757.175,256.038v-25.736h5.147v25.736H757.175z"/>
		<path fill="#F2F2F2" d="M772.365,256.038v-20.59h-6.407v-5.111h17.962v5.111h-6.407v20.59H772.365z"/>
		<path fill="#F2F2F2" d="M794.11,244.447l-8.963-14.146h6.264l5.255,8.854l5.256-8.854h6.299l-8.999,14.146v11.591h-5.111
			L794.11,244.447L794.11,244.447z"/>
	</g>
	<g>
		<path fill="#F2F2F2" d="M620.424,165.979h5.096c2.286,0,3.709,1.639,3.655,3.907c-0.036,0.972-0.379,1.98-1.188,2.538
			c0.846,0.576,1.332,1.566,1.332,2.575c0,2.16-1.71,3.871-3.799,3.871h-5.096V165.979z M623.017,171.146h1.549h0.738
			c0.737,0,1.188-0.594,1.188-1.296c0-0.721-0.45-1.297-1.188-1.297h-2.287V171.146z M623.017,176.295h1.549h0.738
			c0.737,0,1.296-0.576,1.296-1.296c0-0.721-0.559-1.278-1.296-1.278h-2.287V176.295z"/>
		<path fill="#F2F2F2" d="M632.142,178.996c-1.944,0-1.944-2.898,0-2.898C634.122,176.098,634.068,178.996,632.142,178.996z"/>
		<path fill="#F2F2F2" d="M635.993,178.87v-12.874h6.446v2.575h-3.871v2.574h3.385v2.575h-3.385v2.574h4.087v2.575L635.993,178.87
			L635.993,178.87z"/>
		<path fill="#F2F2F2" d="M645.605,178.996c-1.944,0-1.944-2.898,0-2.898C647.586,176.098,647.532,178.996,645.605,178.996z"/>
		<path fill="#F2F2F2" d="M552.934,200.47v-12.874h2.575v12.874H552.934z"/>
		<path fill="#F2F2F2" d="M560.98,200.47h-2.575v-13.144h0.685l6.5,7.562v-7.273h2.593v13.126h-0.685l-6.518-7.274V200.47z"/>
		<path fill="#F2F2F2" d="M573.652,190.171v2.574h3.276v2.575h-3.276v5.149h-2.575v-12.874h6.428v2.575L573.652,190.171
			L573.652,190.171z"/>
		<path fill="#F2F2F2" d="M585.82,187.38c8.859,0,8.859,13.27,0,13.27C576.962,200.649,576.962,187.38,585.82,187.38z
			 M585.82,190.026c-5.149,0-5.149,7.959,0,7.959C590.971,197.985,590.971,190.026,585.82,190.026z"/>
		<path fill="#F2F2F2" d="M601.283,200.47l-2.593-4.915h-1.242v4.915h-2.575v-12.874h5.077c4.592,0,5.042,6.464,1.261,7.563
			l2.989,5.312h-2.917V200.47z M597.448,193.052h2.269c1.746,0,1.746-2.881,0-2.881h-2.269V193.052z"/>
		<path fill="#F2F2F2" d="M616.891,187.397h0.811v13.072h-2.611l0.019-7.185l-3.296,3.457l-3.295-3.457v7.185h-2.61v-13.072h0.828
			l5.077,5.654L616.891,187.397z"/>
		<path fill="#F2F2F2" d="M624.862,187.128h0.27l5.42,13.342h-2.899l-0.521-1.387h-4.268l-0.504,1.387h-2.917L624.862,187.128z
			 M626.177,196.671l-1.171-3.35l-1.206,3.35H626.177z"/>
		<path fill="#F2F2F2" d="M633.628,200.47v-10.299h-3.205v-2.557h8.984v2.557h-3.205v10.299H633.628z"/>
		<path fill="#F2F2F2" d="M641.349,200.47v-12.874h2.575v12.874H641.349z"/>
		<path fill="#F2F2F2" d="M653.014,187.38c8.859,0,8.859,13.27,0,13.27C644.155,200.649,644.155,187.38,653.014,187.38z
			 M653.014,190.026c-5.149,0-5.149,7.959,0,7.959C658.164,197.985,658.164,190.026,653.014,190.026z"/>
		<path fill="#F2F2F2" d="M664.642,200.47h-2.575v-13.144h0.685l6.5,7.562v-7.273h2.593v13.126h-0.685l-6.518-7.274V200.47z"/>
		<path fill="#F2F2F2" d="M684.118,187.128h0.27l5.42,13.342h-2.899l-0.521-1.387h-4.268l-0.504,1.387h-2.917L684.118,187.128z
			 M685.433,196.671l-1.171-3.35l-1.206,3.35H685.433z"/>
		<path fill="#F2F2F2" d="M694.18,200.47h-2.575v-13.144h0.685l6.5,7.562v-7.273h2.593v13.126h-0.685l-6.518-7.274V200.47z"/>
		<path fill="#F2F2F2" d="M708.111,200.47h-3.835v-12.874h3.835C716.682,187.596,716.682,200.47,708.111,200.47z M706.852,190.171
			v7.724h1.26c5.006,0,5.006-7.724,0-7.724H706.852z"/>
		<path fill="#F2F2F2" d="M504.273,211.627c-5.096,0-5.096,7.851,0,7.851c1.116,0,1.999-0.324,2.484-0.576l0.342,2.665
			c-0.792,0.324-1.927,0.54-2.827,0.54c-8.733,0-8.715-13.072,0-13.072c0.9,0,1.764,0.162,2.539,0.505l-0.306,2.646
			C506.02,211.934,505.389,211.627,504.273,211.627z"/>
		<path fill="#F2F2F2" d="M515.343,208.98c8.858,0,8.858,13.27,0,13.27C506.485,222.25,506.484,208.98,515.343,208.98z
			 M515.343,211.627c-5.149,0-5.149,7.959,0,7.959C520.492,219.586,520.492,211.627,515.343,211.627z"/>
		<path fill="#F2F2F2" d="M535.378,208.998h0.811v13.072h-2.611l0.019-7.185l-3.295,3.457l-3.296-3.457v7.185h-2.61v-13.072h0.828
			l5.078,5.654L535.378,208.998z"/>
		<path fill="#F2F2F2" d="M550.065,208.998h0.811v13.072h-2.611l0.019-7.185l-3.295,3.457l-3.296-3.457v7.185h-2.61v-13.072h0.828
			l5.078,5.654L550.065,208.998z"/>
		<path fill="#F2F2F2" d="M553.697,217.587v-8.391h2.575v8.373c0,2.7,4.177,2.7,4.177,0v-8.373h2.557v8.391
			C563.006,223.709,553.697,223.709,553.697,217.587z"/>
		<path fill="#F2F2F2" d="M568.423,222.07h-2.575v-13.144h0.685l6.5,7.562v-7.273h2.593v13.126h-0.685l-6.518-7.274V222.07z"/>
		<path fill="#F2F2F2" d="M578.52,222.07v-12.874h2.575v12.874H578.52z"/>
		<path fill="#F2F2F2" d="M589.951,211.627c-5.096,0-5.096,7.851,0,7.851c1.116,0,1.998-0.324,2.484-0.576l0.342,2.665
			c-0.792,0.324-1.926,0.54-2.826,0.54c-8.732,0-8.715-13.072,0-13.072c0.9,0,1.765,0.162,2.539,0.505l-0.307,2.646
			C591.697,211.934,591.067,211.627,589.951,211.627z"/>
		<path fill="#F2F2F2" d="M599.095,208.729h0.27l5.42,13.342h-2.899l-0.521-1.387h-4.268l-0.504,1.387h-2.917L599.095,208.729z
			 M600.409,218.271l-1.171-3.35l-1.206,3.35H600.409z"/>
		<path fill="#F2F2F2" d="M607.86,222.07v-10.299h-3.205v-2.557h8.984v2.557h-3.205v10.299H607.86z"/>
		<path fill="#F2F2F2" d="M615.581,222.07v-12.874h2.575v12.874H615.581z"/>
		<path fill="#F2F2F2" d="M627.246,208.98c8.859,0,8.859,13.27,0,13.27C618.388,222.25,618.388,208.98,627.246,208.98z
			 M627.246,211.627c-5.149,0-5.149,7.959,0,7.959C632.396,219.586,632.396,211.627,627.246,211.627z"/>
		<path fill="#F2F2F2" d="M638.874,222.07h-2.575v-13.144h0.685l6.5,7.562v-7.273h2.593v13.126h-0.685l-6.518-7.274V222.07z"/>
		<path fill="#F2F2F2" d="M656.208,222.07v-10.299h-3.205v-2.557h8.984v2.557h-3.205v10.299H656.208z"/>
		<path fill="#F2F2F2" d="M663.929,222.07v-12.874h6.446v2.575h-3.871v2.574h3.385v2.575h-3.385v2.574h4.087v2.575L663.929,222.07
			L663.929,222.07z"/>
		<path fill="#F2F2F2" d="M678.961,211.627c-5.096,0-5.096,7.851,0,7.851c1.116,0,1.998-0.324,2.484-0.576l0.342,2.665
			c-0.792,0.324-1.926,0.54-2.826,0.54c-8.732,0-8.715-13.072,0-13.072c0.9,0,1.765,0.162,2.539,0.505l-0.307,2.646
			C680.707,211.934,680.077,211.627,678.961,211.627z"/>
		<path fill="#F2F2F2" d="M690.265,222.07v-5.149h-3.853v5.149h-2.575v-12.874h2.575v5.149h3.853v-5.149h2.575v12.874H690.265z"/>
		<path fill="#F2F2F2" d="M698.31,222.07h-2.575v-13.144h0.685l6.5,7.562v-7.273h2.593v13.126h-0.685l-6.518-7.274V222.07z"/>
		<path fill="#F2F2F2" d="M714.6,208.98c8.859,0,8.859,13.27,0,13.27C705.741,222.25,705.741,208.98,714.6,208.98z M714.6,211.627
			c-5.149,0-5.149,7.959,0,7.959C719.75,219.586,719.75,211.627,714.6,211.627z"/>
		<path fill="#F2F2F2" d="M726.228,209.196v10.299h4.087v2.575h-6.662v-12.874H726.228z"/>
		<path fill="#F2F2F2" d="M738.721,208.98c8.858,0,8.858,13.27,0,13.27C729.861,222.25,729.861,208.98,738.721,208.98z
			 M738.721,211.627c-5.15,0-5.15,7.959,0,7.959C743.87,219.586,743.87,211.627,738.721,211.627z"/>
		<path fill="#F2F2F2" d="M753.732,222.143c-8.499,0-8.931-12.73,0-13.054c1.53-0.055,2.772,0.396,3.007,0.468l-0.307,2.61
			c-0.504-0.216-1.332-0.504-2.7-0.468c-5.204,0.18-4.97,7.868,0,7.868c0.234,0,0.486-0.036,0.72-0.072v-3.871h2.611v5.654
			C756.073,221.836,754.957,222.143,753.732,222.143z"/>
		<path fill="#F2F2F2" d="M763.038,216.272l-4.483-7.076h3.133l2.629,4.43l2.629-4.43h3.15l-4.501,7.076v5.798h-2.557
			L763.038,216.272L763.038,216.272z"/>
	</g>
</g>
<g id="Layer_1_1_" display="none">
	
		<image display="inline" overflow="visible" enable-background="new    " width="980" height="300" xlink:href="B66879D5.png"  transform="matrix(0.9999 0 0 0.9999 0.0613 0.0188)">
	</image>
	<rect x="312" y="55" display="inline" fill="#133E54" width="71" height="27"/>
	<path display="inline" fill="#133E54" d="M444,40"/>
</g>
<g id="Layer_5">
	<polyline fill="#E08D4F" points="428,39 484,39 484,26 780,26 779.577,145.846 737.5,157 707,157 664,144.846 616.5,155.875 
		483,171.938 446,167.094 424.5,170.047 428.167,37.773 	"/>
	<polygon fill="#133E54" points="736,28 780,28 779.938,42 753,42 753,148 736,152 	"/>
	<polygon fill="#133E54" points="635,27 707,27 707,76 600,76 600,41 635,41 	"/>
	<rect x="424" y="42" fill="#133E54" width="44" height="42"/>
	<rect x="479" y="42" fill="#133E54" width="26" height="42"/>
	<rect x="514" y="42" fill="#133E54" width="19" height="42"/>
	<rect x="542" y="42" fill="#133E54" width="16" height="42"/>
	<rect x="567" y="42" fill="#133E54" width="15" height="42"/>
	<rect x="590" y="42" fill="#133E54" width="5" height="42"/>
	<polygon fill="#133E54" points="448,90 448,164 459,165.667 459,90 	"/>
	<polygon fill="#133E54" points="468,90 468,166 483,169 483,90 	"/>
	<polygon fill="#133E54" points="492,90 492,168 512,165.667 512,90 	"/>
	<polygon fill="#133E54" points="522,90 522,164 536,162.667 536,90 	"/>
	<polygon fill="#133E54" points="547,90 547,161 555,160 555,90 	"/>
	<polygon fill="#133E54" points="564,90 564,159 572,157.333 572,90 	"/>
	<polygon fill="#133E54" points="581,90 590,90 590,156 581,157.667 	"/>
	<polygon fill="#133E54" points="600,90 609,90 609,153 600,155 	"/>
	<line fill="none" stroke="#133E54" stroke-width="3" stroke-miterlimit="10" x1="619" y1="91.5" x2="438" y2="91.5"/>
	<line fill="none" stroke="#133E54" stroke-width="3" stroke-miterlimit="10" x1="449.25" y1="113.25" x2="438" y2="117.652"/>
	<line fill="none" stroke="#133E54" stroke-width="3" stroke-miterlimit="10" x1="449.25" y1="139.75" x2="438" y2="144.096"/>
	<rect x="454.5" y="113.5" fill="none" stroke="#133E54" stroke-width="3" stroke-miterlimit="10" width="78" height="25"/>
	<line fill="none" stroke="#133E54" stroke-width="3" stroke-miterlimit="10" x1="535" y1="113.5" x2="550" y2="113.5"/>
	<line fill="none" stroke="#133E54" stroke-width="3" stroke-miterlimit="10" x1="532" y1="138.5" x2="550" y2="138.5"/>
	<line fill="none" stroke="#133E54" stroke-width="3" stroke-miterlimit="10" x1="553" y1="111.5" x2="567" y2="111.5"/>
	<line fill="none" stroke="#133E54" stroke-width="3" stroke-miterlimit="10" x1="569" y1="111.5" x2="582" y2="111.5"/>
	<line fill="none" stroke="#133E54" stroke-width="3" stroke-miterlimit="10" x1="588" y1="109.5" x2="602" y2="109.5"/>
	<line fill="none" stroke="#133E54" stroke-width="3" stroke-miterlimit="10" x1="606" y1="109.5" x2="619" y2="109.5"/>
	<line fill="none" stroke="#133E54" stroke-width="3" stroke-miterlimit="10" x1="619" y1="132.5" x2="588" y2="132.5"/>
	<line fill="none" stroke="#133E54" stroke-width="3" stroke-miterlimit="10" x1="582" y1="135.5" x2="569" y2="135.5"/>
	<line fill="none" stroke="#133E54" stroke-width="3" stroke-miterlimit="10" x1="566" y1="136.5" x2="553" y2="136.5"/>
	<rect x="611" y="28" fill="#133E54" width="18" height="8"/>
	<polyline fill="#133E54" points="603,28 589,28 589,36 603,36 603,30 	"/>
	<rect x="563" y="28" fill="#133E54" width="20" height="8"/>
	<rect x="543" y="28" fill="#133E54" width="13" height="8"/>
	<polygon fill="#133E54" points="619,88 619,153 663.625,142 702,152 702,88 	"/>
	<line fill="none" stroke="#133E54" stroke-width="3" stroke-miterlimit="10" x1="737" y1="29.5" x2="706" y2="29.5"/>
	<line fill="none" stroke="#133E54" stroke-width="3" stroke-miterlimit="10" x1="737" y1="42.5" x2="704" y2="42.5"/>
	<line fill="none" stroke="#133E54" stroke-width="3" stroke-miterlimit="10" x1="737" y1="63.5" x2="702" y2="63.5"/>
	<line fill="none" stroke="#133E54" stroke-width="3" stroke-miterlimit="10" x1="740" y1="84.5" x2="704" y2="84.5"/>
	<line fill="none" stroke="#133E54" stroke-width="3" stroke-miterlimit="10" x1="740" y1="106.5" x2="706" y2="106.5"/>
	<line fill="none" stroke="#133E54" stroke-width="3" stroke-miterlimit="10" x1="739" y1="127.5" x2="704" y2="127.5"/>
	<line fill="none" stroke="#133E54" stroke-width="3" stroke-miterlimit="10" x1="737" y1="148.5" x2="706" y2="148.5"/>
	<line fill="none" stroke="#133E54" stroke-width="3" stroke-miterlimit="10" x1="751" y1="63.5" x2="780" y2="63.5"/>
	<line fill="none" stroke="#133E54" stroke-width="3" stroke-miterlimit="10" x1="779.794" y1="84" x2="751" y2="84.5"/>
	<line fill="none" stroke="#133E54" stroke-width="3" stroke-miterlimit="10" x1="779.731" y1="101.667" x2="751" y2="105"/>
	<line fill="none" stroke="#133E54" stroke-width="3" stroke-miterlimit="10" x1="751" y1="127" x2="779.658" y2="122.5"/>
	<line fill="none" stroke="#133E54" stroke-width="3" stroke-miterlimit="10" x1="779.601" y1="138.5" x2="751" y2="146.667"/>
</g>
<g id="Layer_6">
	<polygon fill="#EFEFEF" points="632,76 632,90 667,90 667,164 675,164 675,90 702,90 702,158 707,157.667 707,76 	"/>
</g>
<g id="Layer_2">
	<path fill="#E08D4F" d="M45,253.75c0,0,126,36.931,389,3.317V85h-6l0.167-48H419l-0.167-20H377v16h-6v7h-3l0.063-1H340l-0.063,4
		H329v10h-12v-5l-36,0.063V46v-6l-26.063-0.063L255,19.063l-48-0.125l-26.031,4L180.891,41L175,41.063L174.333,52L45,56.333V253.75z
		"/>
	<path fill="#133E54" d="M45,60v102c0,0,100,38.765,363,5.151V92l-170.393,1.202l-0.232-38.729C237.375,54.472,82,53.689,45,60z"/>
	<path fill="none" stroke="#133E54" stroke-width="3" stroke-miterlimit="10" d="M45,214.75c0,0,126,36.931,389,3.317"/>
	<path fill="none" stroke="#133E54" stroke-width="3" stroke-miterlimit="10" d="M45,171.75c0,0,126,36.931,389,3.317"/>
	<line fill="none" stroke="#133E54" stroke-width="14" stroke-miterlimit="10" x1="72" y1="163" x2="72" y2="221"/>
	<line fill="none" stroke="#133E54" stroke-width="14" stroke-miterlimit="10" x1="94" y1="166" x2="94" y2="224"/>
	<line fill="none" stroke="#133E54" stroke-width="14" stroke-miterlimit="10" x1="122" y1="170" x2="122" y2="228"/>
	<line fill="none" stroke="#133E54" stroke-width="17" stroke-miterlimit="10" x1="156.5" y1="171" x2="156.5" y2="229"/>
	<line fill="none" stroke="#133E54" stroke-width="22" stroke-miterlimit="10" x1="287" y1="172" x2="287" y2="230"/>
	<line fill="none" stroke="#133E54" stroke-width="22" stroke-miterlimit="10" x1="328" y1="170" x2="328" y2="228"/>
	<line fill="none" stroke="#133E54" stroke-width="22" stroke-miterlimit="10" x1="370" y1="167" x2="370" y2="225"/>
	<line fill="none" stroke="#133E54" stroke-width="15" stroke-miterlimit="10" x1="400.5" y1="164" x2="400.5" y2="222"/>
	<path fill="none" stroke="#133E54" stroke-width="3" stroke-miterlimit="10" d="M45,249.75c0,0,126,36.931,389,3.317"/>
	<path fill="none" stroke="#133E54" stroke-width="3" stroke-miterlimit="10" d="M434,134c0,0-17.667,3.183-26,1.591"/>
	<line fill="none" stroke="#133E54" stroke-width="3" stroke-miterlimit="10" x1="434" y1="92.333" x2="408" y2="93.667"/>
	<rect x="239" y="52" fill="#133E54" width="76" height="34"/>
	<polyline fill="none" stroke="#133E54" stroke-width="3" stroke-miterlimit="10" points="255,23.5 207,23.5 180.951,27 	"/>
	<line fill="none" stroke="#133E54" stroke-width="3" stroke-miterlimit="10" x1="377" y1="21.5" x2="419" y2="21.5"/>
	<line fill="none" stroke="#133E54" stroke-width="2" stroke-miterlimit="10" x1="428" y1="42" x2="340" y2="42"/>
	<polygon fill="#133E54" points="336,66 336,84 407,84 407,57 336,57 	"/>
	<path fill="#F7F7F7" d="M44.875,59.571c0,0-18.813,0.59-18.813-2.785s55.156-4.893,55.156-4.893L230,49v-4h52v6l49-0.25V45h112v21
		h-3v119h-6V85h-6V66h-97l-0.333-9H282l-22-3h-30C230,54,74.417,55.142,44.875,59.571z"/>
	<line fill="none" stroke="#133E54" stroke-width="3" stroke-miterlimit="10" x1="464" y1="63.5" x2="606" y2="63.5"/>
	<line fill="none" stroke="#133E54" stroke-width="3" stroke-miterlimit="10" x1="485" y1="29.5" x2="543" y2="29.5"/>
	<path fill="none" stroke="#133E54" stroke-width="3" stroke-miterlimit="10" d="M448,91.5"/>
	<g opacity="0.2">
		<path fill="#F2F2F2" d="M181.067,124.921h4.511l0.376,2.406h0.15c1.542-1.542,3.196-2.857,5.639-2.857
			c2.632,0,4.211,1.128,5.15,3.121c1.654-1.692,3.383-3.121,5.864-3.121c4.023,0,5.827,2.857,5.827,7.518v11.578h-5.526v-10.864
			c0-2.706-0.714-3.533-2.293-3.533c-0.94,0-1.993,0.601-3.196,1.804v12.593h-5.526v-10.864c0-2.706-0.714-3.533-2.293-3.533
			c-0.903,0-1.993,0.601-3.158,1.804v12.593h-5.526v-18.645H181.067z"/>
		<path fill="#F2F2F2" d="M223.09,131.575c-0.113-1.655-0.94-2.707-2.933-2.707c-1.579,0-3.158,0.639-4.962,1.692l-1.955-3.647
			c2.368-1.429,5.038-2.444,7.97-2.444c4.774,0,7.406,2.707,7.406,8.421v10.676h-4.511l-0.414-1.917h-0.113
			c-1.579,1.391-3.346,2.368-5.451,2.368c-3.383,0-5.526-2.481-5.526-5.639C212.601,134.469,215.721,132.326,223.09,131.575z
			 M220.007,139.732c1.278,0,2.105-0.601,3.083-1.579v-3.27c-3.947,0.526-5.226,1.654-5.226,3.083
			C217.864,139.169,218.691,139.732,220.007,139.732z"/>
		<path fill="#F2F2F2" d="M233.349,124.921h4.511l0.376,2.368h0.15c1.579-1.504,3.459-2.82,5.977-2.82
			c4.06,0,5.789,2.857,5.789,7.518v11.578h-5.526v-10.864c0-2.706-0.715-3.533-2.294-3.533c-1.39,0-2.255,0.639-3.458,1.804v12.593
			h-5.526L233.349,124.921L233.349,124.921z"/>
		<path fill="#F2F2F2" d="M254.396,119.282c0-1.691,1.354-2.857,3.196-2.857c1.88,0,3.195,1.166,3.195,2.857
			c0,1.692-1.315,2.895-3.195,2.895C255.75,122.177,254.396,120.974,254.396,119.282z M254.848,124.921h5.526v18.645h-5.526V124.921
			z"/>
		<path fill="#F2F2F2" d="M270.747,145.033v5.451h-5.526v-25.562h4.511l0.376,1.842h0.15c1.466-1.316,3.346-2.294,5.301-2.294
			c4.511,0,7.293,3.722,7.293,9.473c0,6.391-3.834,10.075-7.857,10.075c-1.617,0-3.12-0.714-4.436-1.955L270.747,145.033z
			 M273.717,139.507c1.917,0,3.458-1.654,3.458-5.489c0-3.346-1.015-5.037-3.233-5.037c-1.127,0-2.105,0.526-3.195,1.691v7.631
			C271.724,139.206,272.777,139.507,273.717,139.507z"/>
		<path fill="#F2F2F2" d="M296.157,131.575c-0.113-1.655-0.94-2.707-2.933-2.707c-1.579,0-3.158,0.639-4.962,1.692l-1.955-3.647
			c2.368-1.429,5.038-2.444,7.97-2.444c4.774,0,7.406,2.707,7.406,8.421v10.676h-4.511l-0.414-1.917h-0.113
			c-1.579,1.391-3.346,2.368-5.451,2.368c-3.383,0-5.526-2.481-5.526-5.639C285.668,134.469,288.788,132.326,296.157,131.575z
			 M293.074,139.732c1.278,0,2.105-0.601,3.083-1.579v-3.27c-3.947,0.526-5.225,1.654-5.225,3.083
			C290.931,139.169,291.758,139.732,293.074,139.732z"/>
		<path fill="#F2F2F2" d="M306.416,117.215h5.526v20.788c0,1.166,0.526,1.541,0.977,1.541c0.226,0,0.376,0,0.677-0.075l0.677,4.098
			c-0.602,0.263-1.542,0.451-2.782,0.451c-3.797,0-5.075-2.481-5.075-6.24L306.416,117.215L306.416,117.215z"/>
		<path fill="#F2F2F2" d="M320.361,137.063c1.917,0,3.346,1.504,3.346,3.496c0,1.955-1.429,3.459-3.346,3.459
			s-3.346-1.504-3.346-3.459C317.015,138.567,318.444,137.063,320.361,137.063z"/>
		<path fill="#F2F2F2" d="M336.147,124.47c5.301,0,7.932,3.872,7.932,8.947c0,0.977-0.113,1.879-0.226,2.33h-11.165
			c0.488,2.82,2.368,4.06,4.849,4.06c1.391,0,2.669-0.414,4.023-1.241l1.842,3.346c-1.917,1.316-4.399,2.105-6.616,2.105
			c-5.338,0-9.436-3.609-9.436-9.774C327.35,128.192,331.674,124.47,336.147,124.47z M339.379,132.326
			c0-2.142-0.902-3.646-3.12-3.646c-1.729,0-3.233,1.165-3.609,3.646H339.379z"/>
		<path fill="#F2F2F2" d="M354.676,124.47c2.068,0,3.308,0.752,4.586,1.955l-0.226-2.857v-6.353h5.526v26.352h-4.511l-0.376-1.842
			h-0.15c-1.316,1.316-3.158,2.293-4.962,2.293c-4.624,0-7.631-3.684-7.631-9.774C346.932,128.154,350.729,124.47,354.676,124.47z
			 M355.992,139.507c1.203,0,2.143-0.451,3.045-1.692v-7.631c-0.977-0.903-2.067-1.203-3.082-1.203
			c-1.767,0-3.346,1.654-3.346,5.188C352.609,137.853,353.849,139.507,355.992,139.507z"/>
		<path fill="#F2F2F2" d="M369.259,124.921h5.526v10.864c0,2.669,0.714,3.534,2.331,3.534c1.391,0,2.218-0.602,3.308-2.068v-12.33
			h5.526v18.645h-4.511l-0.414-2.594h-0.112c-1.579,1.88-3.309,3.045-5.865,3.045c-4.06,0-5.789-2.857-5.789-7.518L369.259,124.921
			L369.259,124.921z"/>
	</g>
	<g opacity="0.4">
		<path fill="#DDA650" d="M136.895,91.859c0,1.965-0.219,7.657-6.11,6.65c-5.61-0.959-14.418-5.498-18.754-12.68
			c-3.611-5.981-1.403-13.821,6.006-13.821S136.895,84.226,136.895,91.859z"/>
		<path fill="#DDA650" d="M89.404,106.154c0,0-0.948-3.794,19.241-4.471h41.597c0,0,3.523-0.271,5.149,0.948
			c1.626,1.219,5.335,9.553,5.335,9.553s0.813,1.931-0.356,3.76s-2.896,3.201-4.471,3.354s-6.402,0.356-8.181,1.016
			s-3.15,0.864-3.963,2.896s-0.762,3.658-0.711,5.183c0.051,1.524,0,17.581,0,17.581s-0.051,2.642-1.016,3.404
			c-0.965,0.762-1.931,1.067-2.693,1.067s-2.845-0.864-3.404-1.829c-0.559-0.965-1.423-2.845-1.423-6.097s0-16.467,0-16.467
			s-0.152-2.13-0.813-3.756s-1.575-1.728-2.693-1.728c-1.118,0-3.201,0.661-3.506,2.947c-0.305,2.287-0.406,2.541-0.406,3.15
			c0,0.61,0,17.936,0,17.936s0.254,1.728-0.508,3.862s-3.455,1.982-3.862,1.982c-0.406,0-4.573-0.254-4.776-4.421
			s-0.406-6.453-0.406-7.164s-0.406-15.447-0.406-15.447s-0.152-1.575-1.169-2.49c-1.016-0.915-2.693-1.016-2.693-1.016
			s-2.541-0.051-2.947,2.49s-0.711,5.183-0.711,6.351s-0.254,14.024-0.254,14.024s-0.254,2.591-1.169,3.557
			c-0.915,0.965-2.337,1.423-3.252,1.423s-2.947-0.813-3.608-2.337s-1.27-4.624-1.372-6.097s-0.406-3.862-0.406-4.878
			s-0.051-12.093-0.254-13.008c-0.203-0.915-0.305-1.931-0.864-2.998s-4.776-3.506-4.776-3.506s-3.252-2.032-3.963-4.167
			C88.98,108.627,89.404,106.154,89.404,106.154z"/>
	</g>
</g>
</svg>
