<?xml version="1.0" encoding="utf-8"?>
<!-- Generator: Adobe Illustrator 17.0.0, SVG Export Plug-In . SVG Version: 6.00 Build 0)  -->
<!DOCTYPE svg PUBLIC "-//W3C//DTD SVG 1.1//EN" "http://www.w3.org/Graphics/SVG/1.1/DTD/svg11.dtd">
<svg version="1.1" id="Layer_1" xmlns="http://www.w3.org/2000/svg" xmlns:xlink="http://www.w3.org/1999/xlink" x="0px" y="0px"
	 width="480px" height="320px" viewBox="0 0 480 320" enable-background="new 0 0 480 320" xml:space="preserve">
<path fill="#C98847" d="M88.454,94.264c0,0,23.411-27.118,13.296-50.193S79.643,16,79.643,16H52.459L36.678,28.523L19,43.97v14.856
	l14.24,35.398L88.454,94.264z"/>
<path fill="#C98847" d="M27.002,137.977c0,0,0.588,12.105,8.174,10.419c0,0,4.874-2.617,1.392-5.524
	c-3.492-2.916-1.488-4.871-1.488-4.871H27"/>
<path fill="#21201F" stroke="#21201F" stroke-miterlimit="10" d="M31.597,91.858c0,0-31.655-39.348-4.405-70.685l1.054,1.97
	l1.17-8.306l2.126,4.737l2.386-9.011l3.572,4.502V7.303l5.875,4.443l6.288-7.476l1.84,7.95l2.105-9.719l3.779,3.556l1.178-1.787
	l5.923,3.92l2.355-3.92l2.584,7.002L76.5,4.27v5.562l5-4.012v6.699l8.528-3.854l-0.727,8.06l5.199-0.948v5.277l1-0.062v3.539
	l4.135,0.728l-1.692,4.03c0,0,6.029,8.771,5.792,23.469L86.48,23.836l-8.272-4.741c0,0-4.52,7.349-11.38,8.06
	c0,0-6.38-0.237-12.306-6.875l-7.346,4.741L30.11,56.55l-1.659-12.801c0,0-5.89-1.42-8.771,2.134c0,0-2.133,5.452,2.371,6.401
	l3.793,0.474l-3.082,13.275L31.597,91.858z"/>
<path fill="#E74C3C" d="M33.13,93.972l55.32-0.065c0,0,5.43,19.093-2.867,37.093h-47.19c0,0-0.695,4-0.458,8H25.749
	C25.749,139,24.533,117.49,33.13,93.972z"/>
<path fill="#21201F" d="M69.528,147.597l3.372,9.061l25.077-10.326c0,0-0.211-5.69-8.851-3.688l-7.586,2.9l-1.739-3.322
	L69.528,147.597z"/>
<path fill="#C98847" d="M88.178,135.479c0,0,1.739,10.589,5.057,9.009c3.319-1.58,3.477-6.954,3.161-9.009
	S88.178,135.479,88.178,135.479"/>
<path fill="#C0392B" d="M38.393,132c0,0-0.393-11.061,2.607-27.498V132H38.393z"/>
<path fill="#C0392B" d="M88.566,94.74c0,0,7.514,16.26,9.411,41.26H87v-7.159C87,128.841,92.612,112.836,88.566,94.74z"/>
<path fill="#2C3E50" d="M38.393,130.409c0,0-0.221,2.351-0.506,5.67c0,0,2.56,1.767,5.247,2.538l-1.422,3.611l10.747,2.086
	L53.882,140h12.96l2.687,7.433l10.273-5.292l-2.213-3.575c0,0,6.823-5.372,7.995-8.059L38.393,130.409z"/>
<path fill="#21201F" d="M41.861,141.851l10.724,2.259l-1.179,2.96c0,0,16.542,9.272,9.061,9.588s-14.962-1.37-14.962-1.37
	l-6.427-5.85L41.861,141.851z"/>
<path fill="#A06835" d="M25.749,45.866c0,0-3.319-0.851-4.583,1.313c0,0-0.632,3.428,4.583,3.744c0,0-3.568-1.795-2.687-3.082
	C23.062,47.842,23.171,46.512,25.749,45.866z"/>
<path fill="#A06835" d="M69.597,49.537L72.545,62h-7.126c0,0,4.518-0.936,4.518-2.596S69.597,49.537,69.597,49.537z"/>
<path fill="#21201F" d="M59.586,41.813c0,1.898-1.274,3.437-2.845,3.437s-2.845-1.539-2.845-3.437s1.274-2.664,2.845-2.664
	S59.586,39.915,59.586,41.813z"/>
<path fill="#21201F" d="M79.816,41.813c0,1.898-1.274,3.437-2.845,3.437s-2.845-1.539-2.845-3.437s1.274-2.664,2.845-2.664
	S79.816,39.915,79.816,41.813z"/>
<path fill="#EAE7E5" d="M79.327,72.815c0,0-2.371,2.739-5.426,3.424c-3.056,0.685-7.692,0.671-7.692,0.671l-7.586-1.428L53.882,73
	h15.172L79.327,72.815z"/>
<path fill="#A06835" d="M53.882,71H79v2H58.623C58.623,73,54.356,73,53.882,71z"/>
<path fill="#A06835" d="M53.882,72.05c0,0,1.475,1.949,6.103,3.872c0,0,3.011,1.331,5.697,1.331c0,0,5.769,0.186,7.566-0.627
	c0,0,5.341,0.374,6.553-3.626h-1.422c0,0-3.635,3.292-10.721,3.344C67.658,76.344,61.191,76.738,53.882,72.05z"/>
<line fill="none" stroke="#000000" stroke-width="1.5805" stroke-miterlimit="10" x1="56.229" y1="72.83" x2="56.229" y2="72.83"/>
<path fill="#C98847" d="M201.968,93.711c0,0,22.93-27.089,13.023-49.689S193.338,16,193.338,16h-26.626l-15.428,12.793L134,44.45
	v14.551l13.918,34.671L201.968,93.711z"/>
<path fill="#21201F" stroke="#21201F" stroke-width="2" stroke-miterlimit="10" d="M146.279,91.355c0,0-31.004-38.539-4.315-69.232
	l1.033,1.93l1.146-8.136l2.082,4.639l2.807-8.825L153,16.139V8.537l5.285,4.352l5.924-7.322l1.685,7.787l2.003-9.52l3.672,3.483
	l1.139-1.75l5.794,3.84l2.302-3.84l2.899,6.858L191,5.566v5.447l4-3.93v6.561l8.431-3.775l-1.118,7.894L207,16.836v5.169l1-0.06
	v3.466l4.485,0.713l-1.44,3.947c0,0,6.013,8.591,5.781,22.987L199.981,24.73l-8.074-4.644c0,0-4.413,7.198-11.133,7.894
	c0,0-6.242-0.232-12.047-6.733l-7.191,4.644l-16.714,30.881l-1.624-12.538c0,0-5.769-1.391-8.59,2.09c0,0-2.089,5.34,2.322,6.269
	l3.715,0.464l-3.018,13.003L146.279,91.355z"/>
<path fill="#A06835" d="M140.552,46.308c0,0-3.251-0.834-4.489,1.286c0,0-0.619,3.358,4.489,3.668c0,0-3.495-1.758-2.632-3.019
	C137.92,48.243,138.027,46.94,140.552,46.308z"/>
<path fill="#A06835" d="M183.498,50.348L186.386,63h-6.98c0,0,4.426-1.139,4.426-2.765S183.498,50.348,183.498,50.348z"/>
<path fill="#21201F" d="M173.693,42.338c0,1.859-1.247,3.367-2.786,3.367s-2.786-1.507-2.786-3.367c0-1.859,1.247-2.609,2.786-2.609
	S173.693,40.479,173.693,42.338z"/>
<path fill="#21201F" d="M193.508,42.338c0,1.859-1.247,3.367-2.786,3.367s-2.786-1.507-2.786-3.367c0-1.859,1.247-2.609,2.786-2.609
	S193.508,40.479,193.508,42.338z"/>
<path fill="#EAE7E5" d="M193.029,73.187c0,0-2.322,2.282-5.315,2.811s-7.534,0.601-7.534,0.601l-7.43-1.393L168.106,73h14.861
	L193.029,73.187z"/>
<path fill="#A06835" d="M168.106,72h24.745l0,0H172.75C172.75,72,168.57,72,168.106,72z"/>
<path fill="#A06835" d="M168.106,71.953c0,0,1.445,1.909,5.978,3.793c0,0,2.949,1.304,5.58,1.304c0,0,5.65-0.26,7.411-1.056
	c0,0,5.231,0.006,6.418-3.994H192.1c0,0-3.56,3.666-10.501,3.718C181.599,75.718,175.265,76.546,168.106,71.953z"/>
<path fill="#C98847" d="M141.89,134.272c0,0,0.52,12.004,7.951,10.353c0,0,4.746-2.784,1.336-5.632
	c-3.42-2.856-1.485-4.993-1.485-4.993H142"/>
<path fill="#C98847" d="M201.697,134.08c0,0,1.703,10.372,4.954,8.824c3.251-1.548,3.406-6.811,3.096-8.824
	C209.437,132.067,201.697,134.08,201.697,134.08"/>
<path fill="#E74C3C" d="M147.781,93.651l54.184-0.022c0,0,5.318,18.372-2.808,36.372h-46.221c0,0-0.681,4-0.449,7h-11.935
	C140.552,137,139.36,116.685,147.781,93.651z"/>
<path fill="#C0392B" d="M152.936,130c0,0,0.064-10.162,3.064-26.261V130H152.936z"/>
<path fill="#C0392B" d="M202.306,93.883c0,0,7.132,15.117,8.989,40.117H201v-6.422C201,127.578,206.268,111.607,202.306,93.883z"/>
<path fill="#21201F" d="M199.438,130h-46.502l-0.501,5.814c0,0,2.566,1.206,4.566,1.361v18.421l33.572-0.048
	c0,0-0.553-5.009-9.893-6.454L168,146.309v-6.502l13-0.076v8.745c0,0,8.52,0.661,10.274,7.524h18.628c0,0,0.464-5.878-9.598-8.458
	l-8.411-3.919l-0.103-6.184C191.79,137.439,198.287,132,199.438,130z"/>
<path fill="#2C3E50" d="M181,143v-3.269l-13,0.076v3.715l-11-0.077v-6.269c-2-0.155-4.566-1.566-4.566-1.566l0.511-6.484
	l46.497,0.464c-1.151,2.786-7.65,7.332-7.65,7.332l0.101,6.077L181,143L181,143z"/>
<path fill="#C98847" d="M448.968,93.711c0,0,22.93-27.089,13.023-49.689C452.084,21.421,440.338,16,440.338,16h-26.626
	l-15.428,12.793L381,44.45v14.551l13.918,34.671L448.968,93.711z"/>
<path fill="#21201F" stroke="#21201F" stroke-width="2" stroke-miterlimit="10" d="M393.279,91.355c0,0-31.004-38.539-4.315-69.232
	l1.033,1.93l1.146-8.136l2.082,4.639l2.807-8.825L400,16.139V8.537l5.285,4.352l5.924-7.322l1.685,7.787l2.003-9.52l3.672,3.483
	l1.139-1.75l5.794,3.84l2.302-3.84l2.899,6.858L438,5.566v5.447l4-3.93v6.561l8.431-3.775l-1.118,7.894L454,16.836v5.169l1-0.06
	v3.466l4.485,0.713l-1.44,3.947c0,0,6.013,8.591,5.781,22.987L446.981,24.73l-8.074-4.644c0,0-4.414,7.198-11.133,7.894
	c0,0-6.242-0.232-12.047-6.733l-7.191,4.644l-16.714,30.881l-1.624-12.538c0,0-5.769-1.391-8.59,2.09c0,0-2.089,5.34,2.322,6.269
	l3.715,0.464l-3.018,13.003L393.279,91.355z"/>
<path fill="#A06835" d="M387.552,46.308c0,0-3.251-0.834-4.489,1.286c0,0-0.619,3.358,4.489,3.668c0,0-3.495-1.758-2.632-3.019
	C384.92,48.243,385.027,46.94,387.552,46.308z"/>
<path fill="#A06835" d="M430.498,50.348L433.386,63h-6.98c0,0,4.426-1.139,4.426-2.765S430.498,50.348,430.498,50.348z"/>
<path fill="#21201F" d="M420.693,42.338c0,1.859-1.247,3.367-2.786,3.367s-2.786-1.507-2.786-3.367c0-1.859,1.247-2.609,2.786-2.609
	C419.446,39.729,420.693,40.479,420.693,42.338z"/>
<path fill="#21201F" d="M440.508,42.338c0,1.859-1.247,3.367-2.786,3.367s-2.786-1.507-2.786-3.367c0-1.859,1.247-2.609,2.786-2.609
	S440.508,40.479,440.508,42.338z"/>
<path fill="#EAE7E5" d="M440.029,73.187c0,0-2.322,2.282-5.315,2.811s-7.534,0.601-7.534,0.601l-7.43-1.393L415.106,73h14.861
	L440.029,73.187z"/>
<path fill="#A06835" d="M415.106,72h24.745l0,0H419.75C419.75,72,415.57,72,415.106,72z"/>
<path fill="#A06835" d="M415.106,71.953c0,0,1.445,1.909,5.978,3.793c0,0,2.949,1.304,5.58,1.304c0,0,5.65-0.26,7.411-1.056
	c0,0,5.231,0.006,6.418-3.994H439.1c0,0-3.56,3.666-10.501,3.718C428.599,75.718,422.265,76.546,415.106,71.953z"/>
<path fill="#C98847" d="M388.89,134.272c0,0,0.52,12.004,7.951,10.353c0,0,4.746-2.784,1.336-5.632
	c-3.42-2.856-1.485-4.993-1.485-4.993H389"/>
<path fill="#C98847" d="M448.697,134.08c0,0,1.703,10.372,4.954,8.824c3.251-1.548,3.406-6.811,3.096-8.824
	S448.697,134.08,448.697,134.08"/>
<path fill="#E74C3C" d="M394.781,93.651l54.184-0.022c0,0,5.318,18.372-2.808,36.372h-46.221c0,0-0.681,4-0.449,7h-11.935
	C387.552,137,386.36,116.685,394.781,93.651z"/>
<path fill="#C0392B" d="M399.936,130c0,0,0.064-10.162,3.064-26.261V130H399.936z"/>
<path fill="#C0392B" d="M449.306,93.883c0,0,7.132,15.117,8.989,40.117H448v-6.422C448,127.578,453.268,111.607,449.306,93.883z"/>
<path fill="#21201F" d="M446.438,130h-46.502l-0.501,5.814c0,0,2.566,1.206,4.566,1.361v18.421l33.572-0.048
	c0,0-0.553-5.009-9.893-6.454L415,146.309v-6.502l13-0.076v8.745c0,0,8.52,0.661,10.274,7.524h18.628c0,0,0.464-5.878-9.598-8.458
	l-8.411-3.919l-0.103-6.184C438.79,137.439,445.287,132,446.438,130z"/>
<path fill="#2C3E50" d="M428,143v-3.269l-13,0.076v3.715l-11-0.077v-6.269c-2-0.155-4.566-1.566-4.566-1.566l0.511-6.484
	l46.497,0.464c-1.151,2.786-7.65,7.332-7.65,7.332l0.101,6.077L428,143L428,143z"/>
<path fill="#C98847" d="M333.301,93.002c0,0,22.714-26.345,12.9-48.733C336.387,21.882,324.752,17,324.752,17h-26.375
	l-15.269,12.185L266,44.206V58.62l13.773,34.344L333.301,93.002z"/>
<path fill="#21201F" stroke="#21201F" stroke-miterlimit="10" d="M278.136,90.668c0,0-30.712-38.176-4.274-68.58L274.885,24
	l1.135-8.059l2.063,4.595l2.134-8.742l3.284,4.368V8.631l5.882,4.311l6.192-7.253l1.831,7.713l2.065-9.43l3.678,3.45l1.149-1.733
	l5.749,3.803l2.286-3.803l2.906,6.793l7.262-6.793v5.396l5-3.893v6.499l7.801-3.739l-1.275,7.82l4.475-0.92v5.12l2-0.06v3.433
	l3.83,0.707l-1.733,3.91c0,0,5.804,8.51,5.574,22.77l-16.763-28.06l-8.037-4.6c0,0-4.391,7.13-11.047,7.82
	c0,0-6.193-0.23-11.943-6.67l-7.128,4.6l-16.559,30.59l-1.61-12.42c0,0-5.715-1.378-8.51,2.07c0,0-2.07,5.29,2.3,6.21l3.68,0.46
	l-2.99,12.88L278.136,90.668z"/>
<path fill="#A06835" d="M272.463,46.046c0,0-3.22-0.826-4.447,1.274c0,0-0.613,3.326,4.447,3.633c0,0-3.462-1.741-2.607-2.99
	C269.856,47.963,269.962,46.672,272.463,46.046z"/>
<path fill="#A06835" d="M315.005,49.758L317.865,62h-6.914c0,0,4.384-0.983,4.384-2.593S315.005,49.758,315.005,49.758z"/>
<path fill="#21201F" d="M305.292,42.114c0,1.842-1.236,3.335-2.76,3.335s-2.76-1.493-2.76-3.335s1.236-2.584,2.76-2.584
	S305.292,40.272,305.292,42.114z"/>
<path fill="#21201F" d="M324.92,42.114c0,1.842-1.236,3.335-2.76,3.335s-2.76-1.493-2.76-3.335s1.236-2.584,2.76-2.584
	S324.92,40.272,324.92,42.114z"/>
<path fill="#EAE7E5" d="M324.445,72.006c0,0-2.3,2.75-5.265,3.415c-2.965,0.664-7.463,0.698-7.463,0.698l-7.36-1.548l-4.6-2.57
	h14.721L324.445,72.006z"/>
<path fill="#A06835" d="M299.757,71H324v1h-19.642C304.358,72,300.217,72,299.757,71z"/>
<path fill="#A06835" d="M299.757,71.45c0,0,1.431,1.891,5.922,3.757c0,0,2.921,1.292,5.528,1.292c0,0,5.597-0.005,7.341-0.794
	c0,0,5.182,0.296,6.358-3.704h-1.38c0,0-3.527,3.379-10.402,3.43C313.124,75.43,306.849,75.999,299.757,71.45z"/>
<line fill="none" stroke="#000000" stroke-width="1.5334" stroke-miterlimit="10" x1="302.034" y1="71.996" x2="302.034" y2="71.996"/>
<path fill="#C98847" d="M273.34,133.225c0,0,0.74,11.869,8.1,10.233c0,0,4.814-2.725,1.435-5.546
	c-3.388-2.829-1.359-4.912-1.359-4.912H273"/>
<path fill="#C98847" d="M333.032,132.99c0,0,1.687,10.274,4.907,8.74c3.22-1.533,3.373-6.747,3.067-8.74
	S333.032,132.99,333.032,132.99"/>
<path fill="#E74C3C" d="M279.624,93.501l53.673-0.276c0,0,5.268,17.775-2.782,35.775H284.73c0,0-0.675,4-0.445,8h-11.823
	C272.463,137,271.282,116.319,279.624,93.501z"/>
<path fill="#C0392B" d="M284.73,129c0,0,0.27-10.117,2.27-26.065V129H284.73z"/>
<path fill="#C0392B" d="M333.464,93.217c0,0,7.235,15.783,9.075,39.783H332v-6.45C332,126.55,337.389,110.774,333.464,93.217z"/>
<path fill="#2C3E50" d="M284.73,129.003c0,0-0.89,5.367-0.445,7.054l23.369,12.267l2.607,1.993l5.904-7.514l-12.467-8.28
	l0.821-0.285l11.289,7.39c0,0,8-4.089,14.708-12.472L284.73,129.003z"/>
<polygon fill="#2C3E50" points="295.237,142.105 306,148.069 306,148 293.47,148 "/>
<path fill="#21201F" d="M310.261,150.318l5.904-7.514l1.942,1.687c0,0,7.551-6.506,11.756-6.849c0,0,2.556,3.016,1.789,5.086
	c-0.767,2.07-12.727,13.315-12.727,13.315L310.261,150.318z"/>
<polygon fill="#21201F" points="294,149.244 294,156 317.468,156 309.277,150.568 305.146,149.084 "/>
<path fill="#C98847" d="M453.361,251.527l14.24-35.398v-14.856l-17.678-15.447l-15.781-12.523h-27.184
	c0,0-11.992,4.996-22.107,28.071c-10.115,23.075,13.296,50.193,13.296,50.193L453.361,251.527z"/>
<path fill="#C98847" d="M459.601,295.304h-8.08c0,0,2.004,1.955-1.488,4.871c-3.482,2.907,1.392,5.524,1.392,5.524
	c7.586,1.686,8.174-10.419,8.174-10.419"/>
<path fill="#21201F" stroke="#21201F" stroke-miterlimit="10" d="M463.839,223.336l-3.082-13.275l3.793-0.474
	c4.504-0.949,2.371-6.401,2.371-6.401c-2.881-3.554-8.771-2.134-8.771-2.134l-1.659,12.801l-17.066-31.529l-7.346-4.741
	c-5.926,6.638-12.306,6.875-12.306,6.875c-6.86-0.711-11.38-8.06-11.38-8.06l-8.272,4.741l-17.255,28.922
	c-0.237-14.698,5.792-23.469,5.792-23.469l-1.692-4.03l4.135-0.728v-3.539l1,0.062v-5.277l5.199,0.948l-0.727-8.06l8.528,3.854
	v-6.699l5,4.012v-5.562l7.073,7.002l2.584-7.002l2.355,3.92l5.923-3.92l1.178,1.787l3.779-3.556l2.105,9.719l1.84-7.95l6.288,7.476
	l5.875-4.443v7.762l3.572-4.502l2.386,9.011l2.126-4.737l1.17,8.306l1.054-1.97c27.25,31.337-4.405,70.685-4.405,70.685
	L463.839,223.336z"/>
<path fill="#E74C3C" d="M460.852,296.303h-12.186c0.237-4-0.458-8-0.458-8h-47.19c-8.297-18-2.867-37.093-2.867-37.093l55.32,0.065
	C462.068,274.793,460.852,296.303,460.852,296.303z"/>
<path fill="#21201F" d="M406.8,299.525l-1.739,3.322l-7.586-2.9c-8.64-2.002-8.851,3.688-8.851,3.688l25.077,10.326l3.372-9.061
	L406.8,299.525z"/>
<path fill="#C98847" d="M398.423,292.782c0,0-7.902-2.055-8.218,0c-0.316,2.055-0.158,7.429,3.161,9.009
	C396.684,303.371,398.423,292.782,398.423,292.782"/>
<path fill="#C0392B" d="M445.601,289.303v-27.498c3,16.437,2.607,27.498,2.607,27.498H445.601z"/>
<path fill="#C0392B" d="M399.601,286.144v7.159h-10.977c1.897-25,9.411-41.26,9.411-41.26
	C393.989,270.139,399.601,286.144,399.601,286.144z"/>
<path fill="#2C3E50" d="M401.017,287.81c1.172,2.687,7.995,8.059,7.995,8.059l-2.213,3.575l10.273,5.292l2.687-7.433h12.96
	l1.423,4.314l10.747-2.086l-1.422-3.611c2.687-0.771,5.247-2.538,5.247-2.538c-0.285-3.319-0.506-5.67-0.506-5.67L401.017,287.81z"
	/>
<path fill="#21201F" d="M447.523,306.741l-6.427,5.85c0,0-7.481,1.686-14.962,1.37c-7.481-0.316,9.061-9.588,9.061-9.588
	l-1.179-2.96l10.724-2.259L447.523,306.741z"/>
<path fill="#A06835" d="M463.539,205.144c0.881,1.287-2.687,3.082-2.687,3.082c5.215-0.316,4.583-3.744,4.583-3.744
	c-1.264-2.164-4.583-1.313-4.583-1.313C463.43,203.815,463.539,205.145,463.539,205.144z"/>
<path fill="#A06835" d="M416.664,216.707c0,1.66,4.518,2.596,4.518,2.596h-7.126l2.948-12.463
	C417.004,206.84,416.664,215.047,416.664,216.707z"/>
<path fill="#21201F" d="M429.86,196.452c1.571,0,2.845,0.766,2.845,2.664s-1.274,3.437-2.845,3.437
	c-1.571,0-2.845-1.539-2.845-3.437S428.289,196.452,429.86,196.452z"/>
<path fill="#21201F" d="M409.63,196.452c1.571,0,2.845,0.766,2.845,2.664s-1.274,3.437-2.845,3.437
	c-1.571,0-2.845-1.539-2.845-3.437S408.059,196.452,409.63,196.452z"/>
<path fill="#EAE7E5" d="M417.547,230.303h15.172l-4.741,2.482l-7.586,1.428c0,0-4.636,0.014-7.692-0.671
	c-3.055-0.685-5.426-3.424-5.426-3.424L417.547,230.303z"/>
<path fill="#A06835" d="M427.978,230.303h-20.377v-2h25.118C432.245,230.303,427.978,230.303,427.978,230.303z"/>
<path fill="#A06835" d="M418.943,233.647c-7.086-0.052-10.721-3.344-10.721-3.344H406.8c1.212,4,6.553,3.626,6.553,3.626
	c1.797,0.813,7.566,0.627,7.566,0.627c2.686,0,5.697-1.331,5.697-1.331c4.628-1.923,6.103-3.872,6.103-3.872
	C425.41,234.041,418.943,233.647,418.943,233.647z"/>
<line fill="none" stroke="#000000" stroke-width="1.5805" stroke-miterlimit="10" x1="430.372" y1="230.133" x2="430.372" y2="230.133"/>
<path fill="#C98847" d="M338.683,250.975l13.918-34.671v-14.551l-17.284-15.657l-15.428-12.793h-26.626
	c0,0-11.746,5.422-21.653,28.022s13.023,49.689,13.023,49.689L338.683,250.975z"/>
<path fill="#21201F" stroke="#21201F" stroke-width="2" stroke-miterlimit="10" d="M348.974,223.363l-3.018-13.003l3.715-0.464
	c4.411-0.929,2.322-6.269,2.322-6.269c-2.821-3.481-8.59-2.09-8.59-2.09l-1.624,12.538l-16.714-30.881l-7.191-4.644
	c-5.805,6.501-12.047,6.733-12.047,6.733c-6.72-0.696-11.133-7.894-11.133-7.894l-8.074,4.644l-16.845,28.328
	c-0.232-14.396,5.781-22.987,5.781-22.987l-1.44-3.947l4.485-0.713v-3.466l1,0.06v-5.169l4.687,0.927l-1.118-7.894l8.431,3.775
	v-6.561l4,3.93v-5.447l7.297,6.859l2.899-6.858l2.302,3.84l5.794-3.84l1.139,1.75l3.672-3.483l2.003,9.52l1.685-7.787l5.924,7.322
	l5.285-4.352v7.602l3.968-4.408l2.807,8.825l2.082-4.639l1.146,8.136l1.033-1.93c26.689,30.693-4.315,69.232-4.315,69.232
	L348.974,223.363z"/>
<path fill="#A06835" d="M348.681,205.546c0.863,1.261-2.632,3.019-2.632,3.019c5.108-0.31,4.489-3.668,4.489-3.668
	c-1.238-2.12-4.489-1.286-4.489-1.286C348.574,204.243,348.681,205.546,348.681,205.546z"/>
<path fill="#A06835" d="M302.769,217.538c0,1.626,4.426,2.765,4.426,2.765h-6.98l2.888-12.652
	C303.103,207.651,302.769,215.912,302.769,217.538z"/>
<path fill="#21201F" d="M315.694,197.032c1.539,0,2.786,0.75,2.786,2.609c0,1.86-1.247,3.367-2.786,3.367s-2.786-1.508-2.786-3.367
	C312.908,197.782,314.155,197.032,315.694,197.032z"/>
<path fill="#21201F" d="M295.879,197.032c1.539,0,2.786,0.75,2.786,2.609c0,1.86-1.247,3.367-2.786,3.367s-2.786-1.508-2.786-3.367
	C293.093,197.782,294.34,197.032,295.879,197.032z"/>
<path fill="#EAE7E5" d="M303.634,230.303h14.861l-4.644,2.206l-7.43,1.393c0,0-4.541-0.072-7.534-0.601
	c-2.993-0.529-5.315-2.811-5.315-2.811L303.634,230.303z"/>
<path fill="#A06835" d="M313.851,229.303H293.75l0,0h24.745C318.031,229.303,313.851,229.303,313.851,229.303z"/>
<path fill="#A06835" d="M305.002,233.021c-6.941-0.052-10.501-3.718-10.501-3.718h-1.393c1.187,4,6.418,3.994,6.418,3.994
	c1.761,0.796,7.411,1.056,7.411,1.056c2.631,0,5.58-1.304,5.58-1.304c4.533-1.884,5.978-3.793,5.978-3.793
	C311.336,233.849,305.002,233.021,305.002,233.021z"/>
<path fill="#C98847" d="M344.601,291.303h-7.692c0,0,1.935,2.137-1.485,4.993c-3.41,2.848,1.336,5.632,1.336,5.632
	c7.431,1.651,7.951-10.353,7.951-10.353"/>
<path fill="#C98847" d="M284.904,291.383c0,0-7.74-2.013-8.05,0c-0.31,2.013-0.155,7.276,3.096,8.824
	S284.904,291.383,284.904,291.383"/>
<path fill="#E74C3C" d="M346.049,294.304h-11.935c0.232-3-0.449-7-0.449-7h-46.221c-8.126-18-2.808-36.372-2.808-36.372
	l54.184,0.022C347.241,273.988,346.049,294.303,346.049,294.304z"/>
<path fill="#C0392B" d="M330.601,287.303v-26.261c3,16.099,3.064,26.261,3.064,26.261H330.601z"/>
<path fill="#C0392B" d="M285.601,284.881v6.422h-10.295c1.857-25,8.989-40.117,8.989-40.117
	C280.333,268.91,285.601,284.881,285.601,284.881z"/>
<path fill="#21201F" d="M294.811,294.742l-0.103,6.184l-8.411,3.919c-10.062,2.58-9.598,8.458-9.598,8.458h18.628
	c1.754-6.863,10.274-7.524,10.274-7.524v-8.745l13,0.076v6.502l-12.68,2.785c-9.34,1.445-9.893,6.454-9.893,6.454l33.572,0.048
	v-18.421c2-0.155,4.566-1.361,4.566-1.361l-0.501-5.814h-46.502C288.314,289.303,294.811,294.742,294.811,294.742z"/>
<path fill="#2C3E50" d="M305.601,300.302h-10.893l0.101-6.077c0,0-6.499-4.546-7.65-7.332l46.497-0.464l0.511,6.484
	c0,0-2.566,1.411-4.566,1.566v6.269l-11,0.077v-3.715l-13-0.076V300.302L305.601,300.302z"/>
<path fill="#C98847" d="M91.683,250.975l13.918-34.671v-14.551l-17.284-15.657l-15.428-12.793H46.263
	c0,0-11.746,5.421-21.653,28.022c-9.907,22.6,13.023,49.689,13.023,49.689L91.683,250.975z"/>
<path fill="#21201F" stroke="#21201F" stroke-width="2" stroke-miterlimit="10" d="M101.974,223.363l-3.018-13.003l3.715-0.464
	c4.411-0.929,2.322-6.269,2.322-6.269c-2.821-3.481-8.59-2.09-8.59-2.09l-1.624,12.538l-16.714-30.881l-7.191-4.644
	c-5.805,6.501-12.047,6.733-12.047,6.733c-6.719-0.696-11.133-7.894-11.133-7.894l-8.074,4.644l-16.845,28.328
	c-0.232-14.396,5.781-22.987,5.781-22.987l-1.44-3.947l4.485-0.713v-3.466l1,0.06v-5.169l4.687,0.927l-1.118-7.894l8.431,3.775
	v-6.561l4,3.93v-5.447l7.297,6.859l2.899-6.858l2.302,3.84l5.794-3.84l1.139,1.75l3.672-3.483l2.003,9.52l1.685-7.787l5.924,7.322
	l5.285-4.352v7.602l3.968-4.408l2.807,8.825l2.082-4.639l1.146,8.136l1.033-1.93c26.689,30.693-4.315,69.232-4.315,69.232
	L101.974,223.363z"/>
<path fill="#A06835" d="M101.681,205.546c0.863,1.261-2.632,3.019-2.632,3.019c5.108-0.31,4.489-3.668,4.489-3.668
	c-1.238-2.12-4.489-1.286-4.489-1.286C101.574,204.243,101.681,205.546,101.681,205.546z"/>
<path fill="#A06835" d="M55.769,217.538c0,1.626,4.426,2.765,4.426,2.765h-6.98l2.888-12.652
	C56.103,207.651,55.769,215.912,55.769,217.538z"/>
<path fill="#21201F" d="M68.694,197.032c1.539,0,2.786,0.75,2.786,2.609c0,1.86-1.247,3.367-2.786,3.367s-2.786-1.508-2.786-3.367
	C65.908,197.782,67.155,197.032,68.694,197.032z"/>
<path fill="#21201F" d="M48.879,197.032c1.539,0,2.786,0.75,2.786,2.609c0,1.86-1.247,3.367-2.786,3.367s-2.786-1.508-2.786-3.367
	C46.093,197.782,47.34,197.032,48.879,197.032z"/>
<path fill="#EAE7E5" d="M56.634,230.303h14.861l-4.644,2.206l-7.43,1.393c0,0-4.541-0.072-7.534-0.601
	c-2.993-0.529-5.315-2.811-5.315-2.811L56.634,230.303z"/>
<path fill="#A06835" d="M66.851,229.303H46.75l0,0h24.745C71.031,229.303,66.851,229.303,66.851,229.303z"/>
<path fill="#A06835" d="M58.002,233.021c-6.941-0.052-10.501-3.718-10.501-3.718h-1.393c1.187,4,6.418,3.994,6.418,3.994
	c1.761,0.796,7.411,1.056,7.411,1.056c2.631,0,5.58-1.304,5.58-1.304c4.533-1.884,5.978-3.793,5.978-3.793
	C64.336,233.849,58.002,233.021,58.002,233.021z"/>
<path fill="#C98847" d="M97.601,291.303h-7.692c0,0,1.935,2.137-1.485,4.993c-3.41,2.848,1.336,5.632,1.336,5.632
	c7.431,1.651,7.951-10.353,7.951-10.353"/>
<path fill="#C98847" d="M37.904,291.383c0,0-7.74-2.013-8.05,0s-0.155,7.276,3.096,8.824S37.904,291.383,37.904,291.383"/>
<path fill="#E74C3C" d="M99.049,294.304H87.114c0.232-3-0.449-7-0.449-7H40.444c-8.126-18-2.808-36.372-2.808-36.372l54.184,0.022
	C100.241,273.988,99.049,294.303,99.049,294.304z"/>
<path fill="#C0392B" d="M83.601,287.303v-26.261c3,16.099,3.064,26.261,3.064,26.261H83.601z"/>
<path fill="#C0392B" d="M38.601,284.881v6.422H28.306c1.857-25,8.989-40.117,8.989-40.117
	C33.333,268.91,38.601,284.881,38.601,284.881z"/>
<path fill="#21201F" d="M47.811,294.742l-0.103,6.184l-8.411,3.919c-10.062,2.58-9.598,8.458-9.598,8.458h18.628
	c1.754-6.863,10.274-7.524,10.274-7.524v-8.745l13,0.076v6.502l-12.68,2.785c-9.34,1.445-9.893,6.454-9.893,6.454l33.572,0.048
	v-18.421c2-0.155,4.566-1.361,4.566-1.361l-0.501-5.814H40.163C41.314,289.303,47.811,294.742,47.811,294.742z"/>
<path fill="#2C3E50" d="M58.601,300.302H47.708l0.101-6.077c0,0-6.499-4.546-7.65-7.332l46.497-0.464l0.511,6.484
	c0,0-2.566,1.411-4.566,1.566v6.269l-11,0.077v-3.715l-13-0.076V300.302L58.601,300.302z"/>
<path fill="#C98847" d="M206.828,250.267l13.773-34.344v-14.414l-17.108-15.021l-15.269-12.185h-26.375
	c0,0-11.635,4.882-21.449,27.269c-9.814,22.388,12.9,48.733,12.9,48.733L206.828,250.267z"/>
<path fill="#21201F" stroke="#21201F" stroke-miterlimit="10" d="M217.035,222.915l-2.99-12.88l3.68-0.46
	c4.37-0.92,2.3-6.21,2.3-6.21c-2.795-3.448-8.51-2.07-8.51-2.07l-1.61,12.42l-16.559-30.59l-7.128-4.6
	c-5.75,6.44-11.943,6.67-11.943,6.67c-6.656-0.69-11.047-7.82-11.047-7.82l-8.037,4.6l-16.763,28.06
	c-0.23-14.26,5.574-22.77,5.574-22.77l-1.733-3.91l3.83-0.707v-3.433l2,0.06v-5.12l4.475,0.92l-1.275-7.82l7.801,3.739v-6.499
	l5,3.893v-5.396l7.262,6.793l2.906-6.793l2.286,3.803l5.749-3.803l1.149,1.733l3.678-3.45l2.065,9.43l1.831-7.713l6.192,7.253
	l5.882-4.311v7.531l3.284-4.368l2.134,8.742l2.063-4.595l1.135,8.059l1.023-1.912c26.438,30.404-4.274,68.58-4.274,68.58
	L217.035,222.915z"/>
<path fill="#A06835" d="M216.745,205.266c0.855,1.249-2.607,2.99-2.607,2.99c5.06-0.307,4.447-3.633,4.447-3.633
	c-1.227-2.1-4.447-1.274-4.447-1.274C216.639,203.975,216.745,205.266,216.745,205.266z"/>
<path fill="#A06835" d="M171.266,216.71c0,1.61,4.384,2.593,4.384,2.593h-6.914l2.86-12.242
	C171.596,207.061,171.266,215.1,171.266,216.71z"/>
<path fill="#21201F" d="M184.069,196.833c1.524,0,2.76,0.742,2.76,2.584c0,1.842-1.236,3.335-2.76,3.335s-2.76-1.493-2.76-3.335
	C181.309,197.575,182.545,196.833,184.069,196.833z"/>
<path fill="#21201F" d="M164.441,196.833c1.524,0,2.76,0.742,2.76,2.584c0,1.842-1.236,3.335-2.76,3.335s-2.76-1.493-2.76-3.335
	C161.681,197.575,162.917,196.833,164.441,196.833z"/>
<path fill="#EAE7E5" d="M172.123,229.304h14.721l-4.6,2.57l-7.36,1.548c0,0-4.498-0.034-7.463-0.698
	c-2.965-0.665-5.265-3.415-5.265-3.415L172.123,229.304z"/>
<path fill="#A06835" d="M182.243,229.303h-19.642v-1h24.243C186.384,229.303,182.243,229.303,182.243,229.303z"/>
<path fill="#A06835" d="M173.477,232.734c-6.875-0.051-10.402-3.43-10.402-3.43h-1.38c1.176,4,6.358,3.704,6.358,3.704
	c1.744,0.789,7.341,0.794,7.341,0.794c2.607,0,5.528-1.292,5.528-1.292c4.491-1.866,5.922-3.757,5.922-3.757
	C179.752,233.302,173.477,232.733,173.477,232.734z"/>
<line fill="none" stroke="#000000" stroke-width="1.5334" stroke-miterlimit="10" x1="184.567" y1="229.299" x2="184.567" y2="229.299"/>
<path fill="#C98847" d="M213.601,290.303h-8.516c0,0,2.029,2.083-1.359,4.912c-3.379,2.821,1.435,5.546,1.435,5.546
	c7.36,1.636,8.1-10.233,8.1-10.233"/>
<path fill="#C98847" d="M153.569,290.293c0,0-7.668-1.993-7.974,0s-0.153,7.207,3.067,8.74
	C151.882,300.567,153.569,290.293,153.569,290.293"/>
<path fill="#E74C3C" d="M214.139,294.303h-11.823c0.23-4-0.445-8-0.445-8h-45.785c-8.05-18-2.782-35.775-2.782-35.775l53.673,0.276
	C215.319,273.622,214.138,294.303,214.139,294.303z"/>
<path fill="#C0392B" d="M199.601,286.303v-26.065c2,15.948,2.27,26.065,2.27,26.065H199.601z"/>
<path fill="#C0392B" d="M154.601,283.853v6.45h-10.539c1.84-24,9.075-39.783,9.075-39.783
	C149.212,268.077,154.601,283.853,154.601,283.853z"/>
<path fill="#2C3E50" d="M156.085,286.459c6.708,8.383,14.708,12.472,14.708,12.472l11.289-7.39l0.821,0.285l-12.467,8.28
	l5.904,7.514l2.607-1.993l23.369-12.267c0.445-1.687-0.445-7.054-0.445-7.054L156.085,286.459z"/>
<polygon fill="#2C3E50" points="193.131,305.303 180.601,305.303 180.601,305.372 191.364,299.408 "/>
<path fill="#21201F" d="M167.676,313.346c0,0-11.96-11.245-12.727-13.315c-0.767-2.07,1.789-5.086,1.789-5.086
	c4.205,0.343,11.756,6.849,11.756,6.849l1.942-1.687l5.904,7.514L167.676,313.346z"/>
<polygon fill="#21201F" points="181.455,306.387 177.324,307.871 169.133,313.303 192.601,313.303 192.601,306.547 "/>
</svg>
