<?xml version="1.0" encoding="utf-8"?>
<!-- Generator: Adobe Illustrator 17.0.0, SVG Export Plug-In . SVG Version: 6.00 Build 0)  -->
<!DOCTYPE svg PUBLIC "-//W3C//DTD SVG 1.1//EN" "http://www.w3.org/Graphics/SVG/1.1/DTD/svg11.dtd">
<svg version="1.1" id="Layer_1" xmlns="http://www.w3.org/2000/svg" xmlns:xlink="http://www.w3.org/1999/xlink" x="0px" y="0px"
	 width="100px" height="100px" viewBox="0 0 100 100" enable-background="new 0 0 100 100" xml:space="preserve">
<g id="Layer_2_1_">
	<path fill="#939393" d="M9.851,43.269"/>
	<path fill="#939393" d="M97.024,57.729C96.977,82.668,70.248,99,50.7,99C29.393,99,3.777,85.066,3.777,60.127"/>
</g>
<g id="Layer_2_2_">
	<path fill="#939393" d="M9.851,80"/>
	<path fill="#939393" d="M3.777,60.127c0-24.939,25.616-41.956,46.923-41.956c19.548,0,46.277,16.332,46.324,41.271"/>
</g>
<g id="Layer_1_1_">
	<ellipse fill="#CCAD29" cx="50.582" cy="57.917" rx="40.757" ry="34.917"/>
	<polygon points="51.452,73.164 21.321,55.224 51.205,37.285 80.87,55.224 	"/>
	<path stroke="#CCAD29" stroke-width="0.7832" stroke-miterlimit="10" d="M32.249,72.578V56.952c0,0,16.077-14.124,37.231,0v15.625
		c0,0-8.97-7.357-18.615,0.902C50.864,73.479,43.249,63.713,32.249,72.578z"/>
</g>
<g id="Layer_2">
	<polygon stroke="#000000" stroke-width="0.8033" stroke-miterlimit="10" points="23.685,57.055 23.685,65.028 23.685,72.325 
		26.389,72.325 24.684,65.354 24.394,57.261 	"/>
</g>
</svg>
