<?xml version="1.0" encoding="utf-8"?>
<!-- Generator: Adobe Illustrator 17.0.0, SVG Export Plug-In . SVG Version: 6.00 Build 0)  -->
<!DOCTYPE svg PUBLIC "-//W3C//DTD SVG 1.1//EN" "http://www.w3.org/Graphics/SVG/1.1/DTD/svg11.dtd">
<svg version="1.1" id="Layer_1" xmlns="http://www.w3.org/2000/svg" xmlns:xlink="http://www.w3.org/1999/xlink" x="0px" y="0px"
	 width="100px" height="100px" viewBox="0 0 100 100" enable-background="new 0 0 100 100" xml:space="preserve">
<g id="Layer_2">
	<path fill="#939393" d="M97.024,58.629C96.977,83.568,70.248,98.9,50.7,98.9c-21.307,0-46.923-13.934-46.923-38.873"/>
</g>
<g id="Layer_2_1_">
	<path fill="#939393" d="M3.777,60.502c0-24.939,25.616-41.873,46.923-41.873c19.548,0,46.277,15.332,46.324,40.271"/>
</g>
<g id="Layer_1_1_">
	<ellipse fill="#1D9E51" cx="50.617" cy="58.553" rx="40.792" ry="34.886"/>
</g>
<path d="M38.337,33.203c0,0,12.238-6.426,23.671,0.213l-7.862,11.133l6.775,35.127l-10.163,7.485l-11.292-7.726l7.622-34.886
	L38.337,33.203z"/>
<path fill="none" stroke="#1D9E51" stroke-width="1.5664" stroke-miterlimit="10" d="M58.239,46.481c0,0-5.787-7.002-17.079,0"/>
</svg>
