<?xml version="1.0" encoding="utf-8"?>
<!-- Generator: Adobe Illustrator 17.0.0, SVG Export Plug-In . SVG Version: 6.00 Build 0)  -->
<!DOCTYPE svg PUBLIC "-//W3C//DTD SVG 1.1//EN" "http://www.w3.org/Graphics/SVG/1.1/DTD/svg11.dtd">
<svg version="1.1" id="Layer_1" xmlns="http://www.w3.org/2000/svg" xmlns:xlink="http://www.w3.org/1999/xlink" x="0px" y="0px"
	 width="6400px" height="250px" viewBox="0 0 6400 250" enable-background="new 0 0 6400 250" xml:space="preserve">
<g id="Layer_1_2_">
	<line fill="none" stroke="#494949" stroke-width="3" stroke-miterlimit="10" x1="1286.5" y1="250" x2="1397.5" y2="32.5"/>
	<g id="Layer_1_1_" display="none">
		<g display="inline">
			<polygon fill="#8E5E32" points="438.749,251 451.249,251 451.358,158.664 446.102,74 			"/>
			<polyline fill="#634125" points="445.749,131 445.749,251 453.749,251 			"/>
			<polygon fill="#C0392B" points="444.749,24 444.749,217 478.749,217 			"/>
			<polyline fill="#E74C3C" points="410.749,217 444.749,24 444.749,217 			"/>
		</g>
		<g display="inline">
			<ellipse fill="#F1C40F" cx="241.378" cy="136.922" rx="74.849" ry="82.064"/>
			<polygon fill="#8E5E32" points="231.129,250 253.074,250 247.358,187.467 242.102,130.129 			"/>
			<path fill="#F39C12" d="M241.979,54.858c41.338,0,74.849,36.741,74.849,82.064s-33.511,82.064-74.849,82.064"/>
			<polygon fill="#634125" points="272.083,172.516 247.057,187.355 246.378,179.935 			"/>
			<polygon fill="#8E5E32" points="240.106,171.346 189.137,150.953 239.79,174.795 			"/>
			<polyline fill="#634125" points="241.748,130 241.748,250 252.748,250 			"/>
		</g>
		<g display="inline">
			<polygon fill="#8E5E32" points="1251.749,249 1264.249,249 1260.749,157.667 1258.749,136.333 			"/>
			<polyline fill="#634125" points="1258.749,129 1258.749,249 1266.749,249 			"/>
			<polygon fill="#D35400" points="1258.749,76 1258.749,212 1361.749,212 			"/>
			<polygon fill="#E67E22" points="1258.749,76 1258.749,212 1155.749,212 			"/>
		</g>
		<g display="inline">
			<polygon fill="#8E5E32" points="1453.749,250 1466.249,250 1462.749,158.667 1460.749,137.333 			"/>
			<polyline fill="#634125" points="1460.749,130 1460.749,250 1468.749,250 			"/>
			<path fill="#E74C3C" d="M1460.749,216c-31.48,0-65.256-14.664-54.467-62.336L1460.749,50V216z"/>
			<path fill="#C0392B" d="M1460.749,216c32,0,65.256-14.664,54.467-62.336L1460.749,50V216z"/>
		</g>
		<g display="inline">
			<ellipse fill="#2ECC71" cx="347.552" cy="121.697" rx="85.589" ry="93.839"/>
			<polygon fill="#8E5E32" points="335.833,251 360.926,251 354.39,179.495 348.379,113.93 			"/>
			<path fill="#27AE60" d="M348.239,27.858c47.27,0,85.589,42.013,85.589,93.839s-38.32,93.839-85.589,93.839"/>
			<polygon fill="#634125" points="382.663,162.398 354.046,179.366 353.269,170.882 			"/>
			<polygon fill="#8E5E32" points="346.097,161.06 287.815,137.741 345.736,165.004 			"/>
			<polyline fill="#634125" points="347.749,114 347.749,251 360.749,251 			"/>
		</g>
		<g display="inline">
			<ellipse fill="#2ECC71" cx="1358.378" cy="135.922" rx="74.849" ry="82.064"/>
			<polygon fill="#8E5E32" points="1348.129,249 1370.074,249 1364.358,186.467 1359.102,129.129 			"/>
			<path fill="#27AE60" d="M1358.979,53.858c41.338,0,74.849,36.741,74.849,82.064s-33.511,82.064-74.849,82.064"/>
			<polygon fill="#634125" points="1389.083,171.516 1364.057,186.355 1363.377,178.935 			"/>
			<polygon fill="#8E5E32" points="1357.106,170.346 1306.137,149.953 1356.79,173.795 			"/>
			<polyline fill="#634125" points="1358.749,129 1358.749,249 1369.749,249 			"/>
		</g>
		<g display="inline">
			<ellipse fill="#E74C3C" cx="2019.497" cy="150.091" rx="66.795" ry="73.233"/>
			<polygon fill="#8E5E32" points="2010.352,251 2029.935,251 2024.834,195.196 2020.143,144.029 			"/>
			<path fill="#C0392B" d="M2020.034,76.858c36.89,0,66.794,32.787,66.794,73.233s-29.905,73.233-66.794,73.233"/>
			<polygon fill="#634125" points="2046.898,181.854 2024.565,195.096 2023.959,188.475 			"/>
			<polygon fill="#8E5E32" points="2018.362,180.81 1972.878,162.612 2018.08,183.888 			"/>
			<polyline fill="#634125" points="2019.749,144 2019.749,251 2029.749,251 			"/>
		</g>
		<g display="inline">
			<ellipse fill="#E67E22" cx="2846.119" cy="155.518" rx="63.202" ry="69.294"/>
			<polygon fill="#8E5E32" points="2837.465,251 2855.995,251 2851.168,198.198 2846.73,149.782 			"/>
			<path fill="#D35400" d="M2846.626,86.224c34.906,0,63.202,31.024,63.202,69.294s-28.296,69.294-63.202,69.294"/>
			<polygon fill="#634125" points="2872.046,185.573 2850.914,198.103 2850.34,191.838 			"/>
			<polygon fill="#8E5E32" points="2845.044,184.585 2802.007,167.366 2844.778,187.497 			"/>
			<polyline fill="#634125" points="2846.749,150 2846.749,251 2855.749,251 			"/>
		</g>
		<g display="inline">
			<ellipse fill="#F1C40F" cx="3206.583" cy="166.316" rx="56.055" ry="61.458"/>
			<polygon fill="#8E5E32" points="3198.908,251 3215.343,251 3211.062,204.169 3207.125,161.229 			"/>
			<path fill="#F39C12" d="M3207.033,104.858c30.958,0,56.055,27.516,56.055,61.458s-25.096,61.458-56.055,61.458"/>
			<polygon fill="#634125" points="3229.578,192.972 3210.836,204.085 3210.327,198.528 			"/>
			<polygon fill="#8E5E32" points="3205.63,192.096 3167.46,176.824 3205.394,194.679 			"/>
			<polyline fill="#634125" points="3206.749,161 3206.749,251 3215.749,251 			"/>
		</g>
		<g display="inline">
			<ellipse fill="#E67E22" cx="1541.772" cy="163.009" rx="58.244" ry="63.858"/>
			<polygon fill="#8E5E32" points="1533.797,251 1550.874,251 1546.425,202.34 1542.335,157.723 			"/>
			<path fill="#D35400" d="M1542.24,99.151c32.167,0,58.244,28.59,58.244,63.858s-26.077,63.858-58.244,63.858"/>
			<polygon fill="#634125" points="1565.665,190.706 1546.191,202.253 1545.663,196.479 			"/>
			<polygon fill="#8E5E32" points="1540.782,189.796 1501.121,173.927 1540.536,192.479 			"/>
			<polyline fill="#634125" points="1541.749,158 1541.749,251 1550.749,251 			"/>
		</g>
		<g display="inline">
			<polygon fill="#8E5E32" points="2112.749,251 2125.249,251 2125.358,158.664 2120.102,74 			"/>
			<polyline fill="#634125" points="2119.749,131 2119.749,251 2127.749,251 			"/>
			<polygon fill="#F39C12" points="2118.749,24 2118.749,217 2152.749,217 			"/>
			<polyline fill="#F1C40F" points="2084.749,217 2118.749,24 2118.749,217 			"/>
		</g>
		<g display="inline">
			<polygon fill="#8E5E32" points="2210.749,250 2223.249,250 2219.749,158.667 2217.749,137.333 			"/>
			<polyline fill="#634125" points="2217.749,130 2217.749,250 2225.749,250 			"/>
			<polygon fill="#27AE60" points="2217.749,77 2217.749,213 2289.415,213 			"/>
			<polygon fill="#2ECC71" points="2217.749,77 2217.749,213 2146.082,213 			"/>
		</g>
		<g display="inline">
			<polygon fill="#8E5E32" points="2934.186,250 2948.311,250 2944.356,146.793 2942.096,122.687 			"/>
			<polyline fill="#634125" points="2941.749,114 2941.749,250 2950.749,250 			"/>
			<path fill="#E74C3C" d="M2941.749,211.58c-35,0-73.74-16.571-61.547-70.439L2941.749,24V211.58z"/>
			<path fill="#C0392B" d="M2941.749,211.58c37,0,73.739-16.571,61.547-70.439L2941.749,24V211.58z"/>
		</g>
		<g display="inline">
			<polygon fill="#8E5E32" points="1172.475,250 1182.409,250 1179.628,177.414 1178.038,160.46 			"/>
			<polyline fill="#634125" points="1177.749,155 1177.749,250 1184.749,250 			"/>
			<polygon fill="#F39C12" points="1177.749,112.51 1177.749,221 1234.994,221 			"/>
			<polygon fill="#F1C40F" points="1177.749,112.51 1177.749,221 1121.082,221 			"/>
		</g>
	</g>
	<g id="Layer_2" display="none">
		<g display="inline">
			<g>
				<polygon fill="#EE4F57" points="1393.832,195.919 1340.337,195.919 1340.337,15.441 1367.084,-0.048 1393.832,15.441 				"/>
				<path fill="#E6DDE1" d="M1366.24,195.965h-11.888v-23.55h11.888V195.965z M1379.816,172.414h-11.887v23.55h11.887V172.414z"/>
				<rect x="1344.896" y="159.978" fill="#E6DDE1" width="44.377" height="3.46"/>
				<rect x="1344.896" y="147.805" fill="#E6DDE1" width="44.377" height="3.46"/>
				<rect x="1344.896" y="135.633" fill="#E6DDE1" width="44.377" height="3.46"/>
				<rect x="1344.896" y="123.46" fill="#E6DDE1" width="44.377" height="3.46"/>
				<rect x="1344.896" y="111.288" fill="#E6DDE1" width="44.377" height="3.46"/>
				<rect x="1344.896" y="99.116" fill="#E6DDE1" width="44.377" height="3.46"/>
				<rect x="1344.896" y="86.943" fill="#E6DDE1" width="44.377" height="3.46"/>
				<rect x="1344.896" y="74.771" fill="#E6DDE1" width="44.377" height="3.46"/>
				<rect x="1344.896" y="62.599" fill="#E6DDE1" width="44.377" height="3.46"/>
				<rect x="1344.896" y="50.426" fill="#E6DDE1" width="44.377" height="3.46"/>
				<rect x="1344.896" y="38.254" fill="#E6DDE1" width="44.377" height="3.46"/>
				<rect x="1344.896" y="26.081" fill="#E6DDE1" width="44.377" height="3.46"/>
			</g>
			<g>
				<polygon fill="#46474A" points="1270.833,212.13 1217.338,212.13 1217.338,31.652 1244.086,16.163 1270.833,31.652 				"/>
				<g>
					<g>
						<path fill="#E6DDE1" d="M1236.453,178.358v-11.52c0-2.35-1.905-4.256-4.255-4.256s-4.256,1.906-4.256,4.256v11.52H1236.453z"
							/>
						<path fill="#E6DDE1" d="M1236.453,154.487v-11.52c0-2.35-1.905-4.256-4.255-4.256s-4.256,1.905-4.256,4.256v11.52H1236.453z"
							/>
						<path fill="#E6DDE1" d="M1236.453,130.616v-11.52c0-2.349-1.905-4.255-4.255-4.255s-4.256,1.906-4.256,4.255v11.52H1236.453z"
							/>
						<path fill="#E6DDE1" d="M1236.453,106.745v-11.52c0-2.351-1.905-4.256-4.255-4.256s-4.256,1.905-4.256,4.256v11.52
							C1227.942,106.745,1236.453,106.745,1236.453,106.745z"/>
						<path fill="#E6DDE1" d="M1236.453,82.873V71.352c0-2.349-1.905-4.255-4.255-4.255s-4.256,1.906-4.256,4.255v11.521H1236.453z"
							/>
						<path fill="#E6DDE1" d="M1236.453,59.003v-11.52c0-2.351-1.905-4.256-4.255-4.256s-4.256,1.905-4.256,4.256v11.52H1236.453z"
							/>
					</g>
					<g>
						<path fill="#E6DDE1" d="M1260.229,178.358v-11.52c0-2.35-1.905-4.256-4.255-4.256c-2.351,0-4.256,1.906-4.256,4.256v11.52
							H1260.229z"/>
						<path fill="#E6DDE1" d="M1260.229,154.487v-11.52c0-2.35-1.905-4.256-4.255-4.256c-2.351,0-4.256,1.905-4.256,4.256v11.52
							H1260.229z"/>
						<path fill="#E6DDE1" d="M1260.229,130.616v-11.52c0-2.349-1.905-4.255-4.255-4.255c-2.351,0-4.256,1.906-4.256,4.255v11.52
							H1260.229z"/>
						<path fill="#E6DDE1" d="M1260.229,106.745v-11.52c0-2.351-1.905-4.256-4.255-4.256c-2.351,0-4.256,1.905-4.256,4.256v11.52
							C1251.718,106.745,1260.229,106.745,1260.229,106.745z"/>
						<path fill="#E6DDE1" d="M1260.229,82.873V71.352c0-2.349-1.905-4.255-4.255-4.255c-2.351,0-4.256,1.906-4.256,4.255v11.521
							H1260.229z"/>
						<path fill="#E6DDE1" d="M1260.229,59.003v-11.52c0-2.351-1.905-4.256-4.255-4.256c-2.351,0-4.256,1.905-4.256,4.256v11.52
							H1260.229z"/>
					</g>
				</g>
				<path fill="#E6DDE1" d="M1243.241,212.175h-11.887v-23.55h11.887V212.175z M1256.818,188.625h-11.887v23.55h11.887V188.625z"/>
			</g>
			<g>
				<polygon fill="#297F7B" points="1243.847,249.955 1190.352,249.955 1190.352,69.477 1217.1,53.987 1243.847,69.477 				"/>
				<path fill="#E6DDE1" d="M1216.255,250h-11.888v-23.55h11.888V250z M1229.832,226.45h-11.887V250h11.887V226.45z"/>
				<rect x="1194.911" y="210.94" fill="#E6DDE1" width="44.377" height="3.46"/>
				<rect x="1194.911" y="198.767" fill="#E6DDE1" width="44.377" height="3.46"/>
				<rect x="1194.911" y="186.595" fill="#E6DDE1" width="44.377" height="3.46"/>
				<rect x="1194.911" y="174.422" fill="#E6DDE1" width="44.377" height="3.46"/>
				<rect x="1194.911" y="162.25" fill="#E6DDE1" width="44.377" height="3.46"/>
				<rect x="1194.911" y="150.077" fill="#E6DDE1" width="44.377" height="3.46"/>
				<rect x="1194.911" y="137.905" fill="#E6DDE1" width="44.377" height="3.46"/>
				<rect x="1194.911" y="125.732" fill="#E6DDE1" width="44.377" height="3.46"/>
				<rect x="1194.911" y="113.56" fill="#E6DDE1" width="44.377" height="3.46"/>
				<rect x="1194.911" y="101.387" fill="#E6DDE1" width="44.377" height="3.46"/>
				<rect x="1194.911" y="89.215" fill="#E6DDE1" width="44.377" height="3.46"/>
				<rect x="1194.911" y="77.043" fill="#E6DDE1" width="44.377" height="3.46"/>
			</g>
			<g>
				<rect x="1401.689" y="36.933" fill="#297F7B" width="53.496" height="180.478"/>
				<g>
					<g>
						<path fill="#E6DDE1" d="M1420.805,183.639v-11.52c0-2.351-1.906-4.256-4.256-4.256s-4.256,1.905-4.256,4.256v11.52H1420.805z"
							/>
						<path fill="#E6DDE1" d="M1420.805,159.768v-11.521c0-2.349-1.906-4.255-4.256-4.255s-4.256,1.906-4.256,4.255v11.521H1420.805
							z"/>
						<path fill="#E6DDE1" d="M1420.805,135.897v-11.52c0-2.35-1.906-4.256-4.256-4.256s-4.256,1.906-4.256,4.256v11.52H1420.805z"
							/>
						<path fill="#E6DDE1" d="M1420.805,112.026v-11.521c0-2.35-1.906-4.255-4.256-4.255s-4.256,1.905-4.256,4.255v11.521H1420.805z
							"/>
						<path fill="#E6DDE1" d="M1420.805,88.154v-11.52c0-2.349-1.906-4.255-4.256-4.255s-4.256,1.906-4.256,4.255v11.52
							C1412.293,88.154,1420.805,88.154,1420.805,88.154z"/>
						<path fill="#E6DDE1" d="M1420.805,64.284v-11.52c0-2.351-1.906-4.256-4.256-4.256s-4.256,1.905-4.256,4.256v11.52H1420.805z"
							/>
					</g>
					<g>
						<path fill="#E6DDE1" d="M1444.581,183.639v-11.52c0-2.351-1.906-4.256-4.256-4.256s-4.256,1.905-4.256,4.256v11.52H1444.581z"
							/>
						<path fill="#E6DDE1" d="M1444.581,159.768v-11.521c0-2.349-1.906-4.255-4.256-4.255s-4.256,1.906-4.256,4.255v11.521H1444.581
							z"/>
						<path fill="#E6DDE1" d="M1444.581,135.897v-11.52c0-2.35-1.906-4.256-4.256-4.256s-4.256,1.906-4.256,4.256v11.52H1444.581z"
							/>
						<path fill="#E6DDE1" d="M1444.581,112.026v-11.521c0-2.35-1.906-4.255-4.256-4.255s-4.256,1.905-4.256,4.255v11.521H1444.581z
							"/>
						<path fill="#E6DDE1" d="M1444.581,88.154v-11.52c0-2.349-1.906-4.255-4.256-4.255s-4.256,1.906-4.256,4.255v11.52
							C1436.069,88.154,1444.581,88.154,1444.581,88.154z"/>
						<path fill="#E6DDE1" d="M1444.581,64.284v-11.52c0-2.351-1.906-4.256-4.256-4.256s-4.256,1.905-4.256,4.256v11.52H1444.581z"
							/>
					</g>
				</g>
				<path fill="#E6DDE1" d="M1427.593,217.457h-11.888v-23.55h11.888V217.457z M1441.169,193.906h-11.888v23.55h11.888V193.906z"/>
			</g>
			<g>
				<rect x="1154.173" y="69.477" fill="#EE4F57" width="53.495" height="180.478"/>
				<g>
					<g>
						<path fill="#E6DDE1" d="M1173.288,216.183v-11.52c0-2.35-1.905-4.255-4.255-4.255c-2.351,0-4.256,1.905-4.256,4.255v11.52
							H1173.288z"/>
						<path fill="#E6DDE1" d="M1173.288,192.312v-11.52c0-2.35-1.905-4.256-4.255-4.256c-2.351,0-4.256,1.906-4.256,4.256v11.52
							H1173.288z"/>
						<path fill="#E6DDE1" d="M1173.288,168.441V156.92c0-2.349-1.905-4.255-4.255-4.255c-2.351,0-4.256,1.906-4.256,4.255v11.521
							H1173.288z"/>
						<path fill="#E6DDE1" d="M1173.288,144.57v-11.52c0-2.351-1.905-4.256-4.255-4.256c-2.351,0-4.256,1.905-4.256,4.256v11.52
							H1173.288z"/>
						<path fill="#E6DDE1" d="M1173.288,120.698v-11.52c0-2.35-1.905-4.256-4.255-4.256c-2.351,0-4.256,1.906-4.256,4.256v11.52
							H1173.288z"/>
						<path fill="#E6DDE1" d="M1173.288,96.827v-11.52c0-2.35-1.905-4.256-4.255-4.256c-2.351,0-4.256,1.906-4.256,4.256v11.52
							C1164.777,96.827,1173.288,96.827,1173.288,96.827z"/>
					</g>
					<g>
						<path fill="#E6DDE1" d="M1197.064,216.183v-11.52c0-2.35-1.905-4.255-4.255-4.255c-2.351,0-4.256,1.905-4.256,4.255v11.52
							H1197.064z"/>
						<path fill="#E6DDE1" d="M1197.064,192.312v-11.52c0-2.35-1.905-4.256-4.255-4.256c-2.351,0-4.256,1.906-4.256,4.256v11.52
							H1197.064z"/>
						<path fill="#E6DDE1" d="M1197.064,168.441V156.92c0-2.349-1.905-4.255-4.255-4.255c-2.351,0-4.256,1.906-4.256,4.255v11.521
							H1197.064z"/>
						<path fill="#E6DDE1" d="M1197.064,144.57v-11.52c0-2.351-1.905-4.256-4.255-4.256c-2.351,0-4.256,1.905-4.256,4.256v11.52
							H1197.064z"/>
						<path fill="#E6DDE1" d="M1197.064,120.698v-11.52c0-2.35-1.905-4.256-4.255-4.256c-2.351,0-4.256,1.906-4.256,4.256v11.52
							H1197.064z"/>
						<path fill="#E6DDE1" d="M1197.064,96.827v-11.52c0-2.35-1.905-4.256-4.255-4.256c-2.351,0-4.256,1.906-4.256,4.256v11.52
							C1188.553,96.827,1197.064,96.827,1197.064,96.827z"/>
					</g>
				</g>
				<path fill="#E6DDE1" d="M1180.076,250h-11.887v-23.55h11.887V250z M1193.653,226.45h-11.887V250h11.887V226.45z"/>
			</g>
			<g>
				<polygon fill="#297F7B" points="1324.329,249.955 1270.834,249.955 1270.834,72.763 1324.329,55.471 				"/>
				<g>
					<g>
						<path fill="#E6DDE1" d="M1289.949,216.183v-11.52c0-2.35-1.905-4.255-4.256-4.255c-2.35,0-4.255,1.905-4.255,4.255v11.52
							H1289.949z"/>
						<path fill="#E6DDE1" d="M1289.949,192.312v-11.52c0-2.35-1.905-4.256-4.256-4.256c-2.35,0-4.255,1.906-4.255,4.256v11.52
							H1289.949z"/>
						<path fill="#E6DDE1" d="M1289.949,168.441V156.92c0-2.349-1.905-4.255-4.256-4.255c-2.35,0-4.255,1.906-4.255,4.255v11.521
							H1289.949z"/>
						<path fill="#E6DDE1" d="M1289.949,144.57v-11.52c0-2.351-1.905-4.256-4.256-4.256c-2.35,0-4.255,1.905-4.255,4.256v11.52
							H1289.949z"/>
						<path fill="#E6DDE1" d="M1289.949,120.698v-11.52c0-2.35-1.905-4.256-4.256-4.256c-2.35,0-4.255,1.906-4.255,4.256v11.52
							H1289.949z"/>
						<path fill="#E6DDE1" d="M1289.949,96.827v-11.52c0-2.35-1.905-4.256-4.256-4.256c-2.35,0-4.255,1.906-4.255,4.256v11.52
							C1281.438,96.827,1289.949,96.827,1289.949,96.827z"/>
					</g>
					<g>
						<path fill="#E6DDE1" d="M1313.724,216.183v-11.52c0-2.35-1.905-4.255-4.255-4.255s-4.255,1.905-4.255,4.255v11.52H1313.724z"
							/>
						<path fill="#E6DDE1" d="M1313.724,192.312v-11.52c0-2.35-1.905-4.256-4.255-4.256s-4.255,1.906-4.255,4.256v11.52H1313.724z"
							/>
						<path fill="#E6DDE1" d="M1313.724,168.441V156.92c0-2.349-1.905-4.255-4.255-4.255s-4.255,1.906-4.255,4.255v11.521H1313.724z
							"/>
						<path fill="#E6DDE1" d="M1313.724,144.57v-11.52c0-2.351-1.905-4.256-4.255-4.256s-4.255,1.905-4.255,4.256v11.52H1313.724z"
							/>
						<path fill="#E6DDE1" d="M1313.724,120.698v-11.52c0-2.35-1.905-4.256-4.255-4.256s-4.255,1.906-4.255,4.256v11.52H1313.724z"
							/>
						<path fill="#E6DDE1" d="M1313.724,96.827v-11.52c0-2.35-1.905-4.256-4.255-4.256s-4.255,1.906-4.255,4.256v11.52
							C1305.214,96.827,1313.724,96.827,1313.724,96.827z"/>
					</g>
				</g>
				<path fill="#E6DDE1" d="M1296.737,250h-11.888v-23.55h11.888V250z M1310.313,226.45h-11.887V250h11.887V226.45z"/>
			</g>
			<g>
				<polygon fill="#D8AB56" points="1213.173,249.955 1159.678,249.955 1159.678,128.443 1186.426,112.954 1213.173,128.443 				"/>
				<g>
					<g>
						<path fill="#E6DDE1" d="M1178.793,216.183v-11.52c0-2.35-1.905-4.255-4.255-4.255s-4.256,1.905-4.256,4.255v11.52H1178.793z"
							/>
						<path fill="#E6DDE1" d="M1178.793,192.312v-11.52c0-2.35-1.905-4.256-4.255-4.256s-4.256,1.906-4.256,4.256v11.52H1178.793z"
							/>
						<path fill="#E6DDE1" d="M1178.793,168.441V156.92c0-2.349-1.905-4.255-4.255-4.255s-4.256,1.906-4.256,4.255v11.521H1178.793z
							"/>
						<path fill="#E6DDE1" d="M1178.793,144.57v-11.52c0-2.351-1.905-4.256-4.255-4.256s-4.256,1.905-4.256,4.256v11.52H1178.793z"
							/>
					</g>
					<g>
						<path fill="#E6DDE1" d="M1202.569,216.183v-11.52c0-2.35-1.905-4.255-4.256-4.255c-2.35,0-4.255,1.905-4.255,4.255v11.52
							H1202.569z"/>
						<path fill="#E6DDE1" d="M1202.569,192.312v-11.52c0-2.35-1.905-4.256-4.256-4.256c-2.35,0-4.255,1.906-4.255,4.256v11.52
							H1202.569z"/>
						<path fill="#E6DDE1" d="M1202.569,168.441V156.92c0-2.349-1.905-4.255-4.256-4.255c-2.35,0-4.255,1.906-4.255,4.255v11.521
							H1202.569z"/>
						<path fill="#E6DDE1" d="M1202.569,144.57v-11.52c0-2.351-1.905-4.256-4.256-4.256c-2.35,0-4.255,1.905-4.255,4.256v11.52
							H1202.569z"/>
					</g>
				</g>
				<path fill="#E6DDE1" d="M1185.581,250h-11.888v-23.55h11.888V250z M1199.158,226.45h-11.888V250h11.888V226.45z"/>
			</g>
			<g>
				<polygon fill="#297F7B" points="1574.895,244.429 1521.4,244.429 1521.4,63.951 1548.147,48.461 1574.895,63.951 				"/>
				<g>
					<g>
						<path fill="#E6DDE1" d="M1540.515,210.657v-11.52c0-2.35-1.905-4.255-4.255-4.255s-4.256,1.905-4.256,4.255v11.52H1540.515z"
							/>
						<path fill="#E6DDE1" d="M1540.515,186.786v-11.52c0-2.35-1.905-4.256-4.255-4.256s-4.256,1.906-4.256,4.256v11.52H1540.515z"
							/>
						<path fill="#E6DDE1" d="M1540.515,162.915v-11.521c0-2.349-1.905-4.255-4.255-4.255s-4.256,1.906-4.256,4.255v11.521H1540.515
							z"/>
						<path fill="#E6DDE1" d="M1540.515,139.043v-11.52c0-2.35-1.905-4.256-4.255-4.256s-4.256,1.906-4.256,4.256v11.52H1540.515z"
							/>
						<path fill="#E6DDE1" d="M1540.515,115.172v-11.52c0-2.35-1.905-4.256-4.255-4.256s-4.256,1.906-4.256,4.256v11.52H1540.515z"
							/>
						<path fill="#E6DDE1" d="M1540.515,91.301v-11.52c0-2.35-1.905-4.255-4.255-4.255s-4.256,1.905-4.256,4.255v11.52
							C1532.004,91.301,1540.515,91.301,1540.515,91.301z"/>
					</g>
					<g>
						<path fill="#E6DDE1" d="M1564.291,210.657v-11.52c0-2.35-1.905-4.255-4.256-4.255c-2.35,0-4.255,1.905-4.255,4.255v11.52
							H1564.291z"/>
						<path fill="#E6DDE1" d="M1564.291,186.786v-11.52c0-2.35-1.905-4.256-4.256-4.256c-2.35,0-4.255,1.906-4.255,4.256v11.52
							H1564.291z"/>
						<path fill="#E6DDE1" d="M1564.291,162.915v-11.521c0-2.349-1.905-4.255-4.256-4.255c-2.35,0-4.255,1.906-4.255,4.255v11.521
							H1564.291z"/>
						<path fill="#E6DDE1" d="M1564.291,139.043v-11.52c0-2.35-1.905-4.256-4.256-4.256c-2.35,0-4.255,1.906-4.255,4.256v11.52
							H1564.291z"/>
						<path fill="#E6DDE1" d="M1564.291,115.172v-11.52c0-2.35-1.905-4.256-4.256-4.256c-2.35,0-4.255,1.906-4.255,4.256v11.52
							H1564.291z"/>
						<path fill="#E6DDE1" d="M1564.291,91.301v-11.52c0-2.35-1.905-4.255-4.256-4.255c-2.35,0-4.255,1.905-4.255,4.255v11.52
							C1555.78,91.301,1564.291,91.301,1564.291,91.301z"/>
					</g>
				</g>
				<path fill="#E6DDE1" d="M1547.303,244.474h-11.888v-23.55h11.888V244.474z M1560.879,220.924h-11.887v23.55h11.887V220.924z"/>
			</g>
			<g>
				<rect x="1174.538" y="147.333" fill="#297F7B" width="53.495" height="102.623"/>
				<g>
					<g>
						<path fill="#E6DDE1" d="M1193.653,216.183v-11.52c0-2.35-1.905-4.255-4.255-4.255c-2.351,0-4.256,1.905-4.256,4.255v11.52
							H1193.653z"/>
						<path fill="#E6DDE1" d="M1193.653,192.312v-11.52c0-2.35-1.905-4.256-4.255-4.256c-2.351,0-4.256,1.906-4.256,4.256v11.52
							H1193.653z"/>
						<path fill="#E6DDE1" d="M1193.653,168.441V156.92c0-2.349-1.905-4.255-4.255-4.255c-2.351,0-4.256,1.906-4.256,4.255v11.521
							H1193.653z"/>
					</g>
					<g>
						<path fill="#E6DDE1" d="M1217.428,216.183v-11.52c0-2.35-1.905-4.255-4.255-4.255c-2.351,0-4.256,1.905-4.256,4.255v11.52
							H1217.428z"/>
						<path fill="#E6DDE1" d="M1217.428,192.312v-11.52c0-2.35-1.905-4.256-4.255-4.256c-2.351,0-4.256,1.906-4.256,4.256v11.52
							H1217.428z"/>
						<path fill="#E6DDE1" d="M1217.428,168.441V156.92c0-2.349-1.905-4.255-4.255-4.255c-2.351,0-4.256,1.906-4.256,4.255v11.521
							H1217.428z"/>
					</g>
				</g>
				<path fill="#E6DDE1" d="M1200.441,250h-11.888v-23.55h11.888V250z M1214.018,226.45h-11.888V250h11.888V226.45z"/>
			</g>
			<g>
				<polygon fill="#EE4F57" points="1334.933,249.955 1281.438,249.955 1281.438,128.443 1308.186,112.954 1334.933,128.443 				"/>
				<g>
					<g>
						<path fill="#E6DDE1" d="M1300.553,216.183v-11.52c0-2.35-1.905-4.255-4.256-4.255c-2.35,0-4.255,1.905-4.255,4.255v11.52
							H1300.553z"/>
						<path fill="#E6DDE1" d="M1300.553,192.312v-11.52c0-2.35-1.905-4.256-4.256-4.256c-2.35,0-4.255,1.906-4.255,4.256v11.52
							H1300.553z"/>
						<path fill="#E6DDE1" d="M1300.553,168.441V156.92c0-2.349-1.905-4.255-4.256-4.255c-2.35,0-4.255,1.906-4.255,4.255v11.521
							H1300.553z"/>
						<path fill="#E6DDE1" d="M1300.553,144.57v-11.52c0-2.351-1.905-4.256-4.256-4.256c-2.35,0-4.255,1.905-4.255,4.256v11.52
							H1300.553z"/>
					</g>
					<g>
						<path fill="#E6DDE1" d="M1324.329,216.183v-11.52c0-2.35-1.905-4.255-4.256-4.255c-2.35,0-4.255,1.905-4.255,4.255v11.52
							H1324.329z"/>
						<path fill="#E6DDE1" d="M1324.329,192.312v-11.52c0-2.35-1.905-4.256-4.256-4.256c-2.35,0-4.255,1.906-4.255,4.256v11.52
							H1324.329z"/>
						<path fill="#E6DDE1" d="M1324.329,168.441V156.92c0-2.349-1.905-4.255-4.256-4.255c-2.35,0-4.255,1.906-4.255,4.255v11.521
							H1324.329z"/>
						<path fill="#E6DDE1" d="M1324.329,144.57v-11.52c0-2.351-1.905-4.256-4.256-4.256c-2.35,0-4.255,1.905-4.255,4.256v11.52
							H1324.329z"/>
					</g>
				</g>
				<path fill="#E6DDE1" d="M1307.341,250h-11.888v-23.55h11.888V250z M1320.918,226.45h-11.887V250h11.887V226.45z"/>
			</g>
			<g>
				<polygon fill="#46474A" points="1517.404,249.955 1463.909,249.955 1463.909,72.763 1517.404,55.471 				"/>
				<g>
					<g>
						<path fill="#E6DDE1" d="M1483.024,216.183v-11.52c0-2.35-1.905-4.255-4.255-4.255c-2.351,0-4.256,1.905-4.256,4.255v11.52
							H1483.024z"/>
						<path fill="#E6DDE1" d="M1483.024,192.312v-11.52c0-2.35-1.905-4.256-4.255-4.256c-2.351,0-4.256,1.906-4.256,4.256v11.52
							H1483.024z"/>
						<path fill="#E6DDE1" d="M1483.024,168.441V156.92c0-2.349-1.905-4.255-4.255-4.255c-2.351,0-4.256,1.906-4.256,4.255v11.521
							H1483.024z"/>
						<path fill="#E6DDE1" d="M1483.024,144.57v-11.52c0-2.351-1.905-4.256-4.255-4.256c-2.351,0-4.256,1.905-4.256,4.256v11.52
							H1483.024z"/>
						<path fill="#E6DDE1" d="M1483.024,120.698v-11.52c0-2.35-1.905-4.256-4.255-4.256c-2.351,0-4.256,1.906-4.256,4.256v11.52
							H1483.024z"/>
						<path fill="#E6DDE1" d="M1483.024,96.827v-11.52c0-2.35-1.905-4.256-4.255-4.256c-2.351,0-4.256,1.906-4.256,4.256v11.52
							C1474.513,96.827,1483.024,96.827,1483.024,96.827z"/>
					</g>
					<g>
						<path fill="#E6DDE1" d="M1506.799,216.183v-11.52c0-2.35-1.905-4.255-4.255-4.255c-2.351,0-4.255,1.905-4.255,4.255v11.52
							H1506.799z"/>
						<path fill="#E6DDE1" d="M1506.799,192.312v-11.52c0-2.35-1.905-4.256-4.255-4.256c-2.351,0-4.255,1.906-4.255,4.256v11.52
							H1506.799z"/>
						<path fill="#E6DDE1" d="M1506.799,168.441V156.92c0-2.349-1.905-4.255-4.255-4.255c-2.351,0-4.255,1.906-4.255,4.255v11.521
							H1506.799z"/>
						<path fill="#E6DDE1" d="M1506.799,144.57v-11.52c0-2.351-1.905-4.256-4.255-4.256c-2.351,0-4.255,1.905-4.255,4.256v11.52
							H1506.799z"/>
						<path fill="#E6DDE1" d="M1506.799,120.698v-11.52c0-2.35-1.905-4.256-4.255-4.256c-2.351,0-4.255,1.906-4.255,4.256v11.52
							H1506.799z"/>
						<path fill="#E6DDE1" d="M1506.799,96.827v-11.52c0-2.35-1.905-4.256-4.255-4.256c-2.351,0-4.255,1.906-4.255,4.256v11.52
							C1498.289,96.827,1506.799,96.827,1506.799,96.827z"/>
					</g>
				</g>
				<path fill="#E6DDE1" d="M1489.813,250h-11.888v-23.55h11.888V250z M1503.389,226.45h-11.888V250h11.888V226.45z"/>
			</g>
			<g>
				<rect x="1374.942" y="69.477" fill="#46474A" width="53.495" height="180.478"/>
				<g>
					<g>
						<path fill="#E6DDE1" d="M1394.057,216.183v-11.52c0-2.35-1.905-4.255-4.255-4.255c-2.351,0-4.256,1.905-4.256,4.255v11.52
							H1394.057z"/>
						<path fill="#E6DDE1" d="M1394.057,192.312v-11.52c0-2.35-1.905-4.256-4.255-4.256c-2.351,0-4.256,1.906-4.256,4.256v11.52
							H1394.057z"/>
						<path fill="#E6DDE1" d="M1394.057,168.441V156.92c0-2.349-1.905-4.255-4.255-4.255c-2.351,0-4.256,1.906-4.256,4.255v11.521
							H1394.057z"/>
						<path fill="#E6DDE1" d="M1394.057,144.57v-11.52c0-2.351-1.905-4.256-4.255-4.256c-2.351,0-4.256,1.905-4.256,4.256v11.52
							H1394.057z"/>
						<path fill="#E6DDE1" d="M1394.057,120.698v-11.52c0-2.35-1.905-4.256-4.255-4.256c-2.351,0-4.256,1.906-4.256,4.256v11.52
							H1394.057z"/>
						<path fill="#E6DDE1" d="M1394.057,96.827v-11.52c0-2.35-1.905-4.256-4.255-4.256c-2.351,0-4.256,1.906-4.256,4.256v11.52
							C1385.546,96.827,1394.057,96.827,1394.057,96.827z"/>
					</g>
					<g>
						<path fill="#E6DDE1" d="M1417.833,216.183v-11.52c0-2.35-1.905-4.255-4.255-4.255c-2.351,0-4.256,1.905-4.256,4.255v11.52
							H1417.833z"/>
						<path fill="#E6DDE1" d="M1417.833,192.312v-11.52c0-2.35-1.905-4.256-4.255-4.256c-2.351,0-4.256,1.906-4.256,4.256v11.52
							H1417.833z"/>
						<path fill="#E6DDE1" d="M1417.833,168.441V156.92c0-2.349-1.905-4.255-4.255-4.255c-2.351,0-4.256,1.906-4.256,4.255v11.521
							H1417.833z"/>
						<path fill="#E6DDE1" d="M1417.833,144.57v-11.52c0-2.351-1.905-4.256-4.255-4.256c-2.351,0-4.256,1.905-4.256,4.256v11.52
							H1417.833z"/>
						<path fill="#E6DDE1" d="M1417.833,120.698v-11.52c0-2.35-1.905-4.256-4.255-4.256c-2.351,0-4.256,1.906-4.256,4.256v11.52
							H1417.833z"/>
						<path fill="#E6DDE1" d="M1417.833,96.827v-11.52c0-2.35-1.905-4.256-4.255-4.256c-2.351,0-4.256,1.906-4.256,4.256v11.52
							C1409.322,96.827,1417.833,96.827,1417.833,96.827z"/>
					</g>
				</g>
				<path fill="#E6DDE1" d="M1400.846,250h-11.888v-23.55h11.888V250z M1414.422,226.45h-11.888V250h11.888V226.45z"/>
			</g>
			<g>
				<polygon fill="#D8AB56" points="1401.396,249.955 1347.902,249.955 1347.902,98.343 1401.396,81.051 				"/>
				<g>
					<g>
						<path fill="#E6DDE1" d="M1367.016,216.183v-11.52c0-2.35-1.905-4.255-4.255-4.255c-2.35,0-4.255,1.905-4.255,4.255v11.52
							H1367.016z"/>
						<path fill="#E6DDE1" d="M1367.016,192.312v-11.52c0-2.35-1.905-4.256-4.255-4.256c-2.35,0-4.255,1.906-4.255,4.256v11.52
							H1367.016z"/>
						<path fill="#E6DDE1" d="M1367.016,168.441V156.92c0-2.349-1.905-4.255-4.255-4.255c-2.35,0-4.255,1.906-4.255,4.255v11.521
							H1367.016z"/>
						<path fill="#E6DDE1" d="M1367.016,144.57v-11.52c0-2.351-1.905-4.256-4.255-4.256c-2.35,0-4.255,1.905-4.255,4.256v11.52
							H1367.016z"/>
						<path fill="#E6DDE1" d="M1367.016,120.698v-11.52c0-2.35-1.905-4.256-4.255-4.256c-2.35,0-4.255,1.906-4.255,4.256v11.52
							H1367.016z"/>
					</g>
					<g>
						<path fill="#E6DDE1" d="M1390.792,216.183v-11.52c0-2.35-1.905-4.255-4.255-4.255c-2.351,0-4.256,1.905-4.256,4.255v11.52
							H1390.792z"/>
						<path fill="#E6DDE1" d="M1390.792,192.312v-11.52c0-2.35-1.905-4.256-4.255-4.256c-2.351,0-4.256,1.906-4.256,4.256v11.52
							H1390.792z"/>
						<path fill="#E6DDE1" d="M1390.792,168.441V156.92c0-2.349-1.905-4.255-4.255-4.255c-2.351,0-4.256,1.906-4.256,4.255v11.521
							H1390.792z"/>
						<path fill="#E6DDE1" d="M1390.792,144.57v-11.52c0-2.351-1.905-4.256-4.255-4.256c-2.351,0-4.256,1.905-4.256,4.256v11.52
							H1390.792z"/>
						<path fill="#E6DDE1" d="M1390.792,120.698v-11.52c0-2.35-1.905-4.256-4.255-4.256c-2.351,0-4.256,1.906-4.256,4.256v11.52
							H1390.792z"/>
					</g>
				</g>
				<path fill="#E6DDE1" d="M1373.805,250h-11.887v-23.55h11.887V250z M1387.382,226.45h-11.888V250h11.888V226.45z"/>
			</g>
			<g>
				<rect x="1410.414" y="53.165" fill="#D8AB56" width="53.495" height="180.479"/>
				<path fill="#E6DDE1" d="M1436.317,233.688h-11.887v-23.55h11.887V233.688z M1449.893,210.138h-11.887v23.55h11.887V210.138z"/>
				<g>
					<rect x="1417.321" y="191.377" fill="#E6DDE1" width="9.077" height="11.775"/>
					<rect x="1432.623" y="191.377" fill="#E6DDE1" width="9.077" height="11.775"/>
					<rect x="1447.925" y="191.377" fill="#E6DDE1" width="9.077" height="11.775"/>
				</g>
				<g>
					<rect x="1417.321" y="169.89" fill="#E6DDE1" width="9.077" height="11.775"/>
					<rect x="1432.623" y="169.89" fill="#E6DDE1" width="9.077" height="11.775"/>
					<rect x="1447.925" y="169.89" fill="#E6DDE1" width="9.077" height="11.775"/>
				</g>
				<g>
					<rect x="1417.321" y="148.403" fill="#E6DDE1" width="9.077" height="11.775"/>
					<rect x="1432.623" y="148.403" fill="#E6DDE1" width="9.077" height="11.775"/>
					<rect x="1447.925" y="148.403" fill="#E6DDE1" width="9.077" height="11.775"/>
				</g>
				<g>
					<rect x="1417.321" y="126.916" fill="#E6DDE1" width="9.077" height="11.775"/>
					<rect x="1432.623" y="126.916" fill="#E6DDE1" width="9.077" height="11.775"/>
					<rect x="1447.925" y="126.916" fill="#E6DDE1" width="9.077" height="11.775"/>
				</g>
				<g>
					<rect x="1417.321" y="105.428" fill="#E6DDE1" width="9.077" height="11.775"/>
					<rect x="1432.623" y="105.428" fill="#E6DDE1" width="9.077" height="11.775"/>
					<rect x="1447.925" y="105.428" fill="#E6DDE1" width="9.077" height="11.775"/>
				</g>
				<g>
					<rect x="1417.321" y="83.941" fill="#E6DDE1" width="9.077" height="11.775"/>
					<rect x="1432.623" y="83.941" fill="#E6DDE1" width="9.077" height="11.775"/>
					<rect x="1447.925" y="83.941" fill="#E6DDE1" width="9.077" height="11.775"/>
				</g>
				<g>
					<rect x="1417.321" y="62.454" fill="#E6DDE1" width="9.077" height="11.775"/>
					<rect x="1432.623" y="62.454" fill="#E6DDE1" width="9.077" height="11.775"/>
					<rect x="1447.925" y="62.454" fill="#E6DDE1" width="9.077" height="11.775"/>
				</g>
			</g>
			<g>
				<rect x="1374.942" y="99.781" fill="#EE4F57" width="53.495" height="150.174"/>
				<g>
					<g>
						<path fill="#E6DDE1" d="M1394.057,216.183v-11.52c0-2.35-1.905-4.255-4.255-4.255c-2.351,0-4.256,1.905-4.256,4.255v11.52
							H1394.057z"/>
						<path fill="#E6DDE1" d="M1394.057,192.312v-11.52c0-2.35-1.905-4.256-4.255-4.256c-2.351,0-4.256,1.906-4.256,4.256v11.52
							H1394.057z"/>
						<path fill="#E6DDE1" d="M1394.057,168.441V156.92c0-2.349-1.905-4.255-4.255-4.255c-2.351,0-4.256,1.906-4.256,4.255v11.521
							H1394.057z"/>
						<path fill="#E6DDE1" d="M1394.057,144.57v-11.52c0-2.351-1.905-4.256-4.255-4.256c-2.351,0-4.256,1.905-4.256,4.256v11.52
							H1394.057z"/>
						<path fill="#E6DDE1" d="M1394.057,120.698v-11.52c0-2.35-1.905-4.256-4.255-4.256c-2.351,0-4.256,1.906-4.256,4.256v11.52
							H1394.057z"/>
					</g>
					<g>
						<path fill="#E6DDE1" d="M1417.833,216.183v-11.52c0-2.35-1.905-4.255-4.255-4.255c-2.351,0-4.256,1.905-4.256,4.255v11.52
							H1417.833z"/>
						<path fill="#E6DDE1" d="M1417.833,192.312v-11.52c0-2.35-1.905-4.256-4.255-4.256c-2.351,0-4.256,1.906-4.256,4.256v11.52
							H1417.833z"/>
						<path fill="#E6DDE1" d="M1417.833,168.441V156.92c0-2.349-1.905-4.255-4.255-4.255c-2.351,0-4.256,1.906-4.256,4.255v11.521
							H1417.833z"/>
						<path fill="#E6DDE1" d="M1417.833,144.57v-11.52c0-2.351-1.905-4.256-4.255-4.256c-2.351,0-4.256,1.905-4.256,4.256v11.52
							H1417.833z"/>
						<path fill="#E6DDE1" d="M1417.833,120.698v-11.52c0-2.35-1.905-4.256-4.255-4.256c-2.351,0-4.256,1.906-4.256,4.256v11.52
							H1417.833z"/>
					</g>
				</g>
				<path fill="#E6DDE1" d="M1400.846,250h-11.888v-23.55h11.888V250z M1414.422,226.45h-11.888V250h11.888V226.45z"/>
			</g>
			<g>
				<polygon fill="#D8AB56" points="1555.781,228.341 1502.286,228.341 1502.286,82.957 1529.033,67.468 1555.781,82.957 				"/>
				<g>
					<g>
						<path fill="#E6DDE1" d="M1521.4,194.569v-11.52c0-2.351-1.904-4.256-4.254-4.256c-2.351,0-4.256,1.905-4.256,4.256v11.52
							H1521.4z"/>
						<path fill="#E6DDE1" d="M1521.4,170.698v-11.52c0-2.35-1.904-4.256-4.254-4.256c-2.351,0-4.256,1.906-4.256,4.256v11.52
							H1521.4z"/>
						<path fill="#E6DDE1" d="M1521.4,146.826v-11.52c0-2.35-1.904-4.255-4.254-4.255c-2.351,0-4.256,1.905-4.256,4.255v11.52
							H1521.4z"/>
						<path fill="#E6DDE1" d="M1521.4,122.956v-11.52c0-2.351-1.904-4.256-4.254-4.256c-2.351,0-4.256,1.905-4.256,4.256v11.52
							C1512.89,122.956,1521.4,122.956,1521.4,122.956z"/>
						<path fill="#E6DDE1" d="M1521.4,99.084V87.563c0-2.349-1.904-4.255-4.254-4.255c-2.351,0-4.256,1.906-4.256,4.255v11.521
							H1521.4z"/>
					</g>
					<g>
						<path fill="#E6DDE1" d="M1545.176,194.569v-11.52c0-2.351-1.905-4.256-4.255-4.256c-2.351,0-4.255,1.905-4.255,4.256v11.52
							H1545.176z"/>
						<path fill="#E6DDE1" d="M1545.176,170.698v-11.52c0-2.35-1.905-4.256-4.255-4.256c-2.351,0-4.255,1.906-4.255,4.256v11.52
							H1545.176z"/>
						<path fill="#E6DDE1" d="M1545.176,146.826v-11.52c0-2.35-1.905-4.255-4.255-4.255c-2.351,0-4.255,1.905-4.255,4.255v11.52
							H1545.176z"/>
						<path fill="#E6DDE1" d="M1545.176,122.956v-11.52c0-2.351-1.905-4.256-4.255-4.256c-2.351,0-4.255,1.905-4.255,4.256v11.52
							C1536.666,122.956,1545.176,122.956,1545.176,122.956z"/>
						<path fill="#E6DDE1" d="M1545.176,99.084V87.563c0-2.349-1.905-4.255-4.255-4.255c-2.351,0-4.255,1.906-4.255,4.255v11.521
							H1545.176z"/>
					</g>
				</g>
				<path fill="#E6DDE1" d="M1528.189,228.386h-11.888v-23.55h11.888V228.386z M1541.765,204.836h-11.888v23.55h11.888V204.836z"/>
			</g>
			<g>
				<polygon fill="#EE4F57" points="1582.963,249.955 1529.469,249.955 1529.469,104.571 1556.215,89.082 1582.963,104.571 				"/>
				<path fill="#E6DDE1" d="M1555.371,250h-11.888v-23.55h11.888V250z M1568.947,226.45h-11.888V250h11.888V226.45z"/>
				<g>
					<rect x="1536.376" y="205.681" fill="#E6DDE1" width="9.077" height="11.775"/>
					<rect x="1551.677" y="205.681" fill="#E6DDE1" width="9.077" height="11.775"/>
					<rect x="1566.979" y="205.681" fill="#E6DDE1" width="9.077" height="11.775"/>
				</g>
				<g>
					<rect x="1536.376" y="184.194" fill="#E6DDE1" width="9.077" height="11.775"/>
					<rect x="1551.677" y="184.194" fill="#E6DDE1" width="9.077" height="11.775"/>
					<rect x="1566.979" y="184.194" fill="#E6DDE1" width="9.077" height="11.775"/>
				</g>
				<g>
					<rect x="1536.376" y="162.707" fill="#E6DDE1" width="9.077" height="11.775"/>
					<rect x="1551.677" y="162.707" fill="#E6DDE1" width="9.077" height="11.775"/>
					<rect x="1566.979" y="162.707" fill="#E6DDE1" width="9.077" height="11.775"/>
				</g>
				<g>
					<rect x="1536.376" y="141.219" fill="#E6DDE1" width="9.077" height="11.775"/>
					<rect x="1551.677" y="141.219" fill="#E6DDE1" width="9.077" height="11.775"/>
					<rect x="1566.979" y="141.219" fill="#E6DDE1" width="9.077" height="11.775"/>
				</g>
				<g>
					<rect x="1536.376" y="119.732" fill="#E6DDE1" width="9.077" height="11.775"/>
					<rect x="1551.677" y="119.732" fill="#E6DDE1" width="9.077" height="11.775"/>
					<rect x="1566.979" y="119.732" fill="#E6DDE1" width="9.077" height="11.775"/>
				</g>
			</g>
			<g>
				<polygon fill="#D8AB56" points="1281.271,249.955 1227.775,249.955 1227.775,151.971 1281.271,134.68 				"/>
				<path fill="#E6DDE1" d="M1253.679,250h-11.888v-23.55h11.888V250z M1267.255,226.45h-11.888V250h11.888V226.45z"/>
				<g>
					<rect x="1234.683" y="205.681" fill="#E6DDE1" width="9.077" height="11.775"/>
					<rect x="1249.985" y="205.681" fill="#E6DDE1" width="9.077" height="11.775"/>
					<rect x="1265.287" y="205.681" fill="#E6DDE1" width="9.077" height="11.775"/>
				</g>
				<g>
					<rect x="1234.683" y="184.194" fill="#E6DDE1" width="9.077" height="11.775"/>
					<rect x="1249.985" y="184.194" fill="#E6DDE1" width="9.077" height="11.775"/>
					<rect x="1265.287" y="184.194" fill="#E6DDE1" width="9.077" height="11.775"/>
				</g>
				<g>
					<rect x="1234.683" y="162.707" fill="#E6DDE1" width="9.077" height="11.775"/>
					<rect x="1249.985" y="162.707" fill="#E6DDE1" width="9.077" height="11.775"/>
					<rect x="1265.287" y="162.707" fill="#E6DDE1" width="9.077" height="11.775"/>
				</g>
			</g>
			<g>
				<polygon fill="#EE4F57" points="1494.405,249.955 1440.91,249.955 1440.91,98.343 1494.405,81.051 				"/>
				<g>
					<g>
						<path fill="#E6DDE1" d="M1460.025,216.183v-11.52c0-2.35-1.905-4.255-4.255-4.255c-2.351,0-4.256,1.905-4.256,4.255v11.52
							H1460.025z"/>
						<path fill="#E6DDE1" d="M1460.025,192.312v-11.52c0-2.35-1.905-4.256-4.255-4.256c-2.351,0-4.256,1.906-4.256,4.256v11.52
							H1460.025z"/>
						<path fill="#E6DDE1" d="M1460.025,168.441V156.92c0-2.349-1.905-4.255-4.255-4.255c-2.351,0-4.256,1.906-4.256,4.255v11.521
							H1460.025z"/>
						<path fill="#E6DDE1" d="M1460.025,144.57v-11.52c0-2.351-1.905-4.256-4.255-4.256c-2.351,0-4.256,1.905-4.256,4.256v11.52
							H1460.025z"/>
						<path fill="#E6DDE1" d="M1460.025,120.698v-11.52c0-2.35-1.905-4.256-4.255-4.256c-2.351,0-4.256,1.906-4.256,4.256v11.52
							H1460.025z"/>
					</g>
					<g>
						<path fill="#E6DDE1" d="M1483.801,216.183v-11.52c0-2.35-1.905-4.255-4.255-4.255c-2.351,0-4.256,1.905-4.256,4.255v11.52
							H1483.801z"/>
						<path fill="#E6DDE1" d="M1483.801,192.312v-11.52c0-2.35-1.905-4.256-4.255-4.256c-2.351,0-4.256,1.906-4.256,4.256v11.52
							H1483.801z"/>
						<path fill="#E6DDE1" d="M1483.801,168.441V156.92c0-2.349-1.905-4.255-4.255-4.255c-2.351,0-4.256,1.906-4.256,4.255v11.521
							H1483.801z"/>
						<path fill="#E6DDE1" d="M1483.801,144.57v-11.52c0-2.351-1.905-4.256-4.255-4.256c-2.351,0-4.256,1.905-4.256,4.256v11.52
							H1483.801z"/>
						<path fill="#E6DDE1" d="M1483.801,120.698v-11.52c0-2.35-1.905-4.256-4.255-4.256c-2.351,0-4.256,1.906-4.256,4.256v11.52
							H1483.801z"/>
					</g>
				</g>
				<path fill="#E6DDE1" d="M1466.814,250h-11.888v-23.55h11.888V250z M1480.39,226.45h-11.888V250h11.888V226.45z"/>
			</g>
			<g>
				<polygon fill="#297F7B" points="1456.277,249.955 1402.781,249.955 1402.781,151.971 1456.277,134.68 				"/>
				<rect x="1407.341" y="212.697" fill="#E6DDE1" width="44.377" height="3.46"/>
				<rect x="1407.341" y="200.524" fill="#E6DDE1" width="44.377" height="3.46"/>
				<rect x="1407.341" y="188.352" fill="#E6DDE1" width="44.377" height="3.46"/>
				<rect x="1407.341" y="176.179" fill="#E6DDE1" width="44.377" height="3.46"/>
				<rect x="1407.341" y="164.007" fill="#E6DDE1" width="44.377" height="3.46"/>
				<path fill="#E6DDE1" d="M1428.685,250h-11.888v-23.55h11.888V250z M1442.261,226.45h-11.888V250h11.888V226.45z"/>
			</g>
			<g>
				<rect x="1475.538" y="147.333" fill="#46474A" width="53.495" height="102.623"/>
				<g>
					<g>
						<path fill="#E6DDE1" d="M1494.653,216.183v-11.52c0-2.35-1.905-4.255-4.255-4.255c-2.351,0-4.255,1.905-4.255,4.255v11.52
							H1494.653z"/>
						<path fill="#E6DDE1" d="M1494.653,192.312v-11.52c0-2.35-1.905-4.256-4.255-4.256c-2.351,0-4.255,1.906-4.255,4.256v11.52
							H1494.653z"/>
						<path fill="#E6DDE1" d="M1494.653,168.441V156.92c0-2.349-1.905-4.255-4.255-4.255c-2.351,0-4.255,1.906-4.255,4.255v11.521
							H1494.653z"/>
					</g>
					<g>
						<path fill="#E6DDE1" d="M1518.429,216.183v-11.52c0-2.35-1.905-4.255-4.255-4.255c-2.351,0-4.255,1.905-4.255,4.255v11.52
							H1518.429z"/>
						<path fill="#E6DDE1" d="M1518.429,192.312v-11.52c0-2.35-1.905-4.256-4.255-4.256c-2.351,0-4.255,1.906-4.255,4.256v11.52
							H1518.429z"/>
						<path fill="#E6DDE1" d="M1518.429,168.441V156.92c0-2.349-1.905-4.255-4.255-4.255c-2.351,0-4.255,1.906-4.255,4.255v11.521
							H1518.429z"/>
					</g>
				</g>
				<path fill="#E6DDE1" d="M1501.441,250h-11.887v-23.55h11.887V250z M1515.018,226.45h-11.887V250h11.887V226.45z"/>
			</g>
			<g>
				<path fill="#519748" d="M1169.033,204.857c0,9.646-7.82,17.467-17.466,17.467s-17.466-7.82-17.466-17.467
					c0-9.646,17.466-44.068,17.466-44.068S1169.033,195.211,1169.033,204.857z"/>
				<polygon fill="#432918" points="1155.447,250 1147.686,250 1151.566,187.66 				"/>
			</g>
			<g>
				<path fill="#519748" d="M1231.922,214.153c0,7.66-6.21,13.87-13.869,13.87c-7.66,0-13.87-6.21-13.87-13.87
					c0-7.659,13.87-34.993,13.87-34.993S1231.922,206.494,1231.922,214.153z"/>
				<polygon fill="#432918" points="1221.134,250 1214.972,250 1218.053,200.497 				"/>
			</g>
			<g>
				<path fill="#519748" d="M1596.397,214.153c0,7.66-6.209,13.87-13.869,13.87s-13.869-6.21-13.869-13.87
					c0-7.659,13.869-34.993,13.869-34.993S1596.397,206.494,1596.397,214.153z"/>
				<polygon fill="#432918" points="1585.609,250 1579.447,250 1582.528,200.497 				"/>
			</g>
			<g>
				<path fill="#519748" d="M1307.072,211.156c0,8.301-6.728,15.029-15.029,15.029s-15.029-6.728-15.029-15.029
					c0-8.3,15.029-37.918,15.029-37.918S1307.072,202.856,1307.072,211.156z"/>
				<polygon fill="#432918" points="1295.382,250 1288.703,250 1292.043,196.359 				"/>
			</g>
			<g>
				<polygon fill="#46474A" points="1358.472,249.955 1304.978,249.955 1304.978,92.059 1358.472,74.767 				"/>
				<path fill="#E6DDE1" d="M1330.881,250h-11.888v-23.55h11.888V250z M1344.457,226.45h-11.887V250h11.887V226.45z"/>
				<g>
					<rect x="1311.885" y="205.681" fill="#E6DDE1" width="9.077" height="11.775"/>
					<rect x="1327.187" y="205.681" fill="#E6DDE1" width="9.077" height="11.775"/>
					<rect x="1342.488" y="205.681" fill="#E6DDE1" width="9.077" height="11.775"/>
				</g>
				<g>
					<rect x="1311.885" y="184.194" fill="#E6DDE1" width="9.077" height="11.775"/>
					<rect x="1327.187" y="184.194" fill="#E6DDE1" width="9.077" height="11.775"/>
					<rect x="1342.488" y="184.194" fill="#E6DDE1" width="9.077" height="11.775"/>
				</g>
				<g>
					<rect x="1311.885" y="162.707" fill="#E6DDE1" width="9.077" height="11.775"/>
					<rect x="1327.187" y="162.707" fill="#E6DDE1" width="9.077" height="11.775"/>
					<rect x="1342.488" y="162.707" fill="#E6DDE1" width="9.077" height="11.775"/>
				</g>
				<g>
					<rect x="1311.885" y="141.219" fill="#E6DDE1" width="9.077" height="11.775"/>
					<rect x="1327.187" y="141.219" fill="#E6DDE1" width="9.077" height="11.775"/>
					<rect x="1342.488" y="141.219" fill="#E6DDE1" width="9.077" height="11.775"/>
				</g>
				<g>
					<rect x="1311.885" y="119.732" fill="#E6DDE1" width="9.077" height="11.775"/>
					<rect x="1327.187" y="119.732" fill="#E6DDE1" width="9.077" height="11.775"/>
					<rect x="1342.488" y="119.732" fill="#E6DDE1" width="9.077" height="11.775"/>
				</g>
				<g>
					<rect x="1311.885" y="98.245" fill="#E6DDE1" width="9.077" height="11.775"/>
					<rect x="1327.187" y="98.245" fill="#E6DDE1" width="9.077" height="11.775"/>
					<rect x="1342.488" y="98.245" fill="#E6DDE1" width="9.077" height="11.775"/>
				</g>
			</g>
			<g>
				<path fill="#519748" d="M1503.664,210.253c0,8.494-6.885,15.379-15.378,15.379s-15.379-6.885-15.379-15.379
					c0-8.493,15.379-38.8,15.379-38.8S1503.664,201.76,1503.664,210.253z"/>
				<polygon fill="#432918" points="1491.702,250 1484.87,250 1488.286,195.112 				"/>
			</g>
			<g>
				<path fill="#519748" d="M1317.597,221.164c0,6.162-4.995,11.157-11.156,11.157c-6.162,0-11.157-4.995-11.157-11.157
					c0-6.161,11.157-28.147,11.157-28.147S1317.597,215.003,1317.597,221.164z"/>
				<polygon fill="#432918" points="1308.919,250 1303.962,250 1306.441,210.18 				"/>
			</g>
			<g>
				<path fill="#519748" d="M1483.648,221.164c0,6.162-4.994,11.157-11.156,11.157s-11.156-4.995-11.156-11.157
					c0-6.161,11.156-28.147,11.156-28.147S1483.648,215.003,1483.648,221.164z"/>
				<polygon fill="#432918" points="1474.971,250 1470.013,250 1472.492,210.18 				"/>
			</g>
			<g>
				<path fill="#519748" d="M1421.676,221.164c0,6.162-4.994,11.157-11.156,11.157s-11.156-4.995-11.156-11.157
					c0-6.161,11.156-28.147,11.156-28.147S1421.676,215.003,1421.676,221.164z"/>
				<polygon fill="#432918" points="1412.999,250 1408.042,250 1410.52,210.18 				"/>
			</g>
		</g>
	</g>
	<line fill="none" stroke="#494949" stroke-width="3" stroke-miterlimit="10" x1="1195.5" y1="250" x2="1306.5" y2="32.5"/>
	<line fill="none" stroke="#9B5627" stroke-width="10" stroke-miterlimit="10" x1="1348.5" y1="9.5" x2="1348.5" y2="250"/>
	<line fill="none" stroke="#9B5627" stroke-width="10" stroke-miterlimit="10" x1="1294.5" y1="32.5" x2="1401.5" y2="32.5"/>
	<path fill="none" stroke="#9B5627" stroke-width="10" stroke-miterlimit="10" d="M1347.5,250"/>
	<path fill="none" stroke="#494949" stroke-width="3" stroke-miterlimit="10" d="M1306.5,32.5c0,0,172,68,539,68
		c0,0,358.149,1.901,553.14-68"/>
	<path fill="none" stroke="#9B5627" stroke-width="10" stroke-miterlimit="10" d="M1400.5,32.5"/>
	<path fill="none" stroke="#9B5627" stroke-width="10" stroke-miterlimit="10" d="M1293.5,32.5"/>
	<path fill="none" stroke="#494949" stroke-width="3" stroke-miterlimit="10" d="M1397.5,32.5c0,0,209,51,464,43s403-33,443-43"/>
	<g>
		<line fill="none" stroke="#9B5627" stroke-width="10" stroke-miterlimit="10" x1="2351.092" y1="10.5" x2="2351.092" y2="251"/>
		<path fill="none" stroke="#494949" stroke-width="3" stroke-miterlimit="10" d="M2396.232,33.5"/>
		<path fill="none" stroke="#494949" stroke-width="3" stroke-miterlimit="10" d="M1303.092,33.5"/>
		<line fill="none" stroke="#9B5627" stroke-width="10" stroke-miterlimit="10" x1="2297.092" y1="33.5" x2="2404.092" y2="33.5"/>
	</g>
	<line fill="none" stroke="#9B5627" stroke-width="10" stroke-miterlimit="10" x1="3350.092" y1="10.5" x2="3350.092" y2="251"/>
	<path fill="none" stroke="#494949" stroke-width="3" stroke-miterlimit="10" d="M2302.092,33.5c0,0,172,68,539,68
		c0,0,359.149,1.901,554.14-68"/>
	<line fill="none" stroke="#9B5627" stroke-width="10" stroke-miterlimit="10" x1="3296.092" y1="33.5" x2="3403.092" y2="33.5"/>
	<path fill="none" stroke="#494949" stroke-width="3" stroke-miterlimit="10" d="M2393.092,33.5c0,0,209,51,464,43s404-33,444-43"/>
	<line fill="none" stroke="#9B5627" stroke-width="10" stroke-miterlimit="10" x1="4349.092" y1="10.5" x2="4349.092" y2="251"/>
	<path fill="none" stroke="#494949" stroke-width="3" stroke-miterlimit="10" d="M3301.092,33.5c0,0,172,68,539,68
		c0,0,359.149,1.901,554.14-68"/>
	<line fill="none" stroke="#9B5627" stroke-width="10" stroke-miterlimit="10" x1="4295.092" y1="33.5" x2="4402.092" y2="33.5"/>
	<path fill="none" stroke="#494949" stroke-width="3" stroke-miterlimit="10" d="M3392.092,33.5c0,0,209,51,464,43s404-33,444-43"/>
	<line fill="none" stroke="#9B5627" stroke-width="10" stroke-miterlimit="10" x1="5348.092" y1="10.5" x2="5348.092" y2="251"/>
	<path fill="none" stroke="#494949" stroke-width="3" stroke-miterlimit="10" d="M4300.092,33.5c0,0,172,68,539,68
		c0,0,359.149,1.901,554.14-68"/>
	<line fill="none" stroke="#9B5627" stroke-width="10" stroke-miterlimit="10" x1="5294.092" y1="33.5" x2="5401.092" y2="33.5"/>
	<path fill="none" stroke="#494949" stroke-width="3" stroke-miterlimit="10" d="M4391.092,33.5c0,0,209,51,464,43s404-33,444-43"/>
	<line fill="none" stroke="#494949" stroke-width="3" stroke-miterlimit="10" x1="5303.5" y1="33.5" x2="5517.5" y2="250"/>
	<line fill="none" stroke="#494949" stroke-width="3" stroke-miterlimit="10" x1="5393.5" y1="33.5" x2="5607.5" y2="250"/>
</g>
<g id="Layer_2_1_">
	<path fill="#27AE60" d="M1311.5,250c0,0-14-48.5,36-65.833c0,0,48-12,64,14c0,0,16.667,17,18,51.833H1311.5z"/>
	<path fill="#2ECC71" d="M1320.5,245.833c0,0-0.477-51.665,39-59c0,0,33.333-6.667,48.333,24c0,0-57-43-78,30l59,1.667
		L1320.5,245.833z"/>
	<path fill="#27AE60" d="M1410.5,250c0,0,4.5-85.5,85.5-86c0,0,49-3.5,78.5,46c0,0,9,20,11,40H1410.5z"/>
	<path fill="#2ECC71" d="M1432,221.5c0,0,16-46.5,66-46.5s62,40.701,62,40.701s-17-34.397-62-34.299
		C1453,181.5,1432,221.5,1432,221.5z"/>
	<path fill="#27AE60" d="M2616.5,253.554c0,0-14-48.5,36-65.833c0,0,48-12,64,14c0,0,16.667,17,18,51.833L2616.5,253.554
		L2616.5,253.554z"/>
	<path fill="#2ECC71" d="M2625.5,249.387c0,0-0.477-51.665,39-59c0,0,33.333-6.667,48.333,24c0,0-57-43-78,30l59,1.667
		L2625.5,249.387z"/>
	<path fill="#27AE60" d="M2715.5,253.554c0,0,4.5-85.5,85.5-86c0,0,49-3.5,78.5,46c0,0,9,20,11,40H2715.5z"/>
	<path fill="#2ECC71" d="M2737,225.054c0,0,16-46.5,66-46.5s62,40.701,62,40.701s-17-34.397-62-34.299
		C2758,185.054,2737,225.054,2737,225.054z"/>
</g>
</svg>
