<?xml version="1.0" encoding="utf-8"?>
<!-- Generator: Adobe Illustrator 17.0.0, SVG Export Plug-In . SVG Version: 6.00 Build 0)  -->
<!DOCTYPE svg PUBLIC "-//W3C//DTD SVG 1.1//EN" "http://www.w3.org/Graphics/SVG/1.1/DTD/svg11.dtd">
<svg version="1.1" xmlns="http://www.w3.org/2000/svg" xmlns:xlink="http://www.w3.org/1999/xlink" x="0px" y="0px" width="32px"
	 height="32px" viewBox="0 0 32 32" enable-background="new 0 0 32 32" xml:space="preserve">
<g id="Layer_2">
	<rect fill="#36CCE7" width="32" height="32"/>
</g>
<g id="Layer_1">
	<path fill="#D68C50" d="M27.206,9.761l-0.093,12.075c0,0-0.918,5.607-1.878,7.361c-1.36,2.486-12.286,1.099-15.717-0.221
		s-3.61-2.554-4.578-5.174c-0.871-2.358-1.315-10.293-1.315-10.293l1.048-7.084l17.384-2.557l2.808-0.061
		C24.865,3.808,26.75,4.27,27.206,9.761z"/>
	<path fill="#232323" d="M12.716,13.655c0,0,0.427-0.866,0.976-0.866c0.549,0,3.541,0,3.541,0s0.915,0,1.038-0.771h-4.456
		C13.815,12.018,12.655,13.075,12.716,13.655z"/>
	<path fill="#B77748" d="M19.431,4.113c0,0,0.673,16.787,2.199,18.497c0,0-1.77,0.183-2.564,0.915
		c-0.794,0.733-2.694,3.963,0.42,5.672c0,0-2.383,0.615-8.06-1.704s-5.328-4.044-5.45-4.899c0,0-1.083,2.402,1.73,4.079
		c2.996,1.786,5.01,2.523,5.01,2.523s8.341,1.853,11.572,0.742c0,0,2.354-1.477,2.659-7.154L27.05,8.212c0,0-0.416-3.612-1.453-4.1
		C24.56,3.624,19.431,4.113,19.431,4.113z"/>
	<path fill="#232323" d="M21.018,13.655c0,0,0.427-0.866,0.976-0.866c0.549,0,3.541,0,3.541,0s0.915,0,1.038-0.771h-4.456
		C22.117,12.018,20.958,13.075,21.018,13.655z"/>
	<path fill="#232323" d="M17.54,15.101c0,0.573-0.478,1.038-1.068,1.038c-0.59,0-1.068-0.464-1.068-1.038s0.478-0.712,1.068-0.712
		C17.061,14.389,17.54,14.528,17.54,15.101z"/>
	<path fill="#232323" d="M24.865,15.101c0,0.573-0.478,1.038-1.068,1.038s-1.068-0.464-1.068-1.038s0.478-0.712,1.068-0.712
		C24.386,14.389,24.865,14.528,24.865,15.101z"/>
	<path fill="#F4F1EF" d="M16.078,25.015c0,0,4.939,0.975,6.393,0.067c0,0-0.848,0.638-2.593,0.888
		C19.879,25.971,17.811,25.99,16.078,25.015z"/>
	<path fill="#282828" stroke="#282828" stroke-width="0.4883" stroke-linecap="square" stroke-miterlimit="10" d="M4.24,9.294
		c-0.138,0.946-0.277,1.896-0.395,2.725c-0.152,1.069-0.383,3.245-0.383,3.245l-0.034,4.538l1.248,3.238
		c0,0,0.533-5.034,0.594-5.252c0.061-0.218-0.183-2.259,0.366-2.259s1.282,0.619,1.282,2.05c0,0-0.122,0.514-0.672,1.186
		l3.113,0.427c0,0-2.869-4.579-1.526-6.288c0,0,1.099-1.585,2.747-0.884c0,0-3.663-2.23-1.038-4.305c0,0,2.014-1.709,4.151-1.465
		c2.136,0.244,4.645,0.236,5.985,2.254c0,0,0.75-2.641,3.741-2.581s3.63,2.289,3.63,2.289s0.317-2.75-0.477-6.047
		c0,0-0.285,1.504-0.652,1.687c0,0-1.241-1.755-1.057-2.486l-0.305,1.893l-1.832-1.893c0,0,1.221,1.099,0.305,2.014
		c0,0-2.747-0.488-2.564-2.381c0,0,0.092,2.564-1.419,2.869c-1.511,0.305-1.694-2.075-1.084-2.259
		c0.611-0.183-2.564,0.976-3.235,2.869c0,0-1.613-0.733-1.369-2.564c0,0-1.806,1.893-1.134,2.564c0,0-0.305-2.063-2.075-2.314
		c0,0,1.099,1.154,0.305,2.008c-0.794,0.855-2.32-2.686-2.32-2.686S5.451,3.563,6.489,4.051c0,0-1.893-1.526-3.723-0.183
		c0,0,2.671,0.376,2.259,0.672L4.24,9.294z"/>
	<path fill="#1E1E1E" d="M18.966,26.988l1.046,0.215l0.826-0.217c0,0-1.019,0.774-0.827,1.351
		C20.011,28.337,18.809,27.334,18.966,26.988z"/>
</g>
</svg>
