<?xml version="1.0" encoding="utf-8"?>
<!-- Generator: Adobe Illustrator 17.0.0, SVG Export Plug-In . SVG Version: 6.00 Build 0)  -->
<!DOCTYPE svg PUBLIC "-//W3C//DTD SVG 1.1//EN" "http://www.w3.org/Graphics/SVG/1.1/DTD/svg11.dtd">
<svg version="1.1" xmlns="http://www.w3.org/2000/svg" xmlns:xlink="http://www.w3.org/1999/xlink" x="0px" y="0px" width="32px"
	 height="32px" viewBox="0 0 32 32" enable-background="new 0 0 32 32" xml:space="preserve">
<g id="Layer_2">
	<polygon fill="#269CBC" points="32,32.244 0,32 0,0 32,0 	"/>
</g>
<g id="Layer_1">
	<path fill="#C98847" d="M26.51,32.244c0,0,8.119-9.404,4.611-17.406s-7.666-9.735-7.666-9.735h-9.427L8.554,9.446l-6.131,5.357
		v5.152l4.938,12.276L26.51,32.244z"/>
	<path fill="#21201F" stroke="#21201F" stroke-width="0.3468" stroke-miterlimit="10" d="M6.792,31.41
		c0,0-10.978-13.645-1.528-24.513L5.63,7.581L6.036,4.7l0.737,1.643l0.827-3.125L8.84,4.779V2.087l2.037,1.541l2.181-2.593
		l0.638,2.757l0.73-3.37l1.311,1.233l0.409-0.62l2.054,1.359l0.817-1.359l0.896,2.428l2.453-2.428v1.929l1.734-1.391v2.323
		l2.957-1.337l-0.252,2.795l1.803-0.329v1.83l0.347-0.022v1.227l1.434,0.252L29.8,9.712c0,0,2.091,3.042,2.009,8.139l-5.984-10.03
		l-2.869-1.644c0,0-1.567,2.549-3.946,2.795c0,0-2.213-0.082-4.268-2.384l-2.547,1.644L6.277,19.166l-0.575-4.439
		c0,0-2.043-0.492-3.042,0.74c0,0-0.74,1.891,0.822,2.22l1.315,0.164l-1.069,4.604L6.792,31.41z"/>
	<path fill="#A06835" d="M4.764,15.461c0,0-1.151-0.295-1.589,0.455c0,0-0.219,1.189,1.589,1.298c0,0-1.237-0.622-0.932-1.069
		C3.833,16.146,3.87,15.685,4.764,15.461z"/>
	<path fill="#A06835" d="M19.97,16.734l1.022,4.322h-2.471c0,0,1.567-0.325,1.567-0.9S19.97,16.734,19.97,16.734z"/>
	<path fill="#21201F" d="M16.499,14.055c0,0.658-0.442,1.192-0.987,1.192s-0.987-0.534-0.987-1.192c0-0.658,0.442-0.924,0.987-0.924
		S16.499,13.397,16.499,14.055z"/>
	<path fill="#21201F" d="M23.514,14.055c0,0.658-0.442,1.192-0.987,1.192c-0.545,0-0.987-0.534-0.987-1.192
		c0-0.658,0.442-0.924,0.987-0.924C23.072,13.131,23.514,13.397,23.514,14.055z"/>
	<path fill="#EAE7E5" d="M23.345,24.806c0,0-0.822,0.95-1.882,1.187c-1.06,0.238-2.667,0.233-2.667,0.233l-2.631-0.495l-1.644-0.861
		h5.261L23.345,24.806z"/>
	<path fill="#A06835" d="M14.521,24.177h8.711v0.694h-7.066C16.165,24.87,14.685,24.87,14.521,24.177z"/>
	<path fill="#A06835" d="M14.521,24.541c0,0,0.512,0.676,2.116,1.343c0,0,1.044,0.462,1.976,0.462c0,0,2.001,0.065,2.624-0.217
		c0,0,1.852,0.13,2.272-1.257h-0.493c0,0-1.261,1.142-3.718,1.16C19.298,26.03,17.055,26.167,14.521,24.541z"/>
	
		<line fill="none" stroke="#000000" stroke-width="0.5481" stroke-miterlimit="10" x1="15.335" y1="24.811" x2="15.335" y2="24.811"/>
</g>
</svg>
